<mxfile host="app.diagrams.net" modified="2023-10-12T11:45:14.260Z" agent="Mozilla/5.0 (X11; Linux x86_64; rv:109.0) Gecko/20100101 Firefox/116.0" etag="HwYo751KMoLqhpRw06-i" version="22.0.4" type="gitlab">
  <diagram id="C5RBs43oDa-KdzZeNtuy" name="Page-1">
    <mxGraphModel dx="4780" dy="2533" grid="1" gridSize="10" guides="1" tooltips="1" connect="1" arrows="1" fold="1" page="1" pageScale="1" pageWidth="827" pageHeight="1169" math="0" shadow="0">
      <root>
        <mxCell id="WIyWlLk6GJQsqaUBKTNV-0" />
        <mxCell id="WIyWlLk6GJQsqaUBKTNV-1" parent="WIyWlLk6GJQsqaUBKTNV-0" />
        <mxCell id="zkfFHV4jXpPFQw0GAbJ--0" value="Landing" style="swimlane;fontStyle=2;align=center;verticalAlign=top;childLayout=stackLayout;horizontal=1;startSize=26;horizontalStack=0;resizeParent=1;resizeLast=0;collapsible=1;marginBottom=0;rounded=0;shadow=0;strokeWidth=1;" parent="WIyWlLk6GJQsqaUBKTNV-1" vertex="1">
          <mxGeometry x="180" y="70" width="160" height="250" as="geometry">
            <mxRectangle x="230" y="140" width="160" height="26" as="alternateBounds" />
          </mxGeometry>
        </mxCell>
        <mxCell id="ZNyAp8tG6LV2TRc6ALxz-2" value="" style="shape=image;verticalLabelPosition=bottom;labelBackgroundColor=default;verticalAlign=top;aspect=fixed;imageAspect=0;image=data:image/png,iVBORw0KGgoAAAANSUhEUgAAAP0AAADdCAYAAABwmXTKAAAABHNCSVQICAgIfAhkiAAAABl0RVh0U29mdHdhcmUAZ25vbWUtc2NyZWVuc2hvdO8Dvz4AAAApdEVYdENyZWF0aW9uIFRpbWUAVGh1IDEyIE9jdCAyMDIzIDA3OjM0OjA2IEFNUYGXWgAAIABJREFUeJzt3XlclPXe//EXMMM2mBuoIKuYnVMqbrmgp9LKFvPW3HA3PZRtD2+rk6d+erxTudVSs9JfHk91yuygaGTZoqKh5r5riqKyI8q+iMrADMz9BzE6CDMDwybX5/l4+Mhr5rq+3891xcfrmmHmfdn1HjjCgBBCMew8ff4kTS+EQnj5PoCqRcu2jV2HEKIBFBbkAGDfyHUIIRqYNL0QCiNNL4TCSNMLoTDS9EIojDS9EAojTS+Ewlhs+nnvvsEjgwY0RC13GdC/D+PGjGiUuYVoriw2/dHjp0hOudIQtdylZ49ujTKvEM2ZQ9t2vu+ZWyF0xmQKb9wgPiEJgCVh8ygrK2P82JFMnzaBp54cjIuLMxdiLxm3WRI2D4PBwISQ55k+bSJPPvEYpaWlxjEAVn+8lOvXC0lJTTM+9t4/3ua+++7j4qU4Xpk5nb8M7MefHrif0c8/h7+fD4cOH6/TnRdCSUqKi2jR0h1VbTaeNH4Uy1eu4eKlOPx8vVkwfw4XYi9z/sJF4zohY0bwwYrVJCQm0+2hP/PWm6+Skppm8o+DOWvWfknL+1qQkJjMpm9/qE2ZQogq1OqNvMNHThB78TIGg4Gk5FQuxyUS2MnPZJ1DR44Tn5CEwWDg93PnOXbsFEMGD6qTooUQtVerpk/PyDRZLi4uxsXFxeSxzMxsk+UraVdp386jNtMJIepQrZq+RKezuI5abfrKwcHBASx8iVetVtemHCFEDdTb7+k7dvQ0WQ7s5E965u0rBK1Wi6OTo3HZwcEeDw/Tr/mWlZVhb29XXyUKoUj11vR9egUxKLgfbdu05okhjxDU/SGid+8zPp+QmExw/z44OTqiUql4fsQw3DQakzEyM7Pp1vVB2rRuRatWLeurVCEUpd6a/sefoxg0sB8fLl/EyBHPsm59BLEX44zPb9z0PTqdntUfL2XVysW4aTQcPHTMZIyffomiVF/KyuWLmDJxbH2VKoSi2HXpOrDO47KWhM1j9579RO3aU9dDCyFqqbAgpzwuS61SsWb1sipXWrr8E+LiEms3g7wUF6JJUun0ekJffqOx6xBCNBD5lp0QClMvr+mFEE1PxWt6OdMLoTDS9EIojApAo3Ft7DqEEHXg5s1bFtdRWbuiEKJ5kMt7IRRGml4IhZGmF0JhpOmFUJgm1fRLwuYx9MnHGrsMIZq1JtX0Qoj6J00vhMJYjMBeEjaP8I2R9O/bm+Dgvmz9cQdbfvgZlUrFpAmjGRjcFwxw5vcY1n0TwY0bNwHoFODHuDEj6BTgh729HWdjYvnsi/XculUElH8gKHTGZHoEdaVYW8yOnbvR6/XGeRcvmsuJk2eI3PKT8bGBA/oyfdoEXnn9bXR3rCuEsJ5VZ/ppU0Io0ekIW/whe387AMC4MSMIDPBnQdhy5s5fjMbNlZmh04zbFBVp2b1nP3+fu5C585fg5dmBYc88aXx+6qRxeHf0YmHYct4LW4aXZwf8fL2Nz+8/cIT+/fqY1PFwn54cP3laGl4IG1jV9Nk5uaxbH0F8QhK5efmo1WqGPvEYX4dvIi3tGlnZOWz+diu9e3XHxcUZgGvpGRw5dpK8vAIyMrM4fuI0vj4dAXB2diJ4QF/CN0aSmJRCenomX3wVTlnZ7S/8HTx0FM8O7YzbODqqCQp6SO5yI4SNrLrDzblzF0yW23m0xdFRzZy3XjfGWtvZlUfluLu3JTU1jc6BAQwfNhQvL0/s7e1w02hITEoBwMO9LQ4O9sZlKE/HzcnNNS7nF1wn5vxFBvR/mJTUNIK6d0VXouNcjGktQoiasarpK+fc29mVXyC8v2wVefkFJs8VFFynTetWzH1nNpsjt7Lq0y/Q6/WMHT2cwE4BFQOU/9dg+lV+vb7UZHn/wSOMHvkcEZu/p2+fnhw9dpLS0jKrd04IcbdavXufkZmFTq+nnYc7ubl5Jn9KS0sJCPDD3t6ebTuijW/OdejQ3rh9VlYOZWVl+Prcfg2vVqnwcG9jMs+x46do2eo+/P186BHUlYNyaS+EzWrV9Dqdju07opk8cSx9evfAw70tnQMDjB+syc7OQa1W07NHN9zcNDz6SDBB3R40bq/Vajl85AQTJ4zGz9eHdu3cmTolBJXK9MJDqy3m+InTjBo5DJ1OZ/XNL4UQ1avVXWuB8jvJGgzMmDaBFi3cKLheyMFDRwFITrnC5sitzAydiqOjmpOnzrL2s695fMgjxu3XfRNB6IzJLJg/B61Wy7aoaI6dOH3XPAcOHGXO315ne1Q0BoMkewlhqyafkafRuPLZmg95b9EyLl2Ob+xyhLhn1X/ufR3p07sHmZnZXI5LaNQ6hGgummzufYsWbrRu1ZLRI5/jx593yKW9EHWk1q/p69vbb75GRy9P9v52kF3RvzV2OUI0G03+Nb0Qom5I7r0QCiVNL4TCSO69EM2IVbn3Dz34QAOUIoRoTDHnLxr/Lpf3QiiMNL0QCiNNL4TCSNMLoTDS9EIoTLNu+kHBfZkY8rzJYwvnv83gR4MbqSIhGl+zbvrevbrf9djhoydISr7SCNUI0TRY/MKNWq1iysQx/GVgP1xdXYlPTOLfX20kLr78K7cffvAev2yPJrh/b7p0CUSrLWbnrr1EfLvV4uTlY49l0MC+aFxdSLuazsLFK8nPL7B53v9+LZRH/zIAgDGjnuPo8VMsXbaaJ/4I8qgI5bSm/s/XLGd9eCR79x0yPrZ44bscP3mG777/pfxAqlS8MGUcjwzqj8Fg4NSZc3zx1QYKC29Y/r8gRAOy2PSTxo+mZ49uLPtwDXn5+Twx5BH+Z+6bvPrf7xp/oKdNHsuSZau4EHsZfz8flob9P2IuXOJcTKzZsadMHMPDvYNYveZLsrKy8fP1Jv+PoE1b5/34/39Oy5YtiItPIjxii9k6alu/6XEaRefAAOb+z1KKi0t4KXQyr788nSXLVlk9hhANwezlvVqt5tmnh/Dl1xGcj73EtfRM1od/S3ZOLkOfeNS43oFDxzh/4RIGg4HEpBQuXk7g/sAAsxM7Ojry9NDB/PvrjZw89TupV66y/+DRep+3KraOo1areeapwfx73QZSr1wlMyubDRFbeLhPD1xdXGpcjxD1yeyZvkN7D1QqFYlJySaPxyck4evd0bh8LT3D5PlibbHxphfVad/OHZVKZbxcb6h5q2LrOO3buePo6Mi8d2Ybwz7s7Mv/PfXwaEtyiryHIJoOs01fOZ32NjuTJV2lXHxrVNwco6HnrUptxnF0VBv/XrEvCxevJC8/32S9/PzrthUnRB0ze3l/9Vo6JSUlBAb4mzwe2MmPK2lXbZo4IzOL0tKyu8auy3nLysqwt7f9FxRFRVqcnByNyw4O9rTzcDcup2dkodPpad/eg5ycPJM/paWlVQ0pRKMxe6YvLi5he9QeXpgawo2bN8nJzWPoE4/h4dGWHbv22jRxcXEJu6J/Y/rUEEpKSsjOySUgwI8zZ85x4+atOpk3PSOboO4P8cuOaAyGMvLyCixvVIW4hCQGBfdl775DlJaWMeb5Ybi5aYzP63Q6ftq2k+lTQ9DrdCQmpdKq5X107uzPL9ujazWnEPXF4rv368M3o9PpmPPmq2g0GhISk1n4vx9y/XqhzZOvW7+JF6aG8Nbsl3F2diIl9Sq/nz1fZ/N+/+M2/jb7FdZ8soQjx07x4cdra1XnNxsiefWlF/hszQr0ej0HDx1n34EjJuuEb9wCBnjpr1O47z43Cgqu89v+I9WMKETjsXt+3AzJyBOimYs5f/GO3Hu1ii//9VGVKy5c/CGXLtc+b74+xxZC1I6c6YVQgDvP9M36s/dCiLtJ0wuhMNL0QiiMNL0QCqMCavV5dSFE01NUpLW4jurOPGwhRPMnl/dCKIw0vRAKI00vhMJI0wuhME226ZeEzWPok481dhkNQkn7Khpfk216JZv37hs8MmiAcXlA/z6MGzOiESsSzYk0fRN09Pgpk1y9nj26NWI1ormxnHuvUjE+5HkGDuiLi6sLiYnJrP/PZuITkoDyS9OoXXvo93Av7u/cCa22mOg9+4jc8pPFydUqFRNCRjGgfx9cXV24ei2D95d9Qn7B3blyluoY8tgghg97ijZtW1N4vZADB4+yYVN59LVKpWLShNEMDO4LBjjzewzrvongxo2bta5vSdg8wjdG0r9vb4KD+7L1xx1s+eFni3NpNK6EzphMj6CuFGuL2bFzN3q93mTewY8OAiA5JZVXZk5nUHA/AEb+1zOcOHmGFR+tMbu/QphjselDxo2kR/eufLRqLXn5BQx5dBDvzpnF7L/9w/iDPGn8KJavXMPFS3H4+XqzYP4cLsRe5vwF8x/8GR/yPL16dmft51+TlZ2Dr0/HKhveUh0tWrgxbep4ln7wCalX0ujQvh0ajatx23FjRhAY4M+CsOWUFJcw/YUJzAydxoqPPrWpvmlTQjh77gJhiz8kLy/fqrmmThqHd0cvFoYtp0irZfTI5/Dz9WbfgaprWLP2S1re14KExGQ2ffsDAJ6e7c3urxDmWMy9H/rEY6wP30zsxTgyMrLYsGkL2Tl5PP7HnWIADh85QezFyxgMBpKSU7kcl0hgJz+zEzs6qnny8UdZH76J02fOkZZ2jUOHj9eqDke1Gjvg1q0ibty4SVx8Imd+jzHZ9uvwTaSlXSMrO4fN326ld6/uZj9+bE192Tm5rFsfQXxCErl5+RbncnZ2InhAX8I3RpKYlEJ6eiZffBVOWVnNIg3M7a8Qlpg907f7I5s+KTnV5PHExGS8O3oal9MzMk2eLy4uxsXCTR48PMrHjk9INrueNXX8sHUb27b/ysL3/s6ZM+fYHhXN+QuXyrf1aIujo5o5b70Of/RWRWS1u3tbUlPTal3fuXMXTOu0MBcGAw4O9sZbagFotVpycnMtHoM7JadcqXZ/hbDEfO69Q9VPV86sL6lFbry9mdz72tSxYdMWonbtYeiTg3n7rdeJ2rmHDRHfYWdXfjHz/rJV5OWbpuEWVPNSwtr6Ku+3pbm8vDqULxhMz+x6fc1jsqvbXyEsMXt5n56eQUmJjgB/X5PHA/x9uXo13aaJMzOzKS0tu2tsW+rIyc1jQ8R3LFuxmmeffhyVSkVGZhY6vZ52Hu7k5uaZ/DGXSV+T+ipYmisrK4eysjJ8fbyN26hVKjzc25gdtzy//+5/hKraXyEsMZ97X1LCrui9TJ44hps3b5Gbl8fjgx/B3b0tv0bvs2ni4pISdu/dz5SJY9HpdOTk5OHv58Pv585z8+atGtXRsaMnfr7exF6Mo6S4hAe6dKbgeqHxXfHtO6KZPHEsOr2e5ORUWra8j06d/IjauadO6qug0+nMzqXVajl85AQTJ4ymYG0hRdoihg97ymKzZmZm063rg0Tt3EOZwYBG42p2f4Uwx+KpYUPEd+hKdMyeNRONxpWkpBSWLPuY64W2597/Z0MkkyeOYdZrL+Lk5MiVtGucjblQ5brm6nBz0/D00CGETp8MlP+qa+XH/zRuu+nbH8BgYMa0CbRo4UbB9UIOHjpap/VZO9e6byIInTGZBfPnoNVq2RYVzbETp82O+dMvUcx67UVWLl/E8RNniNzyk9n9FcIcuy5dB0oarhAKcDv3XqVizeplVa60dPknxMXdfVdZa9Xn2HWhqdcnRH2QM70QCiG590IolDS9EAojTS+EwkjTC6EwKkC+oSVEM1HdB8fupLJ2RSFE8yCX90IojDS9EAojTS+EwkjTC6Ew0vRCKEyzaHrJiRfCes2i6SUnXgjrNWruvaurC3+dPolePbujLdKyfeduvL08uRyfYEy1Wf3xUjZGbGH/wSPG7d77x9ucPHWWrT9tB6zLiRdClGvU3Pupk8bh4+3FgkXL0BYXM3rkc/Tt24vL8Qm13qGqcuKFELc1Wu69s7MTA4P7Eb7xO5KSU0lPz+Tf68LvSooVQtQts01fr7n37m1xcLA3GbuoSEt2Ts0y4IUQNWO26esz954/xjBUOrObi6WuoFaraz6fEAJoxNz7igx4vzsy4B0d1Xi4tzVZT6vV4ujkaFx2cLDHw8N0ncqqy4kXQlho+jvz5rvcH4i7extCxo6sk9z7OzPg/f188PBwZ9rkEOwdHEzWS0hMJrh/H5wcHVGpVDw/YhhuGo3ZsSty4tu0bkWrVi1tqlOI5sbi7+k3RHzH0aMnmT1rJis+WMiDf+5SZ7n3676JIDMziwXz57Bw/hzSM7Puurfcxk3fo9PpWf3xUlatXIybRsPBQ8fMjvvTL1GU6ktZuXwRUyaOtblOIZqTJpeGuyRsLrv3HjB79xkhRM014dx7eS0uRH1S6fR6Ql9+o14Gr8+xhRC10yw+ey+EsF6Te00vhKgfcocbIRRKml4IhZHceyGaEcm9F0LcRS7vhVAYaXohFEaaXgiFkaYXQmGk6YVQGGl6IRRGml4IhWnU3HtrtlWpVEyaMJqBwX3BAGd+j2HdNxHcuHGTd96eRUrqFcI3fgdA717deWv2q3y86l8cOXYSgAkho/Dx8eKD5atxcXEmdPpkevX6I2c/Khovzw7EJyYZv7/fKcCPcWNG0CnAD3t7O87GxPLZF+u5davIWPOuX/cyMLgf/n4+3Lx1i82RW9FqtYSMGUmrVi25knaVf362jmvXMizugxANzeKZ/s7c+znvLuDixTjenTMLN7fbkVWTxo/i+63bCH35DZZ9uJr/eu4pHvzzA1YVYGnbcWNGEBjgz4Kw5cydvxiNmyszQ6cBEHM+lj89cL9x3Z5B3cjJzaNHUFfjYw/+uQsxMeX5+1MmjsXX15uwxR8StnQlvj7e9O/X26SeoiItu/fs5+9zFzJ3/hK8PDsw7JknTY/J2JF8E76Zv86czbbtv/LijCk8+/QTLFq8gpdefYucnDymTLqd2GNuH4RoaI2We2/NthXzfx2+ibS0a2Rl57D526307tUdFxdnYs5fJMDfDycnJwB6BHXll227COr+EHZ2djg7O+Hv50vM+VicnJz4y6D+hG+MJD4hibS0a3z2728oq5TGey09gyPHTpKXV0BGZhbHT5zG16ejyTqHjhwnITEZg8HAb/sO4eBgzy/bd5FfcJ3S0lIOHDqCv5+vVfsgREMze3lfn7n31mzbzqMtjo5q5rz1OvzRmxXx2+7ubUlMSkGr1dLl/k5cv34DZ2cndkX/xtjRw/Hz9aZVy5YUFRWRnHIF746eODg4kJiUYpxLq9WSnW2as985MIDhw4bi5eWJvb0dbhqNyTYAWVnZt+stKQEwGae4WIeLs5NV+1A5E1CI+ma26es1996Kbe3syi9E3l+2irz8ApPnCgquYzAYiL14mT89cD8lOh1nzp5Hp9NxLiaWoO4P4eLizPkLl8qz9avJ2dfdMX+b1q2Y+85sNkduZdWnX6DX6xk7ejiBnQIs1lxaWlarfRCioZlt+jtz70+dPmt8PMDfl8NHT9R7cRmZWej0etp5uBvfOKws5vxF+vQOoqzMwN59BwE4feYc/fv1xsHBgUNHyuusyNn39enI2T+azcHBwSRnPyDAD3t7e7btiDb+49ChQ/t63wchGlKj5d5bQ6fTsX1HNJMnjqVP7x54uLelc2AAQ598zLhOzPlY/Hx9CPD35cyZGKC86TsHBuDn60PM+Vig/FL+4OFj5e/me3vh3rYNkyeOwfmPy3CA7Owc1Go1PXt0w81Nw6OPBBPU7cF63wchGpLFX9ltiPgOXYmO2bNmotG4kpSUUme599bY9O0PYDAwY9oEWrRwo+B6IQcPHTU+n3rlKnq9nmvpmdy4Wf4rsNy8fDKzcmjh5mb8tRnA1+s3ETpjMovee5fi4mJ27Nxt8n5FcsoVNkduZWboVBwd1Zw8dZa1n31t8qZlfeyDEA1J8Rl57y+ez46du4neXf9XLkI0piace99wnJ2dadfOnezsnEatQ4iGpKgz/bNPP05OTh5JKalgKP+QTZcugbz59j8oKan9byCEuBcYz/SNXUhDunWriDGjhuPu3obS0lISElP4YPkqaXihKIo60wuhZJJ7L4RCSdMLoTCSey9EMyK590KIu8jlvRAKI00vhMJI0wuhMNL0QiiMNL0QCmNT0w/o34dxY0bUSSF1OZYQono2NX3PHt3qqo46HUsIUT2Ln70f8tgghg97ijZtW1N4vZADB4+yYdMWXpk5nb8M7Gdc78TJM6z4aI1VufHhGyPp37c3wcF92frjDjp0aFflWNWR/Hohaq7is/dmm97Tsz1L//cfLP3gE1KvpNGhfTs0GlfO/F4eS/XO27NISEwuT4ap2KZDe3x9OnIpLh5HtSNvzn6F4ydOszlyK1DebGq1irPnLrD/wBHy8vLJzcuvcqzqvPTXKdx/fyD//NdXaIuLGTViGH16B/GfjZHGpremjrZtWrN02SckJqXwzFOPMyFkFPEJiXz0yVoKb9zktZdn4OzixAfLVwMwcfxo/tSlM2u/+JqS4hKmvzCBUn0ZKz76tHb/F4RoQFZ94cZRrcaO8q+k3rhxk7j4RGPDV8ea3PjsnFzWrY8gPiGJ3Lz8GhUu+fVC2Mbs9+mTU66wbfuvLHzv75w5c47tUdGcv3DJ7IDW5MafO3eh1gW382gr+fVC2MByMOamLUTt2sPQJwfz9luvE7VzDxsivqtyXVty460m+fVC2MSqd+9zcvPYEPEdy1as5tmnH0elKv+3oqysDHv72ze+uDM3Xq/XA9bnxlceqzp35tdXMJdfX9M6qnNnfn1ubp7Jn9LSUpvGFqIhmW36jh09CR7wMG3atMZNo+GBLp0puF5obKTMzGy6dX2QNq1b0apVS5ty4yuPVR3JrxfCNmYv7w1lBp4eOoTQ6ZMBSE5JZeXH/zQ+/9MvUcx67UVWLl/E8RNnWPXp57XOja9qrOpIfr0QtddsMvIkv14I8xok9762alqT5NcLYb178kwv+fVC1Nw9nXsv+fVC1N49eaYXQtSc5N4LoVDS9EIojOTeC9GMSO69EOIucnkvhMJI0wuhMNL0QiiMNL0QCqOIpl8SNk++AlsDcryaN0U0fWXz3n2DRwYNMC5L5r5QEkU2/dHjp0hOuWJclsx9oSQWv3CjVqkYH/I8Awf0xcXVhcTEZNb/ZzPxCUlA+aVg1K499Hu4F/d37oRWW0z0nn1EbvnJ4uRqlYoJIaMY0L8Prq4uXL2WwfvLPiG/4HqV+fhbfvjZYva8RuNK6IzJ9AjqSrG2PGCjIumnwuBHBwHloSCvzJzOoODyzP2R//WMMXO/urx/c5aEzWPnr3vp37cXnQM7cauoiB9/2sGOnbtN1qnNfpmrx9xzdXG8RPNiselDxo2kR/eufLRqLXn5BQx5dBDvzpnF7L/9w/iDM2n8KJavXMPFS3H4+XqzYP4cLsRe5vyFi2bHHh/yPL16dmft51+TlZ2Dr09H8u8ImZw2JYSz5y4QtvhD8v6Iyh43ZgSBAf4sCFtuzJ6fGTrNmD0/ddI4vDt6sTBsOUVaLaNHPoefrzf7DlRdw5q1X9LyvhYmmfuenu2ZNnX8XXn/1ggZM4IPVqwmITGZbg/9mbfefJWU1DQuxN5OEa7pfpmrx1KtdX28xL3P7OV9Rdb7+vDNxF6MIyMjiw2btpCdk2cSPXX4yAliL17GYDCQlJzK5bhEAjv5mZ3Y0VHNk48/yvrwTZw+c460tGscOnzcZJ3K+fiWsuednZ0IHtCX8I2RJCalkJ6eyRdfhVNWVrMvEtYm77/CoSPHiU9IwmAw8Pu58xw7doohgwfZtF/m6jH3XEMdL3FvMXumb9fOHZVKZZI/B5CYmIx3R0/jcnpGpsnzxcXFuLi4mJ3Yw6N87PiE5GrXqZyPbyl7HoMBBwf7uzLxc3JNM/EtqU3ef4XMzGyT5StpV+nVs7tN+2WuHnPPNdTxEvcWs02vcqj66YofnAq1ybG3t7Mcd115XEvZ815eHcoXKmXi6/U1j6iuSd7/ndRq02Pm4OBgbLgKNd0vS/VU91xDHi9x7zB7eZ+enkFJiY4Af1+TxwP8fbl6Nd2miTMzsyktLbtrbHMsZc/fzsT3Nm6jVqnwcG9jdtzqMvery/s3p+MdV0AAgZ38Sc/MrGZt6/bLmnqqeq6+jpe4t5n9KS4uKWFX9F4mTxzDzZu3yM3L4/HBj+Du3pZfo21LnS0uKWH33v1MmTgWnU5HTk4e/n4+/H7ufLXf+rsze16n15OcnErLlvfRqZMfUTv3oNVqOXzkBBMnjKZgbSFF2iKGD3vKYrNWZO5H7dxDmcGARuOKn683sRfjKCkuuSvv35w+vYIYFNyPC7GX6NmjG0HdH2LR4hVmt7G0Xx07elZbj7nngHo5XuLeZvm2VhHfoSvRMXvWTDQaV5KSUliy7GOuFxbaPPl/NkQyeeIYZr32Ik5OjlxJu8bZGPP3ubOUPb/umwhCZ0xmwfw5aLVatkVFc+zEabNjVs7cj9zyk9m8f3N+/DmKQQP78WLoFAoLb7BufQSxF+Msbmduv8zdf8DSvQnq43iJe5tk5NWhJWHz2L1nP1G79jR2KULcpUFy75tipr4tLO0PAJbfnxSiUal0ej2hL79RL4PX59iNobntj1AmRX72Xgglk9f0QiiE5N4LoVDS9EIojOTeC9GMSO69EOIucnkvhMJI0wuhMNL0QiiMNL0QCuPQtp3ve41dRENbEjYPBwd7Y7inaJrHpCnWdC8rKS6iRUv3xj3Tv/byDF5+aVpjlmATyc+vmhyHpk0u720g+flVk+PQtDVq7r0t85rLzO8U4Me4MSPoFOCHvb0dZ2Ni+eyL9dy6VVT1QbCQDV8da/LzLY29JGweu37dy8Dgfvj7+XDz1i02R25Fq9USMmYkrVq15EraVf752TquXcswW48t+fc1PSbVHf8J40fX6jhI/n7DadTce1vmNZeZX1SkZfee/az9fB2OakfenP0Kw555ks2RW6ucy1I2vDWqys+3duyQsSNZuuwTEpNSeOapx3lxxhSKVpyXAAACNUlEQVTiExJZtHgFhTdu8trLM5gyaSwfLF9d7fy25t/X9JhUd/xrexwkf7/hNFruvS3zWsrMv5aewZFjJ8nLKyAjM4vjJ07j69PR7FzVZcPbwtqxDx05TkJiMgaDgd/2HcLBwZ5ftu8iv+A6paWlHDh0BH8/8wGituTf17Rua+5ZUJPxJH+/YTVa7r0t81rKzO8cGMDwYUPx8vLE3t4ON43GJNvdZC4L2fCpqWm13w8rx87Kup2VX1xSAkB29u3s+eJiHS7OTmbnsiX/vvI+Wlq/rKzM4j0LajKe5O83rEbLvbdlXnOZ+W1at2LuO7PZHLmVVZ9+gV6vZ+zo4QR2CqhmTMuZ87Vl7dhVHb/S0rIaz1fb/Pua1u3l2b5GdUn+ftPSaLn3tsxrLjM/IMAPe3t7tu2INr4R1KFD9T+k1mbOW6Nyfn5djm2t2uTfV2ZpfUv3LKjpcZD8/YbVaLn3FTSurvh4exmXDYbyW0GZm9dcZn52dg5qtZqePbpx6XI8vXsFEdTtQeLik6qc31LmfE1Uzs/Pzy+os7EtsSX/vjJLx8TSPQtqehwkf79hNWruPUDvXkH07hVkXC4rK2PyC69anLe6zPzklCtsjtzKzNCpODqqOXnqLGs/+9rkjcfKLGXDW6tyfv6qTz+vs7EtsTX/vjJL65u7Z0FtjoPk7zccycgTQiEk994KTa3+plaPuDfJmV4IhZA0XCEUSppeCIWRphdCYaTphVAYaXohFEaaXgiF+T/7QyQR0HCOhwAAAABJRU5ErkJggg==;" vertex="1" parent="zkfFHV4jXpPFQw0GAbJ--0">
          <mxGeometry y="26" width="160" height="221" as="geometry" />
        </mxCell>
        <mxCell id="zkfFHV4jXpPFQw0GAbJ--17" value="World Map" style="swimlane;fontStyle=0;align=center;verticalAlign=top;childLayout=stackLayout;horizontal=1;startSize=26;horizontalStack=0;resizeParent=1;resizeLast=0;collapsible=1;marginBottom=0;rounded=0;shadow=0;strokeWidth=1;" parent="WIyWlLk6GJQsqaUBKTNV-1" vertex="1">
          <mxGeometry x="620" y="110" width="160" height="151" as="geometry">
            <mxRectangle x="550" y="140" width="160" height="26" as="alternateBounds" />
          </mxGeometry>
        </mxCell>
        <mxCell id="ZNyAp8tG6LV2TRc6ALxz-3" value="" style="shape=image;verticalLabelPosition=bottom;labelBackgroundColor=default;verticalAlign=top;aspect=fixed;imageAspect=0;image=data:image/png,iVBORw0KGgoAAAANSUhEUgAAAP0AAAB9CAYAAABphWUkAAAABHNCSVQICAgIfAhkiAAAABl0RVh0U29mdHdhcmUAZ25vbWUtc2NyZWVuc2hvdO8Dvz4AAAApdEVYdENyZWF0aW9uIFRpbWUAVGh1IDEyIE9jdCAyMDIzIDA3OjM2OjI2IEFNvN7VEwAAFHpJREFUeJzt3XtYVPW+x/E3zIAg3kEUUVC02m4veEFEJMtrF2tr3hCvWw8ea9vpVO5q75Onp5KjlZqVHs3dbZtuDA0tL6VoSKUgAiqGCskdSUEuch9mgNl/EKMjl4EBBV3f1/P46Jr5rbW+89Ovs9YM67MsRo6dpkcIoRgWTn3+IE0vhEL0cnkIdcfO9q1dhxDiLigqyAXAspXrEELcZdL0QiiMNL0QCiNNL4TCSNMLoTDS9EIoTJtq+rUBq5gy+dHWLkOI+1qbanohxJ0nTS+EwqhNDVgbsIrAr4Lx8hyJt7cn+w8cYd+3h1Cr1cz3m8lYb0/QQ+z5C2zfGURxcQkAbv1cmTNrGm79XLG0tOCXC/F88tkOSkvLALCza4//0gUMcx9MuaacI0ePU1FRYdjvmtWvE3MmluB9Bw2PjR3jyZLFfjz3/CvobhkrhGi8Rr3TL17oi1anI2DN+/z400kA5syaRv9+fXkrYD2vv7EGuw7tWe6/2LBOWZmG42EneO31t3n9jbX0curJ1CcmG55fNH8OvZ178XbAet4MWEcvp564uvQ2PH/iZCReoz2M6hjlMZzoM+ek4YVohkY1fU5uHtt3BJGUnEpe/g2srKyYMulRvgzcTWbmVa7n5LLn6/2MHDEUW1sbAK5eyyIy6gz5+QVkZV8nOuYcLn2cAbCxaYf3GE8CvwomJTWda9ey+eyfgVRV3bz2JzziNE49HQ3rWFtb4e4+iIhT0S09B0IoisnDe4C4uEtGy47d7bG2tuLVlc/D731qYWEBgIODPRkZmQzo34+np06hVy8nLC0t6GBnR0pqOgDdHexRqSwNywAajYbcvDzD8o2CQi5cTGCM1yjSMzJxHzoYnVZH3AXjWoQQTdOoptfqdEbLFhbVBwjvrttE/o0Co+cKCgrp1rULr//tRfYE72fTls+oqKhg9syn6e/Wr2YD1b/rja/qraioNFo+ER7JzOlPEbTnGzw9hnM66gyVlVWNfnFCiNrM+vQ+K/s6uooKHLs7kJeXb/SrsrKSfv1csbS05PsjoYYP53r27GFY//r1XKqqqnDpc/Mc3kqtprtDN6P9REWfpXOXTvR17cMw98GEy6G9EM1mVtPrdDoOHwllwbzZeIwcRncHewb072f4wZqcnFysrKwYPmwIHTrY8cg4b9yH/NGwvkaj4VRkDPP8ZuLq0gdHRwcWLfRFrTY+8NBoyomOOceM6VPR6XRciv/V/FcqhAAaeXhfl91ffwt6PUsX+9GxYwcKCosIjzgNQFr6FfYE72e5/yKsra04c/YXtn3yJRMnjDOsv31nEP5LF/DWG6+i0Wj4PiSUqJhztfZz8uRpXv3r8xwOCUWvl5AfIZrL4sHBY9t0J9nZteeTre/z5up1/Ho5qbXLEeKeVVSQWx2XZaVWs3XzujoHvbP+IxITU+5yacY8Rg4jOzuHy4nJrVqHEPcLta6iAv9nX2rtOmrp2LEDXbt0Zub0pzhw6Igc2gvRQsw+p7/TXnl5Bc69nPjxp3COhf7U2uUIcd9o8+f0QoiWUXNOL1fZCaEw0vRCKIwaqr8WE0Lc+0pKSk2OUTd2oBDi/iCH90IojDS9EAojTS+EwkjTC6EwKntHlzfv1MbXBqzCAkhOSbtTu2gxawNWoVJZkpSc2tqlGDSmprZYt2ibtOVldOzsoMx3+jFeHsyZNe2u7GvV319inM+YFh8rhLkU2fTDhw25a/s6HX2WtPQr5o+VH5IWLcxwwc3agFUc++FHxnqPpq9rH0pKS9kTvB+NRoPvrOl06dKZK5m/8fEn27l6NQswnW1/K5XKkldWPo+2XMvGj7ahUqkazM2vz9qAVRz94Ue8PEcwoL8bpWVlHDh4hCNHjxvGNFTXc8uX4OM9GoDpf3qCmDOxbPhgKwB27e1Y+eJfGDJ4IMUlJYQe/5m93xxqsJ5317xB+Kkovt3/veGxcQ+PYZ7vDFb892uMf8QHgLT0DAAmPOrD01Mfo5t9V4oKizgZfppdu/cB1BoLYGdnx99eeYGBf3iAouIS9h88TMjRsHrrMXU/AiGMrrLznT2dd9Z9REpqOk88NpFlSxeSlJzC6jUbKCouYcWzS1k4fzbvrd8M3My23/bpdqytrHn5xeeY+sRk9gTvr7WjZf+xEFsbG97/YCt6vd4oN19brmXJn/1Y7r+YDR9sMVm076xpvLdhM8kpaQwZNJCVL/+F9IxMQ5xWQ3Vt3fYFnTt1JDklrTr95xZTn5jI9p27+WJ7IP36ufLify0n4ddELlxMqLeWk+Gn8R4zyqjpvUaPJCIyulaIp5NTDxYvmss7731ExpVMevZwNPnTkE8+PpFPP9/JPz7bwaCBD/Kf/otIT88kPuFyneObM69CGYwO7yMio0lOSUOv1/PTzxGoVJZ8d/gYNwoKqays5GREJH1dXQzjG8q2r1HT4A8McGPd+/+PVqtrVG5+QyIio0lKTkWv13M+7iJRUWeZMN6nSXXVJebMeX4+cYq8/BvEnInlcmIybm59G1wnPOI0fXr3opdTTwA62NkxZNBAToafrjXW2soKC6C0tIzi4hISk1KIPX+hwe1HRZ8lMuoMeXn5/Hwykqjoc0wc/3CdY5s7r0IZjN7pr1/PMfy5XKsFICfnZhZ9ebkOW5t2huWGsu1ruA8dhMfIYWz4YIvhELMxufkNyc7OMVq+kvkbI4YPbVJddbmS+ZvRcllZGbY2DTdLTm4eCb8mMcbLg+B9Bxk1ajg5uXkkJtVOHEpLv8L3h3/g7TdfIzY2jsMhoVy81HDY59VrWUbLGVcy6/1MornzKpTBqOlvz7cH6s2ZN5lt/ztX1z6ER0Qxd/Yz/BJ3Ca1WZzI33xQrK+PsD5VKZfhH3ti66lLzH11TnQyP5PHHJhK87yBeniPrfJevsWv3PkKOhTFl8nheWfk8IUfD2BW0t/6N19wj4OYD9X6419x5Fcpg9qf3prLtaxw4eIR/fPYlFpYWzPOdCZjOzTfF2dnJaLm/W1+uZWc3uq6qqiosLW9vJvNFnj5DD0cHHhjgxh8HPsTJiPqbHiA3L59dQXtZt2EzTz4+sVb0962cfz9tqOHi4kxW9vU6xzZ3XoUymN30prLtb6XV6tjy8RdMnPAww4YONpmbb4rHCHd8vEdj360rkyaMw33oIEKP/9zourKzcxgy+I9069qFLl06mzsFBsUlJcSev8jC+bNJS88wfLtxO2dnJ7zHjKJbt650sLPjoQcHUFBYZHS33tuN8hjOmNEedOvahYd9vPAY4c4Px+uOD2vuvAplMDsjrzHZ9rdKTklj7zffsXzZIl77n9UN5uabcuBQCD5jR7PMfyFFRcVs3xFEfEJio+s6+F0IL6xYxsb1q4mOiWXTlk/NnQaDkxGRvLBiGTsD99Q7Rl+l5/EpE/BfsuD3WjPY+OHHDW53y7bPeWzyeJ5d/meKi0r4cuduw2utS3PmVSjDPZeRtzZgFcfDThByLKy1SxHinmLIvW/tQm5nKocfgJY7HW+Utn5vACGaos01fVvM4W+LNQlhLkX+7L0QSnbPndMLIcwjufdCKJQ0vRAKI7n3QtxHJPdeCFGLHN4LoTDS9EIojDS9EAojTS+Ewiiq6dcGrJLLTIXiKarpW9LdzM4XoiVJ05vpbmbnC9GSmpV7b6VWM9f3GcaO8cS2vS0pKWns+NcekpJTTebBW1hYmpXP3lBufFMz302Nt1Kr8fOdwRgvD9q3t+W3q1m8u+4j/ObOrDM7v6H5qJnjwK+C8fIcibe3J/sPHGHftw3n6gvR0gz3sps0YRyjPIazZdsXbN8ZBMDihXNxsO/Ge+s3EbzvIIMHDWTkiKGG4Md5c2cw3H0IW7Z9zoFDR+jUoQOLFswhNOwEapUab69RHAu9Ge3kO2c68QmJnD0Xx9w5z/DgADc2fLiVo8fC8PQcwYhh7kSciqq3WCenHvz15RV8uPkTdgXtJe5CPAWFhWRlVWfGmdrmpAnjSE1LNzShqfHz/WYycrg7n/3zXxw4FMK1rGwSk1KIjjnHAwPciIiM5u3/20DEqWiT86HV6pg0YRwjhg/l6rUsdgZ+TXzCZco0mhb86xSifnXey64pufc1Ges7AvcQn5BIVtZ1du3eR05uPhMnjGswD97cfPaGcuObuk1T462trZg88RF2BO7mXGwcmZlXDc1dF1PzUSMnN4/tO4JISk4lL/9G4//GhGghZufeOzo6oFarSU3LuHUTpKSk0dvZqcE8eOdePc3KZ28oN76pme+mxldVVaFWq0lKbtwdd03NR424uEuN2p4Qd4rZufdqVd2hOxa35LTXlwffnHz2+nLjm7pNU+N7OdWO825IY+YD6p5jIe4msz+9v3YtC61WR7++LkaP9+vrwm+/XQPqz4Nvbj57XbnxTd2mqfHZ2TlUVlbVen01bs/Ob8x8CNEWmJ2RV67Vciz0RxbMm0VJSSl5+flMHD8OBwd7fgitzqCvLw/+1nx2XUUFaWkZdO7cCTc31wbvyOrs7ISrS2/iExLRlmtr5cY3ZZumaijXajn+4wkWzpuNTqcjNzefvq59OB93kZKSUkN2fsjRMKr0em7cKDA5H0K0Bc0KxtwVtBedVseLLyzHzq49qanprF33IYVFRYYx9eXBm5PPbio3vqnbNDX+X7uCWTBvFi+sWEa7dtZcybzKLxeqz8nrys5vzHwI0dokI08Ihbhnc+8lY16I5pF3eiEUQtJwhVAoaXohFEaaXgiFkaYXQmEk916I+4jk3gshapHDeyEURppeCIWRphdCYaTphVAYaXohFMZk06/6+0uM8xlzN2qpRbLlhWh5Jpv+dPRZ0tKv3I1aapFseSFaniECuz7+SxdQVFxslN1eVVXF3NnTWbLYj8cmj8fW1oZL8b8a1lkbsAq9Xo+f7zMsWTyPyZMepbKy0rANgM0fvkNhYRHptwRWvvm/r9CpUycSfk3kueVLeHjsaP7w0APMfOYp+rr2aTCNVgjRsJoIbLOup58/dwbrN24l4ddEXF1689Ybr3Ip/jIXLyUYxvjOmsZ7GzaTnJLGkEEDWfnyX0jPyDT6z6EhW7d9QedOHUlOSatOuBFCtAizPsg7FRlDfMJl9Ho9qWkZXE5Mob+bq9GYiMhokpJT0ev1nI+7SFTUWSaM92mRooUQ5jOr6a9lZRstl5eXY2tra/RYdnaO0fKVzN/o4djdnN0JIVqQWU3fmOx2KyvjMweVSmW4qUT961iZU44Qognu2Pf0zrfc1QWgv1tfrmXfPELQaDRYt7M2LKtUlnTvbm+0zu3Z8kKI5rtjTe8xwh0f79HYd+vKpAnjcB86iNDjN/Pfk1PS8PbyoJ21NWq1mmemTaWDnZ3RNmqy5bt17UKXLp3vVKlCKModa/oDh0LwGTua99evZvq0J9m+I4j4hETD81/t/gadroLNH77Dpo1r6GBnR3iE8R1rD34XQmVFJRvXr2bhvNl3qlQhFOWOpOGuDVjF8bAThBwLa+lNCyHMZMi9v2M583IqLkSbpNZVVOD/7EutXYcQ4i6Rq+yEUBi5w40QCiF3uBFCoaTphVAYyb0X4j4iufdCiFrk8F4IhZGmF0JhpOmFUBhpeiEUpk01/dqAVUyZ/GhrlyHEfa1Fm76lc+pbM3NfiPtVizZ9S+fUt2bmvhD3K0OQna2tDf5LFjBixFA0ZRoOh4TSy6knSSmphBwNqx6sVjPfbyZjvT1BD7HnL7B9ZxDFxSU8t3wJPt6jAZj+pyeIORPLhg+21rtjO7v2+C9dwDD3wZRryjly9DgVFRVGY8Y/Up2em5aeAVQf/gd+FYyX50i8vT3Zf+AI+749xIRHfXh66mN0s+9KUWERJ8NPs2v3vhadKCHuF4amXzhvNi4uvQlY8z6a8nJmTJuKx0h3klJSDYPnzJpG/359eStgPdpyLUv+7Mdy/8Vs+GBLk3PqF82fQ2/nXrwdsJ4yjYaZ05/C1aU3P59seL3FC335Je4SAWveJz//Bk5OPVi8aC7vvPcRGVcy6dnDUX7CUIgGWAK0a9eOh328CPwqmKTkVDIzr/LJ5zup0t+8AM/Kyoopkx7ly8DdZGZe5XpOLnu+3s/IEUOxtbVp0k5tbNrhPcaTwK+CSUlN59q1bD77ZyBVVaYv+MvJzWP7jiCSklPJy7+BtZUVFkBpaRnFxSUkJqUQe/5C02ZBCAVRAzh2t0elUpGSmm54QqPRkJOTZ1h27G6PtbUVr6583hBlbWFRHY/j4GBPxi23pzKlu4M9KpVlrf3l5uU1sFa1uLhLRstp6Vf4/vAPvP3ma8TGxnE4JJSLlxp3Fx0hlKj68P735tXrjd9pdbfk21tYVH/m9+66TeTfKDAaV1BQ2LS9/r4/bttfRUWlyVXrytzftXsfIcfCmDJ5PK+sfJ6Qo2HsCtrbtJqEUAhLgOvXc6mqqsKlj7PhCZVKRXeHmzn0WdnX0VVU4Njdgby8fKNflZXVzdrYnPqb++tteMxKraa7QzezX0huXj67gvaybsNmnnx8Imq1WbfpE+K+p4bqQ+vwU1H4+c7gxo0vKCvTMPXJydjYtDMM1Ol0HD4SyoJ5s9FVVJCWlkHnzp1wc3M1fLpfk1MfcjSMKr2eG7cdEdTQaDScioxhnt9MCrYVUaYp4+mpj5nVqM7OTri69CY+IRFtuZaHHhxAQWFRrW8ChBDVDF325Y7d+C9dwOo3/055efVXaKlpGUaDd3/9Lej1LF3sR8eOHSgoLCI84rTh+YPfhfDCimVsXL+a6JhYNm35tN4db98ZhP/SBbz1xqtoNBq+DwklKuZck1+AvkrP41Mm4L9kAVD99d7GDz9u8naEUIoGM/LeXfMGR44eN7ozjRDi3mTIva9vgI2NDY6ODuTk5Jq1gzuWpy+EaBZD0z/5+ERyc/NJTc8APfjOnk5JSSnxCZfN2rDk6QvRNhmavrS0jFkznsbBoRuVlZUkp6Tz3vpNaLWmb0sthLh3SO69EAohufdCKJQ0vRAKI00vhMJI0wuhMP8G1yC1jPbIvC4AAAAASUVORK5CYII=;" vertex="1" parent="zkfFHV4jXpPFQw0GAbJ--17">
          <mxGeometry y="26" width="160" height="125" as="geometry" />
        </mxCell>
        <mxCell id="zkfFHV4jXpPFQw0GAbJ--26" value="" style="endArrow=open;shadow=0;strokeWidth=1;rounded=0;endFill=1;edgeStyle=elbowEdgeStyle;elbow=vertical;" parent="WIyWlLk6GJQsqaUBKTNV-1" source="zkfFHV4jXpPFQw0GAbJ--0" target="zkfFHV4jXpPFQw0GAbJ--17" edge="1">
          <mxGeometry x="0.5" y="41" relative="1" as="geometry">
            <mxPoint x="380" y="192" as="sourcePoint" />
            <mxPoint x="540" y="192" as="targetPoint" />
            <mxPoint x="-40" y="32" as="offset" />
          </mxGeometry>
        </mxCell>
        <mxCell id="zkfFHV4jXpPFQw0GAbJ--27" value="0..1" style="resizable=0;align=left;verticalAlign=bottom;labelBackgroundColor=none;fontSize=12;" parent="zkfFHV4jXpPFQw0GAbJ--26" connectable="0" vertex="1">
          <mxGeometry x="-1" relative="1" as="geometry">
            <mxPoint y="4" as="offset" />
          </mxGeometry>
        </mxCell>
        <mxCell id="zkfFHV4jXpPFQw0GAbJ--28" value="1" style="resizable=0;align=right;verticalAlign=bottom;labelBackgroundColor=none;fontSize=12;" parent="zkfFHV4jXpPFQw0GAbJ--26" connectable="0" vertex="1">
          <mxGeometry x="1" relative="1" as="geometry">
            <mxPoint x="-7" y="4" as="offset" />
          </mxGeometry>
        </mxCell>
        <mxCell id="zkfFHV4jXpPFQw0GAbJ--29" value="start game" style="text;html=1;resizable=0;points=[];;align=center;verticalAlign=middle;labelBackgroundColor=none;rounded=0;shadow=0;strokeWidth=1;fontSize=12;" parent="zkfFHV4jXpPFQw0GAbJ--26" vertex="1" connectable="0">
          <mxGeometry x="0.5" y="49" relative="1" as="geometry">
            <mxPoint x="-38" y="40" as="offset" />
          </mxGeometry>
        </mxCell>
        <mxCell id="ZNyAp8tG6LV2TRc6ALxz-7" value="World" style="swimlane;whiteSpace=wrap;html=1;" vertex="1" parent="WIyWlLk6GJQsqaUBKTNV-1">
          <mxGeometry x="440" y="340" width="220" height="1600" as="geometry" />
        </mxCell>
        <mxCell id="ZNyAp8tG6LV2TRc6ALxz-10" value="" style="shape=image;verticalLabelPosition=bottom;labelBackgroundColor=default;verticalAlign=top;aspect=fixed;imageAspect=0;image=data:image/png,iVBORw0KGgoAAAANSUhEUgAAAP0AAAK4CAYAAAC/P/sKAAAABHNCSVQICAgIfAhkiAAAABl0RVh0U29mdHdhcmUAZ25vbWUtc2NyZWVuc2hvdO8Dvz4AAAApdEVYdENyZWF0aW9uIFRpbWUAVGh1IDEyIE9jdCAyMDIzIDA3OjQwOjE5IEFNygiDtgAAIABJREFUeJzs3XlYlPXe+PE3s7CbGy6IgKAt5oILLphZatpiluW+n3z0WNnPx3M6WZ3T8WnxpOVSpqcys3JJU1PLLNfUUlHcktwVZVFkBxGRYQZmfn8gI4Mwcw+73J/XdXUVcC/fmfw4A8y8b5f72j5kQQhR62VlptEs4H401b0QIUTVkqEXQmVk6IVQGRl6IVRGV90LEEJUDBcXF1oE+tO0SSMAEpNSiIm9jMVi+7P6WvtIP2vmW/Tv92h1L0OIKtMi0J+gFgHUr1eX+vXqEtQigBaB/ndsVyFDH9Y9lGFDnq2IQwkhyqhJk0a4u7mi1WrRarW4u7nS5NajflEVMvQdO7SriMMIIaqA9Xv6Po/2ZOCAx2nQsD5Z17PYH36I1Ws3Fmyk0zF65GAe6tEVLBD55ymWrVzDjRvZvDT5BXr26AbAoGee5OixSOZ9/FmpJ5w18y12/vobD/XoRotAf7Jv3mTd+k0YDAaGDxlEvXp1uRJ/lc+XLCMhIQkAvU7HiOHP8VBYVzw8PYiOjmXFt+u4eCkGAC8vTyZOGEOHkLbkGnLZtmM3eXl5tjfUzm0QQk10AL6+TRg/bgSzP/yEy1fiadqkMV5entaNhg15lpZBLXhn5lyMuUZe+MtIJk8cz7yPP+WzxV9T9546XIqOZe33Pyo66fChg5g95xOiY+J48vG+TJowlouXonnv/Xlk3chmyosTGDt6KB/OXVSw/bBBdGjflo8XLibjWiZ9HunJm9OnMu0f/+bGjWzGjR5Gc79mvDtzLjkGA4MHPU1gQHP27r99Tnu3QQg10QC46vW4ADdv5nDjRjZRF6OJ/PMUAHq9nv6PPcryVWuJj08gJTWNdd9vonOn9nh4uJfppAcijnApOhaLxcLvew+g1Wr4ZetOrmVeJz8/n/0HImgRGGBz/hWr1nH2XBRJSSmsXruR1LQM+vbphbu7Gz3CurLqu/VEx8SRmJjM0m9WYTbf/ollZdwGIe5WOoDYuCts2for7779OpGRJ9m6fRenz5wHoHGjhri66pn+6itwa45cXFwA8PFpyOXL8U6fNCUl1frfuUYjAKmp6bc/l2vCw92t4PyNfdDpdMTEXrY5RnR0LM39fGnk0xCtVkN0TJz1awaDgbT028erjNsgxN3K+j396rUb2b5zD/379ea1V19h+449rF6zAReXgp/1fTBnIRnXMm12zsy8XqaTGk2mOz6Xn28ueYHakl9KUDi0FP672O8i8/Lyi2xb8bdBiLuVzU/v09IzWL1mA3PmLeKpJ/qi0+lISk7BlJdH40Y+pKdn2PyTn18wWGazGY3GpVIWmJiYhNFoIqhFgM3ng1oEcPVqIikpaZjNZgL8m1u/ptfpaOTTwPqxktsghFroAPz8fAkMaM7Zc1EYc43cf18rMq9nWX8CvnXbLsaMGoopL4/Y2MvUrXsPwcGBbN+xB4Dk5FTatX2Q7Tv2YLZYuFbs0bQ8co1Gdu76jTGjhpCdfZP0jAz69u6Fj09Dft21F4PBwMGIo4waOZjMxVnkGHIYOOBxdLrbzxBMJpPD2yCEWugALGYLT/Tvw8QXxgAQG3eZjxZ8bt1o7fc/gsXChPEjqVPHm8zrWYQfOGT9+uZftjN1yiQ+mvseR45GsvDTLyt0kavXbMBkNDFt6mS8vDyJiYlj1pwFXM/KAmDZyjVMnDCGd2ZMx2AwsGX7Lg4fPW5zDEe3QQi1cJGIhhC1Q/dunWlQry5arRaA/Px80q9lcjDiKHA7olHhb7jR63R8tmhOiV+bPfcToqKiK/qUQggnVPjQm/LymPji3yr6sEKIClJr32UnhCiZDL0QKiNDL4TKyNALoTI6wOYddUKImiM7+2aFH1NXWQcWQtRM8vReCJWRoRdCZWTohVAZGXohVMY69FXRiVd6jqps1ksfX6iNPNILoTIy9EKoTKnvsnPUmg8OCmTYkGcJDgpEo3HhxKmzLFm6gps3cwBlLXrFi7TTrP/g/RmEHzzMj5u2WLfv9XAYo4Y/z5T/fR0XF4307oUootRH+qKt+elvvsO5c1G8OX0q3t5eAOTkGNi9Zx+v/+td/jVjFs18mzLgyX7W/Yu26N+eOYdmvk0JDGhe2unsKtqs/9eM9/Hy9mTyxPEA7A8/RFi3UJvtu3frzIGII+Tnm+3uK4QalTj0jlrzAAmJSUQcPkZGRiZJySkcOXqcAH8/AEUteqUcNevDDxzCv3kzmvk2BcDby4t2bVqzP/yQ9O6FKEGJT+8dteYBWrUMYuCA/jRr5otG44K3l5e1Pa+kRa+Ukmb9ufMXCeseyvqNm+nSpSOpaelEXYzGr1lT6d0LUUyJQ++oNd+gfj3+9cY01q3fxMJPl5KXl8fQwQNpGRxUuGHBv+206JVS0qzfHx7BE4/3Zf3GzXTv2pn94Yes+xoMBt6f/RHXivXtMzOzsJjN5ObmkpdnwmIuubuvNi4a+dlubVfidBdtzf9x/IT180EtAjh46ChBQYFoNBq2bNtlveB906ZNrNsVbdFfyzwN3NmiV6pos77wh4jFRRw6xvixw7m3VTAPtr6fb1Z8B8DVq1dJTUvlnjpeREVdLHHfrKzrGHJyyM+/8wIcauRi0aIt5S99UTuU+H/XUWu+fv266PV6OnZox/kLF+ncKYSQdg8SdTEGQFGLXiklzfob2dlE/nmasaOHEht3mYSEJPLz8zDmmdiyZQeP9X6Y7OxsEhIS8fb2pnlzXw4cPAJAVlYWBkMO+fll+81CbeNy6xmPDH7tVer/WXut+etZWaxbv4nJE8fh6qrn2B8nWLxkufWHfKCsRa+Ukmb9/gMRTJ0yiZWr1pGfn0d+nglzfh5btu0k52Y2fR7pgYenO9nZOZw6fZb8vIJH9huFj/R58kgPoNForf8tg1871bruvcVsJj/fZB38y9Enq3tJdxX/oLZodXq0Wh1arV6+x7+LVFv3XomqbuMnJSVX6PFqqyZNGlf3EkQVqJahlza+ENVHnrsJoTIy9EKojAy9ECojQy+EytS67r3ZnE9eno78PBN5ebd+51z4smDhkLuHOzqdHq1Oj06nt/m9vah60r1XoPjv6Qs+eedLEV6Z8lcef/wpBj4zqNLWovQcVbEWpecy5BjQ6vLRavPQavPk9/S1kKr/j2bfzObmzcr9C0/pOapiLdVxLlHzqHrohVAjeXH1LSaTia+/WsJve34lOzubVvfex18nT+G+++4H4MKFcyxf9jUXLpzDnG+mY8dOTJ32D7y8CkpCN25ksXDBfA4fjsDDw4OBzzyHXq8v01ry8vL4csnn7Nm9E1xcCO3chckvvkKde+7h5Zcm8sgjfRg+YpR1+507tvH1V1+wfOVaLBZLqfsKAfJIb7Xsmy85euQQ0/42nZnvzyEoKJh/vfka6elpAHh6evHYY/2ZNXseM96eSXRMNKtXLbe+tfiLzz8lNjaGGW/P5I1//h9RURe4dDEKF5z/IeKyb5Zy4fxZZrz9H2b830zS0tKY8+H7mM1mevfuy+7dO8nOvt342/v7Hnr0eJj09HS7+woBMvQAGI1Gftr0A6PH/oWg4Jbcf/8DTH7xFXwaNeKHjesxm834+TXnoZ69aNbMj9atH6Rnz4eJjY0lOzubnJwc9uz5lREjx+DvH8gDD7Tmf6f9A41GQ36+c+EQo9HI5p9+ZPTYv9C0qS/33Xc/f5kwiaNHD5OUlMSjj/blyuU4oi8V9AGysrI4fvwY3cIeQqPR2N1XCKjgp/dh3UPxb+5X8FbYu0hiYgJ5eXk0beLLPffcY31afv/9D3D1ajw5OTlcuRLH+u/Xcjkulvz8fLKysggKDiYvL4+01BTy8/Np1qw53t7e6PV69Ho9jRo5/waWpKREjMZcZr//HhqNBlzAcqstePVqPJ06debBB9sQHr6PB1o/SPj+vTRq1Bh//wCuZ16zu2/Tpk0r7k4Td60KHfqOHdqRmup8B6+65RV5L33R0IfFYkHj4kJycjL/fOMfjPvLBF75f3/DZDKx/vs1XLoYVbBd4Q4u2Hwfr9Pr0Wice3pf+DT87/94nfr1bEtDde65h/z8fHr36ceGDesYNXoce/fuoefDj6DVatHcekulvX2FsP4J9/BwZ+ILY+jUqT2GHANbt++imW9TLkbHWAs19vrzL01+gZ49ugEw6JknOXosknkff1bqifU6HSOHP09Y91A8PT24mpDEB3M+4VrmdRYtmM13azayLzzCuv3b/36NY3+cYNPmrUDB5ahWfbee7l0706NHVzb9tI2NP/7MO//3Oiu/XcP99wbTooVtctvVzRX9raHWuLhYv9/28/PHzc2Ny1fiaNu+HXqdDgtwMeoCoV26EX0pCrPZTN++/alTpw6enp5kZl5Doy347qhJkyZoNBquXI6jVat7gYIfDCYnJTn9wiBf32bo9XpSkpPp3LlLwSN2EVqtlp4PP8Lnny3k1MkT/Bl5nFGjx+Pu7m59lmJvXyGsQz921FACApoz8/35GHJzef7ZAYR2DuFidIx146INeWOukRf+MpLJE8cz7+NP+Wzx19S9pw6XomMVPb0fMfw5OnVsz+Ivl5OSmkaAv98d8UpHxo8dzomTZ5j5/nwyMq5ZPz/k+YEc+yOSb1d/z9RXXgTA1dUVrUZLTo7B+sis1RUMgZubGwOffY7V3y6ncePGNGnSlK1bfiY5OYk+fftzI+s6RqORQ4ci6NHjIbZv28rhQxG0bNUKAA8PTx7u9Shr16zCr7k/devW5ft132EyGZ0Obrq6uvLMs8/z3eqV1K1bl/sfaM21axmcP3fO+oKaOnXq0LlzF1au/IagoJY0bOiDu7s7Op3O4b5C6KDgD/3DPbszf8Hn1vjkkq9W0qlTe+uGhQ35mbPnEx+fAMC67zfxn3f/iYeHOzk5BsUndXXV06/vIyxY9AXHIwvKNoXHdEZqWjrLVqy54/Pp167x08/biiSwXNDr9eQYDNanzxaLBa1GY30knvziFLDArP+8y82b2bRseS9vv/Mf6txTh+bNmzNq9Hi++Py//HfhR3TtGsbLr/wvW375yXrOF196hflzP+CN6X/Dw8OTZ559ji5du5f0YkCHxo2fgMlkYvHni8jKukG9evXo9cij3Lx5E0/PgpdM9+7zGLNnvcfoMePR6/XWb0uU7CvUTQcFbXmtVntHp77o9+dK+vNKNWpU0NW/eCm2XIs/efJMiZ8/d+6CzccajQsuLuDh7mb93FffrCQtLQ1uPcXXarX8dfLLDB02kpycHMxmM97e3tbfw48eM44Ro0ZzIyuL3Fwjbm6uhIU9RE5OwWW87rmnLjPenllQ1zXkotFoGPjMczY/LyjNov9+cWstBXQ6HZNfnMKo0eMw3PqLqvhvAh7u9ShdunYnMzMTd3d3xfsWP5dQn4KHh1vDayn2sGQy3f4Dq6Q/r5SmDG+AKemFLkZTyQNlMpVcts0x5No83fbw8LzjNnt7e+Pt7Q2Au7s7ZrMZo9EIgJeXFx7uHtaPoeBZUiGNRkPduvWoW7f4ekwMG/JMiWt6d+ZsHnjgQRo2bHjH1+rUqUOdOnVK3K9wfUUHXum+JZ1LqIcOinbq/Thxa4C1Wi2NfG7/4VDSny94VHE80MnJqeTnm+/o6hcyGAy4urlaP9ZqNTRqVPY/qGazBYul4C+bvLI83y5Uxl31ej1r1v1ISkpKiV83mUxlfvWeEM7SQcGQhR88zMjhz3Pt2tfk5BgY8FQ/3Is8HVbSn09OTqVd2wfZvmMPZouFa8WeERTKNRrZ/ds+xo4aislkIi0tgxaB/vx58jTZ2Te5FB1Lj+6h7N8fQb7ZzKBnnsT71tPssrFgMplwdXPFQsFfTi4uLmg1GptnMw6PYrGg1Wqt39YUf5Zgj4uLC40bS3hSVD/rT++Xr1jLxAljeO/tN8nNLbi0dPFr2Tnqz2/+ZTtTp0zio7nvceRoJAs//bLUE3+7ej1jRg1h6pRJuLm5ciU+gROnCr5H/27tD0yaMIZFC2aTl5dHxKFjhB84XK4bWviU3M3NFRdcsGAhr5RvA0o/hgl3dzc8PT3Jz8/DYMgt15qEqA52u/cfvD+DbTt2s2v33qpcU7mU1L2XBLYyTZo0lu79Xazc3Xt3d3caN/YhNbVsP+mt6ra9EEIZ69A/9URf0tIyiIm7DBYYPnQQ2dk3OVvs119KSdteiJrJOvQ3b+Yw5PmB+Pg0ID8/n0vRcXw4dyFG491/jTe5cosQt1mHfs/v4ez5Pbw611IhXDQaXCxaXMxmNBot/kFtq3tJdxWNRouLiwYXjVa+n6+lamU5p+jVVuUPrnNcXDTWH+SJ2qnW/p8t/ENrMcvbSZ3hotHKwNdyta57X5xZht4p0rmvWaR7L4QoN/mGVwiVkaEXQmVk6IVQGRl6IVRG27BxwNvVceJZM99Cq9WU+t58pds4cz4X4FJ0+Wo9RY9XUWtTeo6qOKe4ezVv3gwPd3drENVisZBjyOXKrRSdMTeHOnV9KvaRPqx7KMOGPFuRhxRCVLAKHfqOHdo5t0M5IjZCiLKptu49FDTn3nhtKq0fuJesG9ls2rzVeq6S6HU6Rgx/jofCuuLh6UF0dCwrvl1nfbprr6VflFar4bVXX8GYa+SjTxaj1WpLvV0F6/Rk4oQxdAhpS66hIDCSl6cswGFvTfbuTyX6PNqTgQMep0HD+mRdz2J/+CFWr92oaF+hXtXWvYeCt/N++dVKvli6gjat7+OvE8cRFxdf6tt5hw8bRIf2bfl44WIyrmXS55GevDl9KtP+8W9u3MhW3NKf9D9j8XB3Z/7Hn2GxWOzeLoBxo4fR3K8Z786cS47BwOBBTxMY0Jy9+x3fRntrcnRee3x9mzB+3Ahmf/gJl6/E07RJ41r9ykpRcTRwu3u/6rv1XLwUQ3x8Aku+Wom5SAOusHu/fNVa4uMTSElNY933m+jcqT0eHiUXWR05fOQPIg4fIz09g737Izh85Dh9ez9c4raF51+xah1nz0WRlJTC6rUbSU3LoG+fXtaW/opVazkeeZL4+AQOHDxic4zCAb+3VTBz5v8Xo9Hk8Ha5u7vRI6wrq75bT3RMHImJySz9ZhVms+PvTeytqbz3p6tejwsFb4m+cSObqIvRRP55yvGdLlSvWrr3hRISba+kevlKfKk/F2jcuKCVX7zbFx0dS3M/X0Ut/ZD2bQjt3IF5H39qfQrt6HZhsaDVau64b9LSHV+zz96aynt/xsZdYcvWX3n37deJjDzJ1u27OH3mvMM1CVEt3fsiBy3+iVJ/uKcr5Z1fhYOipKUfGOhP+IHDjBj6HCdOnsFoNDm8Xc2a3brSa7H7Ji/P8Rt57K2pIu7P1Ws3sn3nHvr3681rr77C9h17WL1mg6J9hXppwLZ7X8he9z49PcPmn8Krpyjt3hfy87W9dHJAgB9JySW34RMTkzAaTQS1CLD5fFCLAK5eTbRp6Zfmp83b+GLpclw0LowaPljR7bp939y+GKZep6ORT4PSTmNlb01K7k8l0tIzWL1mA3PmLeKpJ/raXHVXiJJUS/e+UJfQjkT+eYpz56No0+YBQjuF8J/ZH5W4ba7RyM5dvzFm1BCys2+SnpFB39698PFpyK+79jps6RcyGk18+vnXvDNjOscjT3L8z5N2b5fBYOBgxFFGjRxM5uIscgw5DBzwuKLhcrQmR/enPX5+vgQGNOfsuSiMuUbuv68VmdezFP9WQahXtXXvAT5d/BWP9+vNi5P/wo2sbJavXMvZc1Glbr96zQZMRhPTpk7Gy8uTmJg4Zs1ZwPWsLMB+S7+oS9GxbPjhFyZPGsfr/3zP4e1atnINEyeM4Z0Z0zEYDGzZvovDR487uGtxuCZH57XHYrbwRP8+THxhDACxcZf5aMHnivYV6lbruvdCqJV076uIWm6nqD2ke19OarmdovZQRfdeCHFbreveCyHsk4iGECojQy+EytT67r0QdzPp3gshyk2e3guhMjL0QqiMDL0QKiNDL4TKyNALoTKV3r1/682/0atnmN1tKoM0+IUoWaV37w8d+YPYuCt2t6kMVXUeIe421tfeO2qwz5r5Ftt37qFbl07c2yoYgyGXXXv2sn7jZoBSu/e9H+kJFEQeStqmYcMGHD0WaT0OwENhXXlh/EheeuU1TKWUYIKDAhk25FmCgwLRaFw4ceosS5au4ObNnDI1+IVQC+vQK2mwjx7xPHM/+oxz56MIDGjOOzOmc+bsBU6fOaeoe1/SNk898Ri9H+1pM/RdQjty5NjxUgceICfHwO49+1j85TJc9a78fdpLDHiyH+vWbypTg18ItdCA8gb7wYijnD13AYvFQkzsZS5ERdMyOLBcCwg/cAjfpo2tUU5XVz0hIW3uaNYXl5CYRMThY2RkZJKUnMKRo8dtwp5CiJJZu/dKGuyJSck2O+fm5uLh4VGuBVzLvM6p0+cI696FuMvxhLRvi8lo4mQJbbuiWrUMYuCA/jRr5otG44K3l5dNm14IUTIdKG+wG02VE9TYFx7B4EFPs2bdD3QN7cihw8fIzzeXun2D+vX41xvTWLd+Ews/XUpeXh5DBw+kZXBQpaxPiNpEAxXXYFfSvS9pm8NH/qBuvXtoEehPh5C2hDt4ah8UFIhGo2HLtl3W5HPTpk2cXosQaqQB26Z9aOcONPJpSKuWQfTv96hTByvs3jeoX4969eoq3sZgyOXI0eM8P2gAJpOJM2ftX54pNTUNvV5Pxw7t8Pb24pFePQhp96DTaxFCjay/p1/7/Y/s23+QCeNHMn/Ou0ybOhmfho6v4lLU5l+2k5+Xz0dz32PsqKFObbN//yFCO3fg4KGjd1xeq7jYuCusW7+JyRPHsfCj92nf9kEWL1nu9FqEUCO73fuq5OXlyZLP5vP2e3M4f+FidS9HiLtOubv3VS20cweSk1O5EHUJkJ68EJWl2oe+Th1v6tery+BBT/PTz9usT+2lJy9E5aj2oX/t71Pwa+bLb7+Hs3PX79W9HCFqvWof+hnvfFDdSxBCVeT99EKojAy9ECoj3XshajDp3gshyk2e3guhMjL0QqiMDL0QKiNDL4TK3PVDP2vmWw7fAqxkGyHU4q4f+ruJkmsAFN9GiIomQ1+FlFwDoPg2QlQ062vv7XXkAfo82pOBAx6nQcP6ZF3PYn/4IVav3Vjqgd94bSpxl6+w6rsNAHTu1J5Xp73MgoVfEHH4GAAjhz+Pv38zPpy7CL1Ox4jhz/FQWFc8PD2Ijo5lxbfruHgpBih4ir7qu/V079qZHj26sumnbWz88ec7zuvl5cnECWPoENKWXEMu23bstia1HJk18y12/Pob3bt2olXLYG7m5PDT5m1s27Hbuo2jddq7nxxdA6D4dQKUnM/R9QiEKM469PY68r6+TRg/bgSzP/yEy1fiadqkscNX8Z06fZYuoR2tH3cMaUdaegYdQtpah/7B1vdZ3+A/fNggOrRvy8cLF5NxLZM+j/TkzelTmfaPf1svuDF+7HBOnDzDzPfnk5FxrcTzjhs9jOZ+zXh35lxyDAYGD3qawIDm7N2v7A4ZPuRZPpy3iEvRsbRr05pX//4ycZfjrQkve+usU8db8f2ktM2v5H6xdz0CIYqzPr2315F31etxAW7ezOHGjWyiLkYT+ecpuwc+dfocQS0CcXNzA6BDSFt+2bKTkPZtcHFxwd3djRaBAZw6fdba3V+xah1nz0WRlJTC6rUbSU3LoG+fXtZjpqals2zFGi5eiiG9hKF3d3ejR1hXVn23nuiYOBITk1n6zSrMZuVxoAMRR7h4KQaLxcKfJ09z+PAf9Old8OjraJ1luZ/sUXq/VMb1CETtZX2kt9eRj427wpatv/Lu268TGXmSrdt3cfqM/XhldEwcBoOB++4N5vr1G7i7u7Fz1+8MHTyQwIDm1Ktbl5ycHGLjrtCsWVN0Oh0xsZdtjxEdS3M/X+vHJ0/ab+E38mmIVqux6d8bDAbS0tMV3yHJyak2H1+Jv0qnju0BaNzYx+46f9y0xen7yR5H5ytUGdcjELWXBm535M+dj+LNt2by6vT/Y+eu32w2XL12I3//x79JSEzmtVdfYeTw5+0e2GKxcPbcBR64/146dGhL5InTmEwmTp46S0j7NjzwQCtOnzmPxWJBpy35bf2FF9wo5LC7X7h9sbBmXp7yjLdeb7sWrVZrvQCIknU6ez/ZU2H3ixBFaEBZRx4gLT2D1Ws2MGfeIp56oi86nf0Gx6nT57j/vpa0aX0/x/74E4DjkSdp8+D93NsqmJOnzwKQmJiE0WgiqEWAzf5BLQK4ejVR8Y1JSUnDbDYT4N/c+jm9TkcjH+VVX78ij6AALYNbkJic7NQ6ld5Pjtr8FXW/CFGUBhx35P38fOkR1oUGDerj7eXF/fe1IvN6lsOfip86fZbAAH+CWgQQGVnwve3xyJO0ahlEYIA/p24Nfa7RyM5dvzFm1BDuu7clPj4NGD50ED4+Dfl1117FN8ZgMHAw4iijRg4mMMCfxo19GDd2uMO/nIoK7RRCzx7daNigPo/16UVI+zbs2r1X0TqdvZ8ctfkr6n4Roigd2HbkXV31HPvjBIuXLLf+sMhitvBE/z5MfGEMBdtf5qMFnzs8+OUrV8nLyyMhMZkb2QU/aU7PuEZyShp1vL1JSEiybrt6zQZMRhPTpk7Gy8uTmJg4Zs1ZwPWsLKdu0LKVa5g4YQzvzJiOwWBgy/ZdHD56XPH+P/28nZ4PdWPSxLFkZd1g2Yo1nD0XpWid3t5eTt1Pm3/ZztQpk/ho7nscORrJwk+/vGObirpfhChUY7r3NcGsmW+xe88+tu/cU91LEcJpVdK9v9va9I7WC4Bc/k7UcuUa+rutTX+3rVeIyiCvvRdCZaq9e1+TvPnWzOpeghCVTh7phVAZGXohVEa690LUYNK9F0KUmzy9F0JlZOiFUBkZeiFURoZeCJVR5dBLB1+omXXopbfunJKa9ULcDaxDr7reejnfUFxSs1468JsdAAAgAElEQVSIu4H1tffFe+vOdu6h4K2rI4c/T1j3UDw9PbiakMQHcz7hWuZ1u/32D96fQfjBw/y4aYv1WL0eDmPU8OeZ8r+v4+KiYfTIwTzUoytYIPLPUyxbucaagFbaxC/Ky8uLN16bSusH7iXrRjabNm9l+449t+8Yna7Uc5bUrNfr9U51/u0d39H5C2+z9O5FWZT4hpuydO4BRgx/jk4d27P4y+WkpKYR4O/HtczrgP1++/7wQ/QI62Iz9N27deZAxBHy882MGvEcLYNa8M7MuRhzjbzwl5FMnjieeR9/at1eSRO/qKee6MuXX63ki6UraNP6Pv46cRxxcfGcPXcBgGFDni31nCU16wcO6O9U59/e8ZV8HaR3L8qmxB/klaXf7uqqp1/fR1ixai3HI08SH5/AgYNHAMf99vADh/Bv3oxmvk0B8Pbyol2b1uwPP2Tdd/mqtcTHJ5CSmsa67zfRuVN7PDzcred31MQv7vCRP4g4fIz09Az27o/g8JHj9O39sM16HZ2zqLJ0/ks7vtLzS+9elEWJj/Rl6dw3alTQaL94KfaOrznqt6empXPu/EXCuoeyfuNmunTpSGpaOlEXo/Fr1hRXVz3TX33F+n14YQLax6chly/HA46b+MUlJCbZfHz5Srz1+/TGjRoqOqfNbXGm8+/bxO7xzfn5is4vvXtRFqW+n3712o1s37mH/v1689qrr7B9xx5Wr9lQ6oE0LqV3ppT02/eHR/DE431Zv3Ez3bt2Zn/4oVvbFDwZ+WDOQjKuZdrsn3nrWwcoQ/v9jvW6FBkwZecsqmjn32gy3dH59/Bwt3b+HR3f91Z+vMJvsxA4+D29M5375ORU8vPNdzTaQVm/PeLQMZo09uHeVsE82Pp+9h8oGPqk5BRMeXk0buRDenqGzT/5+covYlGc361vJQoFBPiRlJyi+JwlNeuVdv4dHb+ybrMQUMrQl6Vzn2s0svu3fYwdNZS2bR7At2kTwrqF4uXlqajffiM7m8g/TzN29FBi4y5b89gmk4mt23YxZtRQQjt3oJFPQ1q1DCr3i2u6hHYkrFsoDerX4+Ge3QntFMKvu39XfM6SmvVKO/+Ojl9Zt1kIKOXpfVk799+uXs+YUUOYOmUSbm6uXIlP4MSpgu+1lfTb9x+IYOqUSaxctc7muGu//xEsFiaMH0mdOt5kXs8i/NYzgbL6dPFXPN6vNy9O/gs3srJZvnKtTd/e0TlLatY70/l3dPzKuM1CgHTvhag1KqV7f7d07u+WdQpRHZwa+rulG3+3rFOI6qDKd9kJoWYy9EKojAy9ECojQy+Eykj3XogaTLr3Qohyk6f3QqiMDL0QKiNDL4TKyNALoTIy9EKojAy9ECojQy+EyljfZWevcz9r5lvs+PU3unftRKuWwdzMyeGnzdvYtmO39UDBQYEMG/IswUGBaDQunDh1liVLV3DzZg5vvDbVqSZ8eZrud1N7X4jqoANlnfvhQ57lw3mLuBQdS7s2rXn17y8TdzmeM2cLKrk5OQZ279nH4i+X4ap35e/TXmLAk/1Yt34Tp06fdaoJD2Vvut9N7X0hqoMGlHXuD0Qc4eKlGCwWC3+ePM3hw3/Qp3dP69cTEpOIOHyMjIxMkpJTOHL0OAH+foBzTfhCZWm6323tfSGqgw6Ude6Tk1NtPr4Sf5VOHdtbP27VMoiBA/rTrJkvGo0L3l5eRMfEAc414QuVpel+t7X3hagO1u/pHXXu9XrbyI5Wq7UOQIP69fjXG9NYt34TCz9dSl5eHkMHD6RlcBDgXBO+UFma7ndde1+IamDz03t7nXs/P1+bHVsGtyAxueDROCgoEI1Gw5Ztu6yZ7Ka3LthQSGkTvjzutva+ENVBA8o696GdQujZoxsNG9TnsT69CGnfhl27C5r1qalp6PV6OnZoh7e3F4/06kFIuwdtTqS0CV8ed1t7X4jqoANlnfufft5Oz4e6MWniWLKybrBsxRprJz427grr1m9i8sRxuLrqOfbHCRYvWU7fPr2s+zvThC+Pu6m9L0R1UNS9nzXzLXbv2cf2nXuqYElCiLKo+O596T8jq1LStBeifJzq3tcE0rQXonzktfdCqIyiR/o335pZ2esQQlQReaQXQmVk6IVQGeneC1GDSfdeCFFu8vReCJWRoRdCZWTohVAZGXohVEZVQz9r5lvydliheqoa+soW1j2UYUOere5lCGGXDH0F6tihXXUvQQiHVNW9B/Dy9OLVaS/Trm1rbmRns2v3Xjb8cLtPr9Pp7PbtS7ufXpr8Aj17dANg0DNPcvRYJPM+/qxc/3OEqAyq6t4DDHiyL8tWruXrZasICgpk2v+bzLnzUZw6XXDcYUOeLbVvb+9++mzx19S9pw6XomMLKjtC1FCq6d4XOnrsT/buO0h6xjWOHovkQtQlgoNbADjs2yu5n4So6VTTvS+67qJycnLwcC+4YEXjRg3t9u2V3E9C1HSq6d4XyjUaS/2akr69o/tJiJpONd17JZT27Uu7n8xmMxpNDYkJClEK1XTvlXDUt3d0PyUnp9Ku7YM0qF+PevXqlvv2CFEZVNW9V8Je397R/bT5l+1MnTKJj+a+x5GjkSz89MsKuU1CVCTp3gtRS0j3XghRIuneC6Ey8tp7IVRGuvdCqIw80guhMjL0QqiMdO+FqMGkey+EKDd5ei+EysjQC6EyMvRCqIwMvRAqo6qhl+69ECob+ppKevmiKsnQ1wDSyxdVSbr3xbr39m5H4X2x6rv1dO/amR49urLpp21s/PFnh/uVtq6RIwaX2Mt31N8vbR1COCLd+2Lde3u3o9D4scM5cfIMM9+fT0bGNUX7lbau0nr59vr79tYhhCM6KKF7f+POEEVh9x6w6d4XDn1CYhIJibeTV8W798OGDMLNzY3c3Fw6hLTl5y07GTigPy4uLri5udIiMIClX39r3b+wew/YdO/tDX1h937Boi84HnkSgPj4BJttCrv3UJDrKuzeFw69vdtRKDUtnWUr1th8zt5+StZVVGF/f+bs+dbt1n2/if+8+088PNzJyTGUug4hHJHufZHuvaPbUejkyTube/b2U7Kuohz19y9fji91HUI4It37IhzdjtLW5mg/JesqSkl/v6R1CKGEdO+LUHI7yrKfo3UV7+Ur7e8LURbSvS9Cye0oy36O1lW8l++ovy9EeUj3vgglt6Os+9lbV0m9fHv9fSHKQ7r3QtQS0r0XQpRIuvdCqIy89l4IlZHuvRAqI4/0QqiMDL0QKiPdeyFqMOneCyHKTZ7eC6EyMvRCqIwMvRAqI0MvhMqoYuid7d1LH1/UZqoYeiHEbTL0QqiMw9fe63U6Rgx/jofCuuLh6UF0dCwrvl1nLeOWp1E/a+Zb7Pz1Nx7q0Y0Wgf5k37zJuvWbMBgMDB8yiHr16nIl/iqfL1lmjWw4Wo+XlycTJ4yhQ0hbcg25bNux26YABI7b9kqV1p531Ky3d42BRQtm892ajewLj7Ce5+1/v8axP06wafPWMt9vjtYk1MPhI/3wYYPo0L4tHy9czPQ33+HcuSjenD4Vb28v6zajRzzPD5u2MPHFvzFn/iKeefpxHmx9v6IFDB86iJWr1vE/k6exZeuvTJowlqeeeIz33p/HX19+lbS0DMaOHqp4PeNGD6O5XzPenTmXt2fOoZlvUwIDmtucs7BR//q/3uVfM2bRzLcpA57sp2i9xY0fOxyjycTM9+fz2+/7Adtm/b9mvI+XtyeTJ44Hbl9j4IulK5gy9XU+XvgFp8+et3OGirnf7K1JqIvdoS/sr69YtY6z56JISkph9dqNpKZl2KSgChv1FovFplGvxIGII1yKjsVisfD73gNotRp+2bqTa5nXyc/PZ/+BCFoEBihaj7u7Gz3CurLqu/VEx8SRmJjM0m9WYTbbxoESEpOIOHyMjIxMkpJTSmzbK1XYnr94KYb0jGvWNS5ftZb4+ARSUtNY9/0mOndqj4eH+53XGLgYTeSfp5w+b1nut9LWJNTF7tP7xo0Leu0xsZdtPh8dHUvzInXcsjTqC6Wk3O7pF+apU1PTixzLhIe7m6L1NPJpiFarsenUGwwG0tLTbbZX0rZXqnh73lGzXsk1BpRw6n5T2NEX6mB36HXakr/sUqzjXp7+ekn75ueby7aewn9bbB/Z8/JuZ6OVtu2VKr5+Jc16R9cYKE6v1zs8L5R+vynt6At1sPv0PjExCaPRdEevPahFAFevJlbqwsqynpSUNMxmMwH+t7+H1+t0NPJpcHvbMrbtlVLarC/tGgMGgwFXN1frdlqthkaNGlbJmoQ62H2kzzUa2bnrN8aMGkJ29k3SMzLo27sXPj4N+XXX3qpao+L1GAwGDkYcZdTIwWQuziLHkMPAAY/bXLSjaKP+/IWLdO4UQki7B4m6GFMhayzarDfl5REbe5m6de8hODiQ7Tv24OfnS2BAc86ei8KYa7zjGgOXomPp0T2U/fsjyDebGfTMk3h7eTk4a/nWJNTF4a/sVq/ZgMloYtrUyXh5eRITE8esOQu4npVVFetzej3LVq5h4oQxvDNjOgaDgS3bd3H46HHr/mVt2zvDXrPe0TUGvlv7A5MmjGHRgtnk5eURcegY4QcOV+qahLoo6t4LIWo+xd37yuzI3+2N+rt9/UKURB7phagllD7Sy2vvhVAZGXohVEaGXgiVkaEXQmWkey9EDeZMnj4pKYUG9ere8bnipHsvRC0RE3sZby9PfH0LXlaekJB0x5vT4C68VLUQomQWi4XYuCvE33pfTF5eHhbLnb+Rl+/phVAZGXohVEaGXgiVkaEXQmVk6IVQGRl6IVTG+is7abgLoQ42v6cfP3Y4J06eYeb788nIuAbY9tKNuUZe+MtIJk8cz7yPP7U23Gd/+AmXr8TTtEnjMr26b/jQQcye8wnRMXE8+XhfJk0Yy8VL0bz3/jyybmQz5cUJjB09lA/nLnK4JiGEfTZP76XhLkTtZ/NILw13IWo/m6GXhrsQtZ/d194X7aUXXiCyJIUN98g/T/Lm9P9l3fpN5OXlVXrD3d6ahBAlszv00nAXovZx+C47abgLUbtIDVeIWuSeOt7WKzrl5eVxPeuG9WtSwxVCpWTohVAZGXohVEaGXgiVkaEXQmVk6IVQGeneC1GDVUaeXrr3QqiMPL0XQmVk6IVQGRl6IVRGhl4IlVE09LNmvkX/fo9W2iJmzXyLx/r0qrTjO6Oyb6sQ1U0e6csorHsow4Y8W93LEMJpMvRl1LFDu+peghBlYo1o6HU6Rg5/nrDuoXh6enA1IYkP5nzCtVvdOS9PL16d9jLt2rbmRnY2u3bvZcMPP98+kIMWvaPjF9JqNbz26isYc4189MniEi+1q+R8s2a+xfade+jWpRP3tgrGYMhl1569rN+42XoMLy9PJk4YQ4eQtuQactm2Y7e1+mPPS5NfoGePbgAMeuZJjh6LZN7Hnynu/Jd0fQEl6xWiIliHfsTw5+jUsT2Lv1xOSmoaAf5+NgM54Mm+LFu5lq+XrSIoKJBp/28y585Hcer0OcBxi97R8QtN+p+xeLi7M//jz0odeCXnAxg94nnmfvQZ585HERjQnHdmTOfM2QucPlOw5nGjh9HcrxnvzpxLjsHA4EFPExjQnL377d9pny3+mrr31OFSdGxBxcdJJV1fQMl6hagIGgBXVz39+j7CilVrOR55kvj4BA4cPGKz4dFjf7J330HSM65x9FgkF6IuERzcAnDcoldyfIvFwrAhz3Jvq2DmzP8vRuOdhdxCStv3ByOOcvbcBSwWCzGxl7kQFU3L4EAA3N3d6BHWlVXfrSc6Jo7ExGSWfrMKs7nyQ0LFry+gZL1CVBQdQKNGPuh0Oi5eii11wyvxV20+zsnJwcO9YMActejNZrPD44e0b0No5w7M+/hTh5enUtq+T0xKttkvNzcXDw8PABr5NESr1RAdE2f9usFgIC09ncpW/PoCheytV4iKogPQ3BoYewovQlESRy36Zr5NHB4/MNCf8AOHGTH0OU6cPGP3kV5p+76knn6RgxT8u9i3EHl5+Q7X6gylnX97nxeiImkAkpNTyc83E9QioEwHKdqiT0/PsPknPz9f0fF/2ryNL5Yux0Xjwqjhg8t1PiVSUtIwm80E+De3fk6v09HIp4Gi/c1mMxqN7V+WldH5F6KiaaDgUXz3b/sYO2oobds8gG/TJoR1C1X8ltuiLfrQzh1o5NOQVi2DrC9yUXp8o9HEp59/Td8+D9Ohfdsyn08Jg8HAwYijjBo5mMAAfxo39mHc2OHWkqgjycmptGv7IA3q16NevbrA7c6/m6srOp2O554dUO7OvxAVzfon/NvV6xkzaghTp0zCzc2VK/EJnDhV8veeJXHUold6/EvRsWz44RcmTxrH6/98j+tZWWU6nxLLVq5h4oQxvDNjOgaDgS3bd3H46HFF+27+ZTtTp0zio7nvceRoJAs//bLSOv9CVCTp3gtRiyjp3it7LlsN9Dodny2aU+LXZs/9hKio6Fp9fiEqizzSC1GLyBVuhBB3kKEXQmVk6IVQGRl6IVRGuvdC1GDSvRdClJs8vRdCZWTohVAZGXohVEaGXgiVKdfQSyNeiLuP6h/ppV8v1Eb1Qy/9eqE21rfWBgcFMmzIswQHBaLRuHDi1FmWLF3BzZs5gONG/AfvzyD84GF+3LTF+rleD4cxavjzTPnf1wkM8Ld7fCXdd3vtfEcd/JJIv16okXXoc3IM7N6zj8VfLsNV78rfp73EgCf7sW79JsBxI35/+CF6hHWxGfru3TpzIOII+flmh8cHx913e+18JR384qRfL9TI+vQ+ITGJiMPHyMjIJCk5hSNHjxPg7wcoa8SHHziEf/NmNPNtCoC3lxft2rRmf/ghh8cvZK/7bq+dr7SDX9GkXy/uRtZH+lYtgxg4oD/Nmvmi0bjg7eVlbcIracSnpqVz7vxFwrqHsn7jZrp06UhqWjpRF6MdHr+Q3U69nTa/0g5+RZN+vbgb6QAa1K/Hv96Yxrr1m1j46VLy8vIYOnggLYODCrZS2IjfHx7BE4/3Zf3GzXTv2tn6KO/w+LfY677ba/Mr7eCXh/TrRW2hAQgKCkSj0bBl2y7rD+eaNr19gQqljfiIQ8do0tiHe1sF82Dr+9l/q07r6PhK2Gvnl6eDL/16oTYagNTUNPR6PR07tMPb24tHevUgpN2D1o2UNuJvZGcT+edpxo4eSmzcZRISklByfCXstfPL08GXfr1QGx1AbNwV1q3fxOSJ43B11XPsjxMsXrKcvn16WTdU2ojffyCCqVMmsXLVOuvnlBxfCXvt/LJ28KVfL9RGarhC1CJ3dfe+oki/XghbtX7oTXl5THzxb9W9DCFqDNW/9l4ItZGhF0JlZOiFUBkZeiFURrr3QtRg0r0XQpSbPL0XQmVk6IVQGRl6IVRGhl4IlbEOvYuLCy+MH8mSz+azdPHHPHD/vRV2EunjO2fWzLd4zMl3IAqhlPW19yHt2vDwQ9149z/zyM01kpqWzltv/o3f9x7k930HqnONQEGf3r+5X5kClkKI26xD7+fnS9zleGJiL1u/eOjIH8TGXamWhRXXsUM7UlPTHW8ohLBLBwV56759Hkav17Nq+ecciDjCwv9+Se9HegIQG1fwF4GSprujPr49fR7tycABj9OgYX2yrmexP/wQq9duLLVPr9fpGDH8OR4K64qHpwfR0bGs+HYdFy/FWNdbvE3fJbQDR49F2qz5obCuvDB+JC+98hqmUtY6a+Zb7Pz1Nx7q0Y0Wgf5k37zJuvWbMBgMDB8yiHr16nIl/iqfL1lmLQY5upZAae38orRaDa+9+grGXCMffbIYrVZrt++v5JhC3XQAy79dy7XM64S0f5D33p9vdwdHTXdHffzS+Po2Yfy4Ecz+8BMuX4mnaZPG1lcKltanHz5sEB3at+XjhYvJuJZJn0d68ub0qUz7x7+tQ1C8TZ+bm0vvR3vaDH2X0I4cOXa81IG3nm/oIGbP+YTomDiefLwvkyaM5eKlaN57fx5ZN7KZ8uIExo4eyodzFwGOryVQ0vqKm/Q/Y/Fwd2f+x59hsVgU9f0dHVOom9M/vbfXdFfSxy+Nq16PC3DzZg43bmQTdTGayD9Plbp9Yet+xap1nD0XRVJSCqvXbiQ1LcMmw1W8TR9+4BC+TRtbm/uurnpCQtpYG/r2HIg4wqXoWCwWC7/vPYBWq+GXrTu5lnmd/Px89h+IoEXg7XCnktZ/ae38wgG/t1Uwc+b/F6PRpLjvX9oxhYAyRDTstukV9PFLExt3hS1bf+Xdt18nMvIkW7fv4vSZ86Vu37hxQQe/6M8gAKKjY2nu52v9uHib/lrmdU6dPkdY9y7EXY4npH1bTEYTJ0+V3LAvKiUl1frfuUYjgM3PGXJzTXi4u1k/VtL6L62dH9K+DaGdOzDv40+tz1qU9v1LO6YQUIaht9t0V9jHL83qtRvZvnMP/fv15rVXX2H7jj2sXrOhxG112pKX7lKsj1/SeveFRzB40NOsWfcDXUM7cujwMfLzzQ7XV9KxStuvvK3/wEB/wg8cZsTQ5zhx8gxGo0lx31+6+8KeCn1xjtI+vj1p6RmsXrOBOfMW8dQTfa2Rv+J9+sTEJIxG0x0d/KAWAVy9mmj3HIeP/EHdevfQItCfDiFtCVfw1N5Z5W39/7R5G18sXY6LxoVRwwcD5ev7C1GoQodeaR+/JH5+vvQI60KDBvXx9vLi/vtakXk9yzowxfv0uUYjO3f9xphRQ7jv3pb4+DRg+NBB+Pg05Nddex2sM5cjR4/z/KABmEwmzpwt/duIsqqI1r/RaOLTz7+mb5+H6dC+bbn6/kIUqvAwptI+fnEWs4Un+vdh4gtjgIJfE3604HPr10vq069eswGT0cS0qZPx8vIkJiaOWXMWcD0ry+H59u8/xPR/vMLW7buwWCq+Al5Rrf9L0bFs+OEXJk8ax+v/fK/MfX8hCqm2e+/l5cmSz+bz9ntzOH/hYnUvR4gKUeO69zWpQR/auQPJyalciLpU49YmRGWq0qGvCQ36OnW8qV+vLoMHPc1PP2+zPrWvCWsToirU+otdFPfa36fg18yX334PZ+eu36t7OUJUOdUN/Yx3PqjuJQhRrSSiIYTKyNALoTLSvReiBpPuvRCi3OTpvRAqI0MvhMrI0AuhMjL0QqiMDL0olfT3aycZeieFdQ9l2JBnq3sZQpSZDL2TOnZoV91LEKJcrK+91+t0jBz+PGHdQ/H09OBqQhIfzPmEa5nXFfXlHfXwS2vaAyxaMJvv1mxkX3iEdfu3//0ax/44wabNW63ncLY7r9Pp7DbiSyP9/crr79v7cyCqhnXoRwx/jk4d27P4y+WkpKYR4O/HtVuxRSV9eXs9fHtNe2c4251X0ogvTvr7ldffr6g/B6J8NFDQfu/X9xFWrFrL8ciTxMcnWDvwSvvy9nr4zjbtS+NMd15pI7446e9XXn+/ov4ciPLRATRqVNCQv3gp9o4NlPbl7fXwnW3al8aZ7rzSRnxx0t+3VZH9/Yr6cyDKRwegKdaKt9mgHH35opxp2kPBI2hxznTnlTbiy7tW6e8719939s+BqHgaKMhL5+eb72jIQ/n68sWV1rQ3GAy4urlat9NqNTRq1NDpG1NUeRvx0t8vUBn9/dLuW1E1NFDwFHH3b/sYO2oobds8gG/TJoR1C8XLy7NcfflCjpr2l6Jj6dE9FDdXV3Q6Hc89OwBvL69y3bCyNuKlv3+niurvO7pvRdWw/hX77er1jBk1hKlTJuHm5sqV+ARO3Pr+sjx9eXDctP9u7Q9MmjCGRQtmk5eXR8ShY4QfOFzuG1eWRrz090tWEf19R/etqBqq7d7XFNLfFxWpxnXva4qa1LiX/r6oaqoc+prQuJf+vqguqhz6mkD6+6K6yNBXE+nvi+oi77ITQmVk6IVQGeneC1GDSfdeCFFu8vReCJWRoRdCZWTohVAZGXohVMY69C4uLrwwfiRLPpvP0sUf88D991bYSWbNfMvh2y6r4hhCiCKvyAtp14aHH+rGu/+ZR26ukdS0dN5682/8vvcgv+87UJ1rrNHCuofi39zPJpQpRE1mHXo/P1/iLsfbtN4OHfmD2Lgr1bKwu0XHDu1s+nRC1HQ6gHGjh9G3z8Po9XpWLf+cAxFHWPjfL+n9SE+gIHYAyvr2Xl6eTJwwhg4hbck15LJtx27FZRR77X0AL08vXp32Mu3atuZGdja7du9lww+3++xl7bs72q+0dY0cMbjEDr6j3r6SzrwQlUUHsPzbtVzLvE5I+wd57/35dnew17eHgr9Amvs1492Zc8kxGBg86GkCA5qzd7/jxdhr7wMMeLIvy1au5etlqwgKCmTa/5vMufNRnDpdcO6y9t0d7Vfaukrr4JelCS9EVXH6XXaFfXvApm9/+sw53N3d6BHWlfkLPrMmlpd+s4ouoR0dHrewvb9g0RccjzwJQHx8gs02R4/9yd59BwFIz7jGhahLBAe3sA59QmISCYlJ1u3t9d2LsrefknUVVdiEnzl7vnW7dd9v4j/v/hMPD3dycgylrkOIquD00Nvr2zfyaYhWq7FpqhsMBtLSHX/Pa6+9X+hK/FWbj3NycvBwv31xhbL23e3tp2RdRZW1CS9EVXF66O327Qtb78UCj3l5jrPI9tr7hQov7FCSsvbdHe2nZF1FlacJL0RVqNAX56SkpGE2mwnwb279nF6no5FPA4f72mvvK1HWvruj/Rytq3gHv7xNeCEqW4UOvcFg4GDEUUaNHExggD+NG/swbuxwRRczsNfeV6KsfXdH+zlaV/EOflmb8EJUlQrPZS1buYaJE8bwzozpGAwGtmzfxeGjxxXta6+970hZ++5K9rO3rpI6+GVpwgtRVaR7L0QtUuO699J0F6L6VenQS9NdiOonb60VQmVk6IVQGRl6IVRGhl4IlZHuvRA1mHTvhRDlJk/vhVAZGXohVEaGXgiVkaEXQmUqZNOyhBkAACAASURBVOirq0kvLXwhnFfjHunDuocybMiz1b0MIWqtGjf0HTu0c24HeWOwEE6xvsuuz6M9GTjgcRo0rE/W9Sz2hx9i9dqNBRs56LjfcVAH2zvbkbfHy8uLN16bSusH7iXrRjabNm9l+449ALz/3r84eizSpsv/UFhXXhg/kpdeeQ1TKT1+JX1/JY39nb/+xkM9utEi0J/smzdZt34TBoOB4UMGUa9eXa7EX+XzJctISEgq0/0sRFloGzYOeNvXtwn/+PsUFixawuo1Gzh56iyZ16+TlJQCwIhhz3Ffq2DmLfiMHTv30LVrJzp1COHAwcMAPNanFzGxcVy8FKNo+9EjB9O5YwhLv/mWn37eTmJSMlEXozly9Dj3tgrmQMQR3v3PPA4cPGJ38Y/16UVI+zZs2LiZVWs2kpycwoTxozhz9gKpaem4ubnxcM/u7Ni5x7rP4OeeJu7KFQ4d/sPucbt37cRXy1bz9bLVnDp9lhcnjef8hUukpKYB4O7uTkbGNdZ8/wO//X6A/v164+3lZe3/P9anF11CO/Lp4q9ZtrIgdT1+7Ah8Gjbgw7kLWb9xM23btKZzp/bsDz+k6H4TwhE3N1c0moIn8Gaz2SYma8zNoU5dn4Kn9656PS7AzZs53LiRTdTFaCL/PAXc7rgvX7WW+PgEUlLTWPf9Jjp3ao+Hh/sdJ3W0fWFHfsWqtRyPPEl8fILD4bbn8JE/iDh8jPT0DPbuj+DwkeP07f0wAOEHDuHbtLFNwz4kpI2i8xX2/S0Wi03fv1BCYhIRh4+RkZFJUnJKiY39AxFHuBQdi8Vi4fe9B9BqNfyydSfXMq+Tn5/P/gMRtAgMKNP9LERZ6aCgE7dl66+8+/brREaeZOv2XZw+cx5Q3nEv5Gh7s9nsVEfekaIXqQC4fCXe+nOBa5nXOXX6HGHduxB3OZ6Q9m0xGU2cVNDds9f3B2WN/ZSU1Nv73/obt+h173JzTXi4uwHO389ClJX1e/rVazeyfece+vfrzWuvvsL2HXtYvWaD4o57IUfbN/N1nKV2yh1dehebH+7tC49g8KCnWbPuB7qGduTQ4WPk55sdHtZel76sjX2g1HM7ez8LUVY2P71PS89g9ZoNzJm3iKee6ItOp3O64+5oe2c78o74+Ta1+TggwI+k5BTrx4eP/EHdevfQItCfDiFtCS/HtxKFytrYt0d6+aKqaKDgMtU9wrrQoEF9vL28uP++VmRezyIvL8/pjruj7Z3tyDvSJbQjYd1CaVC/Hg/37E5opxB+3f279esGQy5Hjh7n+UEDMJlMnDl7vpx3Wdkb+/ZIL19UFR2AxWzhif59mPjCGKDg0tQfLfjcupGzHXdH2zvbkbfn08Vf8Xi/3rw4+S/cyMpm+cq1nD0XZbPN/v2HmP6PV9i6fRcWS/l/sV/Wxr4j0ssXVUEV3XsvL0+WfDaft9+bw/kLF6t7OUJUmhrXvXdWRXXyQzt3IDk5lQtRlyr0uELcjWr00Je3k1+njjf169Vl8KCn+ennbdan9tLfF2pWo4e+vF77+xT8mvny2+/h7Nz1u+MdhFCBWj30M975oLqXIESNU+PeZSeEqFwy9EKojHTvhajBpHsvhCg3eXovhMrI0AuhMjL0QqiMDL0QKnPXDb207oUonyob+tres6/tt0/UHlU29E737O8ytf32idrD+tp7Ja13e132jh3aMfWVSbzxz/esuapXp72MxWImx5DrVM++tC7+tVutOC9PL16d9jLt2rbmRnY2u3bvZcMPP1v3V9KkX/Xderp37UyPHl3Z9NM2Nv74s8P9nO31O+rYl7YOISqTtmHjgLdBWevdXpc9MTGZZr5NeahHV/buO0jXLh3p3+9RPpi7iH37I5zq2ZfWxS9cZ4eQNvyydScrv11HTOxlXhg3kvMXokhJUd6k79SxPQmJSaxc9T1nz10gx2BwuJ+zvX4l1wsoaR1ClJWS7r3Nu+wKW++ATev99Jlz1i77zNnziY9PAGDd95v4z7v/xMPDnZwcA8tXrmHOrP/jqSf6MuDJ/ixbscbpkmthF3/Boi84HnkSwHq+QkeP/cnefQcBSM+4xoWoSwQHt+DU6YLhTEhMskljl9SkT01LZ9mKNTafs7efknUVpeT+Km0dQlQmm6G313pX0mXPzr7J0m++5dVpL3Psjz+tV25xRqNGPg67+Ffir9p8nJOTg4f77QtCKGnSnzx5Z/ve3n5K1lWU0o59SesQojLZDL291rvSLrtPw4bk5+dTv349tFqNosZ8UZo7OvZ3KvqUpbiyNukd7adkXUUpvb/s3edCVAbFP71X0mVv3NiHEcMGMX/B5+i0Wp55+gnr/kp79o66+I6UtUnvaD9ne/3SsRc1leKhd9Rld3Fx4a//M44DEUf54/gJlny1kkHPPIn/re+JlfbsHXXxHSlrk97Rfs72+qVjL2oqp3JZ9rrs/fo+QjPfJsy/1cuPuhjNrj37eHHSeGa8M9upnr29Lr4jZW3SK9nP2V6/dOxFTaSK7r0QalFju/fSnRei+lTL0Et3Xojqc9e9y04IUT4y9EKojAy9ECojQy+Eykj3XogaTLr3Qohyk6f3QqiMDL0QKiNDL4TKyNALoTKKhr62t+Zr++0Toih5pK/BpKUvKoMMfQ0mLX1RGazvsquK1ryjrr6HhzsTXxhDp07tMeQY2Lp9F818m3IxOobtO/YULNhBS7400tIXooC1e18VrXlHXf0J40cSHNyC+R9/xq7f9tG9ayhdu3TkxMkzXLwUAzhuyZdGWvpCDRR376uqNW+vq+/m5sbDPbszf8Hn1gFf8tVKOnVqb91faUu+OGnpC3GbDqquNe+oq6/Vam32MRgMpKamWz9W2pIvTlr6Qtymg+przdu4tQaLxTbZZyqyj9KWfHHS0hfiNg1UX2u+qJSUNMxms81TZq1WSyOfhv+/vTuPiuq+Gz/+BoZNjAviLrtL3MAFN2JNozWJNVbjhrvRmpqlzc8kT9LmF5uThcYkahoTn1ibrcYUt6CpSZq4BHcRdyIguLCKArIICAwMMM8fxCuDMDMwAwzcz+ucnp6BmXu/c08+zmUY3le53dCWvLT0hbjLHpqvNV+dVqvl+IlTzA2ZjmevHnh0cmfBvJm4uDgr92loS15a+kLcpfzKrjla8zV9uXk7y5Yu4K3XX6G0tJQ9+w6QnJJmcJ+GtuSlpS9EFZvv3r/79mvs2XeAiANHmnspQtg8m+3em8vFxYUuXTzI/uX3+MZIS18I89jU0P/20Qnk5OSRnJoGegiZNY2iomLld/vGSEtfCPPY1NAXF5cwc/oUPDzcqaioIDEplffWfERZmfwKSghrsamhP3j4OAcPH2/uZQjRqslf2QmhMjL0QqiMdO+FsGHSvRdCWExO74VQGRl6IVRGhl4IlZGhF0JlWuXQS8deiLq1yqE3V2vsyq985XnGjR3T3MsQNkzVQ98au/InT58jJfVacy9D2DAlgV0Xx186688sX8KsmVMZEjCQtGvXycu7BVSdSldWVjJn1jSWLJ7LIxMfwtXVhYvxl0zuXKPRsHD+LJ59eilTJj+Cl2cvLsZfUv7Axpxtu7m14ZmnlvDUHxYz6eHxODo60rVrZ1LTrilV3do8vXwJv3pgFPf368OMxx/Dx9uTyBOnWb/uHQoKCkmtFtl8/a8v0a5dOxIuXVHWlZV1k6mPPcqfnl2GvZ098QmXLToWrq4uPP2HJ3h6+RM8OvEhNBoHxv96LO7uHZTnYc7ali1dQOHt20afu2i9zE5gGxMyexpDAgbxwUcbybuVz/gHx/LKy8+x4n/+qlxgYf6c6az5+wYSLl3B26sXb7z2MhfjLytt97rMnjkVf18f3ghdQ1lpGUuemMvyZYtZ+8HHyn1MbXvR/Nn06tmDN0PXUKLVMmPaY3h79eLIMePPa8PGL2jf7j4Sk1KqajT1tHhhCBdiLhL69vvKP4CWHIuF82bh5dWL0LffR1tayvSpkwkaHsjVpOR6r00IY4ye3t/prG8O20F8whUyM2+yZfsusnPyDJJPd3r2er3eoGdvzra/DNtOevoNbmbnsOPr3QwfFoCr6930tLFtu7g4EzxmJGFbw0lKTiUjI4vP/hVGZWXjx4DutOWvJiaTW23oG3Is7jT/w7aGczUxmfT0G3zy+VdU6m06aiRaKKOv9F26VHXZa3bqkpJS6NWzu3LbWM++zm2b2XA3tu3OHp1wcLC/p5Wfk5tLY6urLd/QY2Gq+S+EtRgdeo1D7d+2q9Frb0hn3SoN9zvrqPGKWF5u3Ry0o6PjPV+ra10Nas6b0fyvz9qEMMbo6X1GRiZlZbp7uuy+Pl5cv55h0Y6t0XC/28rvpXzNUaOhs4e7WY+v2ZWHqldYJ2cn5baDgz2dO3eq+VCrMqf531xrE62P0aEvLStjf8QhFsybSd8+/nh4uBMyaxoeHp34KcKyOq01Gu5arZYTUWeYN3cG3l6edOniwaKFIUoN1JSaXXmAxKQUgkcH4ezkhEaj4fGpk2nr5taQp2g2c5r/zbU20fqYnI4t23aiK9Ox4rnluLm1ITk5lVWr11FQWGjxzq3RcN/01TaWLV3AG6+9jFar5Ye9EZw6c96sx9bWld+6/RueXLqA9eveoby8nKiTZzkeafyKuNZgTvO/udYmWheb796rmTT/RX2Z1b1vzF58c7fom3v/lqylPs1/IepDXultRG3N/759/Xnhpb9KAlyYrcVf4UZNpPkvmooMvY2Q5r9oKqr+Kzsh1EiGXgiVke69EDZMuvdCCIvJ6b0QKiNDL4TKyNALoTIy9EKoTKMPvTTohbAtNvNK3xob9ELYIpsZ+tbYoBfCFinde2nQC9Hy1at7Lw16IdTBHqRBL4SaaEAa9EKoiQakQS+EmmjAsEHf0AsfVm/Q38qPA1pmg16I1s4epEEvhJooEykNeiHUQWq4QrQiNlXDtaUGvRBq1mRDrysvZ9lTzzfV7oQQdbCZz94LIZqGDL0QKiNDL4TKyNALoTLSvRfChkn3XghhMTm9F0JlZOiFUBkZeiFURoZeCJVpsUNvTk+/uZv7zb1/IWqjDL105y0jx0+0FMrQS3feMnL8REuhgaru/NjgUQBM+90kzpyNZu0HG3DUaJgT8jgPjBmJaxtXkpJS2PzvHUaTWn956TlS064RtnUnAMOHBfDiimdY99E/iTp1FoC5IdPx9OzBe2vWm9zHqtCVhG0NZ/TI4QQHj2T3t3vY9Z/v79mvm1sbli1dwJDAQZRqS9mz7wDl5eVmHYRVoSvZ99MhRo8cRm9/P4pLSvj2uz3s2XdAuY+frzezZ07Fz9cbe3s7LsTG88lnmykuLqnz+AG4tXHjxRXPMHhQf24XFRFx4Ag7v7l3/UI0FQ3U3Z0PmT2NIQGD+OCjjeTdymf8g2N55eXnWPE/f+X27aJaNxgbF8+IoKHK7aGBg8nJzWNI4CBl6Af078uJqDNm76Ourn11DW3uK8915lTeW7uexKQUBg/sz4svPENqWrpycYySEi0HDh5l46ebcHJ04oUVTzN50kR2hO822u2fPGkCm77azhebwvD19WbFn5aTcOkKsXHS3hfNo8438u608DeH7SA+4QqZmTfZsn0X2Tl5TBg/rs4NxsYl4OvjjbOzMwBDAgfx3x/2ExgwEDs7O1xcnPHx9iI2Lt7sfdTVtb/DGs39yKjTXE1MRq/X83NMHKdOnWP8Q2OV79/IyCTq1Fny8vLJzLrJ6TPn8fLsaXK7Z87+zJGjJ8jNu8WZs9FcvpKIn5+P2esSwtrqjGh06eKBRqMhOSXN4OtJSSn06tm9zg0mJaei1Wrp28ePgoLbuLg4sz/iMLNmTMHbqxcd2renpKSElNRr9OjRzax91NW1v8Mazf2srGyD29fSrzNsaIByu7e/L1MmP0yPHt2xt7ejrZubwf7qci39usHtkpISXF1c6ri3EI2vzqHXONT+rTsXwaiLXq8nPuEy9/frQ5lOR/SFOHQ6HTGx8QQGDMTV1YW4i5fQ6/Vm78Nkv94KzX1HR8O1ODg4KBf+cO/YgVf/soId4bv56OPPKC8vZ9aMKfj7+ZrcbvVriQlhC5TT+5rd+YyMTMrKdPj6eBk8wNfHi+vXM4xuNDYugX59/RnYvx9nz/0MwPnoGAYO6Eef3n7ExMVbvI/qqjf376hPcx+gZ42zF38/HzKyqq6Q4+vrjb29PT/siVDeHOzWravB/Wvr9gthi5Shr9mdLy0rY3/EIRbMm0nfPv54eLgTMmsaHh6d+CniiNGNxsbF4+3lia+PF9HRsUDV0Pf298Xby5PYX4bekn1UZ2lzHyBoWCBjg0fRyb0jvxk/jsCAgUQcqFpDdnYOjo6ODB0ymLZt3XhwXDCBgwcYPL62br8QtkiZitq681u27URXpmPFc8txc2tDcnIqq1avo6Cw0OhG065dp7y8nBsZWdwuqnoHPjfvFlk3c7ivbVtu3MhU7tvQfdRkSXMf4Nvv9zL2gVE8uWwhhYW32bR5G/EJVZfDTkm9xo7w3SxftggnJ0fOnrvAxk++NHizsbbjJ4Qtku49Vb+nP3DwKHv3H2zupQhhkUbr3re0hr2p9QIgP44LlWjQ0Le0hn1LW68QjanF/pWdEKJhmuwKN7bslZWhzb0EIZqMvNILoTIy9EKojHTvhbBh0r0XQlhMTu+FUBkZeiFURoZeCJWRoRdCZWTohVAZqwx9bc33la88z7ixY6yxeSGEFVll6Gtrvp88fY6U1GvW2LwQwoqUz94b67pD1Z+nzg2ZzpjRQbRp48r1G5m8u/pD5s6ZUWvz/aEHq0qyKalpyuNN9e337j/IqBHD6NPbD622lIiDRwjf9V1THg8hWj1l6I113QHmhDzOsKEBbPz0S25m5+Dl2ZNb+QVGm+/VmdO3nz9nOmv+voGES1fw9urFG6+9zMX4y8RdlEa8ENainN4b67o7OTkyccKDbA7bzvnoGNLTbxB54rTZOzG3b38i6gzxCZfR6/Ukp6Rx+UoS/n7eVny6Qgjlld5Y171z56oG/tXElAbtxNyGfkZmlsH3S0tLcXV1bdA+hRC104Dprru9ida9yZ1Yq28vhLCYPZjuumdlZVNRUXlPn/4OU813a/XthRCWswfTXffSsjIOHDrKwnmzGDTwfrp368qYUUHKn+Saar5bq28vhLCcBszruv97SzgL5s3kuWefxNnZiWvpN7gQW3WNOXOa79bq2wshLCPdeyFaEXO69/LZeyFURoZeCJWRoRdCZWTohVAZGXohVEaGXgiVke69EDZMuvdCCIvJ6b0QKiNDL4TKyNALoTIy9EKoTKseejs7O5YsnssnG97ns40fcH+/Ps29JKtaFbqShyf+urmXIVqY2pM2rUTg4IH86oFRvPm3tZSWlpGdk8vKV57n8JETHD4a2dzLazJjRgfh2aun0XCpUI9WPfQ9e3YnNS3doM2nxh7/0CGDyc7Obe5lCBthcugbs1dfV0v/Vn6BxftdNH82E8b/CkdHR8K+/AeRUaf56H8/vafHvyp0JWFbwxk9cjjBwSPZ/e0edv3ne1aFrmT/T4d4IHgUPt6eFBUXsyN8N1qtlpCZ0+jQoT3X0q/zj082ceNGpvGDrNEwf+4MHggeCXqI/jmWTV9tU9Lf5hxDN7c2LFu6gCGBgyjVlrJn3wElbWbM08uX1HpdgvXr3mHrtl0cPR6l3Pf1v77E2XMX2P3djyaPjVyjoOUyOfSN2auvq6Vvjf1++e/t3MovIDBgAG+9/b7RdSxeGMKFmIuEvv0+eXm37j73WdN4Z/WHJCWnMumRCTy5dCFXE5N46+21FN4u4tmnlrJw/izeW7Pe6PZnz5yKv68Pb4Suoay0jCVPzGX5ssWs/eBj5T6mjuGi+bPp1bMHb4auoUSrZca0x/D26sWRY0Z3bfZ1Cep7bOQaBS2X0TfyGrNXb6yl39Sd/OycXDZt3sbVxGRyq/2HHRl1msSkFPR6PYePROLgYM9/f9zPrfwCKioqOBYZhY937bHQmsfwy7DtpKff4GZ2Dju+3s3wYQG4urqY9VxcXJwJHjOSsK3hJCWnkpGRxWf/CqOysvGjR3UdG7lGQctl9JW+MXv1xlr6Td3Jj4m5WOvXb97MvrvtsjIAg5+NS0t1uLo4G912l86dcHJy5OUX/wi/zOid9LeHRyfS0tIB48+ls0cnHBzslesQAGi1WnJyG//n9LqOjVyjoOUyOvSN2as31tJv6k5+Xdup7esVFZX12radXdXJ1LurPyLvVr7B9/J/+VHG2Bp+2UjV/+sNX9nLyyvqtRZTHB0d7/lafY6NaBmMnt43Zq/eWEu/NXXyM7Nuoisvp0tnD3Jz8wz+V1Fh3tDevJlDZWUlXp69lK85ajR09nA36/G1XZdAq9Xi5Oyk3HZwsKdz505mbU+0bEZf6av36ouKisnNy2PCQ+Os0quv3tLX6XTk5OTh4+3JzzFxFBUVN9p+m5pOp+PHPREsmDcLXXk5KSlptG/fDj8/b/buO2jWNrRaLSeizjBv7gzyNxZSoi1hyuRHlOqpKXeuS7B330Eq9Xpu3conMSmF4NFBHDsWRUVlJdN+N4m2bm4WPFPRUpj8r6Yxe/XGWvqtqZO//ev/gF7P0sVzue++tuQXFHI88mS9trHpq20sW7qAN157Ga1Wyw97Izh15rxZj63tugRbt3/Dk0sXsH7dO5SXlxN18izHI0815OmJFka690K0IuZ07zWOGg0b1q+udQPvrPmQK1eSGryAxty2LWnu59nc+xcti7zSC9GKyBVuhBD3kKEXQmVk6IVQGRl6IVRGuvdC2DDp3gshLCan90KojAy9ECojQy+EysjQC6EyzT700m4XomkpQ7/ylecZN3ZMc67FptZxx5jRQcyeObW5lyGE1ShDbys9eFtZxx1Dhwxu7iUIYVVKRKNmD378r8cyZfIjuHfqSGFBIceOn2TL9l1GN+bn683smVPx8/XG3t6OC7HxfPLZZoqLSwDz2u0112Fqm8ba+Zb25utqxgvRktVazunevSuLF83hnfc+JO1aOt26djHrU3slJVoOHDzKxk834eToxAsrnmbypInsCN8NNKzdbmqbxtr5lvbmLW3GC2GLah16J0dH7IDi4hJu3y7iym3zIgw3MjK5kXH3ai+nz5zHy7MncLfd/v66DUrK+bN/hTEiaGiDt3mnnb9u/T85Hx0DQHr6DeBubz70nfeVr+34ejd/e/P/4+rqQkmJFrjbbwcM+u1y0QbRWtU69Cmp1/jhx5948/U/Ex0dw497I4i7eMnkxnr7+zJl8sP06NEde3s72rq5KQPe0Ha70W0aa+dboTcvRGtUZxhzy/Zd7N1/kIcnPsRLL/6RvfsOsmXbzjo35N6xA6/+ZQU7wnfz0cefUV5ezqwZU/D38626QwPa7aa2aaydb5XevBCtkNHf0+fk5rFl205Wr13Pbx+dYDS57Ovrjb29PT/siVDenOvWravy/Ya0201t01g73xq9eai9GS9ES1br0Pfs2Z3gMSNwd+9IWzc3+vXtTX5BodGrpGZn5+Do6MjQIYNp29aNB8cFEzh4gPL96u12by9PunTxYNHCEKP/kJjaZvV2/qCB99O9W1fGjArCza2NQW8+aPgQOnt0ore/b70/CHSnGe/esQMdOrSv12OFsEW1Tpy+Us+jD49n2ZIFQNWvz/6+7h9GN5SSeo0d4btZvmwRTk6OnD13gY2ffGlwwcn6ttvN2aaxdr41evO1NeOFaMlsroa7KnQlBw4dNfvqL0KIu8zq3tdng03RV7e3s6OynheJFEKYr15DrysvZ9lTzzfKQjq5d8TV1ZUuXTzIyLzZKPsQQtRz6BvTooUhBAzqz8lT54iNi2/u5QjRatnM0Jt6o1AIYR3N/vf0QoimJUMvhMpI914IGybdeyGExeT0XgiVkaEXQmVk6IVQGRl6IVTGpoZeGvhCND6bGnohROOToRdCZUx+9n5V6ErCtoYzeuRwgoNHsvvbPez6z/cmm/KWNvDffutVzpyNVhr0AA+MGcmSxXN5+o8voTNS8RFC1M2sV/rFC0Mo0+kIfft9Dh2uitRXb8q/+trbuLVtw/Jli5XH3OnV//nVN3n1tVX06N6NyZMmKt+v3sB/PXQ1Pbp3w9vrbj/v6LEoRo8KMljHiKChnD57XgZeCAuYNfTZObls2ryNq4nJ5ObdUpryX4ZtJz39Bjezc9jx9W6GDwvA1dUFqOrVR506S15ePplZN2tt4IdtDScpOZWMjCw++1cYlZV3Iz7HI0/SvVsXg8Z9YOBAIk+ctvYxEEJVzPrT2piYiwa3zWnKW9rAv5VfQGxcAmNGjyA1LZ3AgEHoynTExBquRQhRP2YNfc02vKmmvLUa+EePRzFj2mNs2/ENI4OGcvLUWSokpSWERRr07r2ppry1GvinTp+jfYd2+Hh7MiRwEMfl1F4IizVo6E015a3VwNdqSzl95jzTp01Gp9NxMd70pbWEEMY1OJdlrClvzQb+sWMnefl//siPeyPQ622q1i1Ei2Rz3fua3Nza8MmG93n9rdVcuny1uZcjhE0zq3vfFC17SwQNH0JWVjaXryQ26zqEaC00jdmyt8R997WlY4f2zJj2GN9+v0dO7YWwEptJYNf00gvP0rNHdw4dPs7+iMPNvRwhWg2bHfrX3ni3uZcgRKskf2UnhMrI0AuhMtK9F8KGSfdeCGExOb0XQmVk6IVQGRl6IVRGhl4IlZGhF0JlZOiFUBkZeiFUxuRn7x01GuaEPM4DY0bi2saVpKQUNv97B1cTk4GqLv7e/QcZNWIYfXr7odWWEnHwiEGvvi6m2vim9m2qvV+XVaEr2f/TIR4IHoWPtydFxcXsCN+NVqslZOY0OnRoz7X06/zjk03cuJFpci3vvv0ax0+c4j+7f1D2Me5XY5gXMp1n/9+fsbOzb9A6hWgMDp26eL1u7A7z5kxnaOBgLcS82gAACF1JREFUPt74Od9+v4d2bduyaMFsIg4epaxMx2/Gj2P0yGF8vmkLX2zaQmxcPE89uZhLlxO5mZ1jdOcuLi7k5d1i29ffcOhwJA9PfIi2bm7EXUwwa99zZj9O395+rF23gX37DzJy5DCGDQkk8sQpo/v9zfhxjAgayscbv2DTV9sAWLxwDh6d3HlvzUeE7/qOQQP7M3xYAMeOnzS5Fo2DhuDRIwz+GjBk9jTiE65w7nxMg9cpRH05Ozthb191Al9ZWUlpWZnyvbLSEu5r72H89P5O335z2A7iE66QmXmTLdt3kZ2TZ5C+OhF1hviEy+j1epJT0rh8JQl/P2+TCzTWxje1b3Pa+8ZERp0mMSkFvV7P4SORODjY898f93Mrv4CKigqORUbh4+1l1lqOR57Es1cPenTvBkBbNzcGD+zPseMnLV6nENZm9PS+SxcPNBoNySlpBl9PSkqhV8/uyu2MzCyD75eWluLq6mpy58ba+Kb2bU5735ibN7PvrveXfw2zs+9290tLdbi6OJu1luycXBIuXWXM6CDCd33HiBFDyc7J5crVJHr26GbROoWwNqNDr3Go/dt3/qO9o2YX3xym2vim9m2qvW9KbWuuq6lvznE4djyKRx+ZQPiu7xg9crjyY4Gl6xTC2oye3mdkZFJWpsPXx8vg674+Xly/nmHRjk218U3t21R735rMOQ5RJ8/StYsHfXr7MaB/P479UgZuynUKYQ6jr/SlZWXsjzjEgnkzKSoqJjcvjwkPjcPDoxM/RRyxaMfV2/iXLl9l+LBAAgcP4MrVZLP2Xb29rysvJyUljfbt2+Hn583efQctWltN5hyH20VFRP8cx8L5s0hJTVPe9W/KdQphDpO/stuybSe6Mh0rnluOm1sbkpNTWbV6HQWFhRbt2Jw2vql9G2vvW5s5x+FYZBTPPfskX4XtMHhsU65TCFNsvnsvhDBfs3fvm6upb+stfyGak7zSC9GKmPNKL5+9F0JlZOiFUBkZeiFURoZeCJWR7r0QNky690IIi8npvRAqI0MvhMrI0AuhMjL0QqiMqoZ+VehKHp746+ZehhDNSlVD39jGjA5i9sypzb0MIYySobeioUMGN/cShMoVFZdQXl5OeXk5Rb+k5GtSIhrjfz2WKZMfwb1TRwoLCjl2/CRbtu8Cqk6L9/10iNEjh9Hb34/ikhK+/W4Pe/YdUDZkrGH/l5eeIzXtGmFbdwIwfFgAL654hnUf/ZOoU2cBmBsyHU/PHry3Zr1FLX1HjYa5IdMZMzqINm1cuX4jk3dXf8itX3p0bm3ceHHFMwwe1J/bRUVEHDjCzm++v3tATLT06zpOTy9fwtjgUQBM+90kzpyNZu0HG4weVyGsraKiwuAv62qjAejevSuLF83hnfc+JO1aOt26drnnU3ohM6fy3tr1JCalMHhgf1584RlS09K5GH8JgJISLQcOHmXjp5twcnTihRVPM3nSRHaE7yY2Lp4RQUOVbQ0NHExObh5DAgcpQz+gf19ORJ1R7jN/znTW/H0DCZeu4O3Vizdee5mL8ZeVJn5d5oQ8zrChAWz89EtuZufg5dlTGXiAyZMmsOmr7XyxKQxfX29W/Gk5CZeuEBtXtd3ZM6fi7+vDG6FrKCstY8kTc1m+bDFrP/jY6HHasPEL2re7j8SklKpSjpnHVYimZg/g5OiIHVBcXMLt20VcuZpE9M+xBneMjDrN1cRk9Ho9P8fEcerUOcY/NFb5vrGGfWxcAr4+3jg7VyWlhwQO4r8/7CcwYCB2dna4uDjj4+1FbFy8sr2GtPSdnByZOOFBNodt53x0DOnpN4g8cdrgPmfO/syRoyfIzbvFmbPRXL6SiJ+fD4DJRr05x8lgPfW8vxBNQQNVvboffvyJN1//M9HRMfy4N4K4i5cM7piVlW1w+1r6dYYNDVBuG2vYJyWnotVq6dvHj4KC27i4OLM/4jCzZkzB26sXHdq3p6SkhJTUa8r2GtLS79y5qk9/NTGlzvtcS79ucLukpARXl6qLTphq6ZtznKqr7/2FaArKz/Rbtu9i7/6DPDzxIV568Y/s3XeQLdt2Knd0dDRsaDo4OCiDYaphr9friU+4zP39+lCm0xF9IQ6dTkdMbDyBAQNxdXUh7uIl9Pq7EZ+GtPTta/T4a1P9Mj81mdOoN3Wcaqrv/YVobAbv3ufk5rFl205Wr13Pbx+doGR3AHpWu6INgL+fDxlZVa/Gphr2UHWK36+vPwP79+PsuZ8BOB8dw8AB/ejT24+Yaqf2DZWVlU1FReU9fXpzmduor+s4VVZWYm9/7z88xo6rEE3NHqoGOnjMCNzdO9LWzY1+fXuTX1CoDDBA0LBAxgaPopN7R34zfhyBAQOJOFDVfK/esG/b1o0HxwUTOHiAwY5i4+Lx9vLE18eL6Oiqn2vPR8fQ298Xby9Pg5/nG6q0rIwDh46ycN4sBg28n+7dujJmVJDZb55Vb9QHDR9CZ49O9Pb3VT7QY+o4ZWVlM3jQANw7dqBDh/ZmHVchmpqmMD+H2/e5MHHCPJYtmQ9AYmIyoX97l8L8qqvOVlaU83X4N4weNZQnf7+AgoJCNv7zc06djAIg5kIOX/17K3/4/UKcnJw4eeo0H6z7Xx59dKKyjbj8HHQ6HenXr3PjetXP+oX5OWRkZNKuXTsuxccpi6qsKKe0pEh5LEB5uY6y0hKDr9Vm48Z/8vuli/nTM7/H2dmF1LQ0IiOPU1hYaNZ2P//sc0q1xTyxKIR27dqRfyufQ4ePYs5x2rptG39+6XneX/0WJ6JOsmXrDqP3F6I52A1/YKrUcIVQEflEnhAqI0MvhMrI0AuhMjL0QqiMXXfP++WNPCFUROPsYvyjrUKI1uX/AFvgvoU3DmTDAAAAAElFTkSuQmCC;" vertex="1" parent="ZNyAp8tG6LV2TRc6ALxz-7">
          <mxGeometry y="20" width="220" height="605.22" as="geometry" />
        </mxCell>
        <mxCell id="ZNyAp8tG6LV2TRc6ALxz-11" value="" style="shape=image;verticalLabelPosition=bottom;labelBackgroundColor=default;verticalAlign=top;aspect=fixed;imageAspect=0;image=data:image/png,iVBORw0KGgoAAAANSUhEUgAAAP0AAAK4CAYAAAC/P/sKAAAABHNCSVQICAgIfAhkiAAAABl0RVh0U29mdHdhcmUAZ25vbWUtc2NyZWVuc2hvdO8Dvz4AAAApdEVYdENyZWF0aW9uIFRpbWUAVGh1IDEyIE9jdCAyMDIzIDA3OjQwOjU2IEFNZ+s1IAAAIABJREFUeJzs3XdYVGfe8PEvQxcSGxZQQLCtFVtscc1GY8q6rsaG3dXFx7TXNevGrE/cXCk8MYk10dWYslljolEXzRoTFY2SREHsKCCodLBQrTDUef9ARgZhzqE5A+f3ua5cu+A597nPwO0ccOZ7bLr0fNyAEKLRu30zCw+vrugsPREhxMMli14IjZFFL4TGyKIXQmOsetEvXfIqw4cNsfQ0hGhU7Cw9AXOOnzxDUnKqpachRINha2uLSxNnAO7m5lFcXPzgNi1be70FMOJ3w1jw8jymTZ3AU0/+lqaPPkpkVAwA6z56n1u3bpOckmbc8a1/vMajjz5K7MXLACwLXEp6egZj//As/+/lAHQ2OmJiL7EscCkGg4Gp/s8zZ/Y0Rj31O4qLi4mLTzSOVdW+AXNncPvOHeO25uZoZ2fHzOmTePnFuYwZ/Qxenu25EHORgoJCsw+SuTHVzN3Xx5v582Yza8Zkxo55Fh8fb85HRlNYWMTfX1uAl1c7zkdeAKB/v96s/OBtUlOvkHblKgBT/cfz++dGcjT0OMsCl1JSUsKUSeOYM3sqz4x6EmdnJy7EXFT1BRfiEVcX7Ozs0Ol02Nnakl9QYPyzgvw8HmnqVvpM7+7ehtmzpvD+hx+TkppG2zatcXFpUu0Dzp7pz/nICwS+t4qcnBvGz/tPHMuHK9cRn5BErx7dWPTXl0hOSTP5Zq5q3zJKc5w8cSwdfTrwduAKCvILmPOnqcwPmM3KNeurnK+a81aae16ensMhR9j4+SYc7B3468IXGf3cKHYE7SYqOobHBvQ1jtXXrxdZ2Tn08etJ+InTAHTv1oVj4aeM20yfMp4VqzcQe/Ey3l7tefvNxVyIuUT0hViVXwUhzNMBONjbYwPk5uZx585dLsclEHEuqtqDZWZls2nzNuLiE8kut3DDwk8SF5+IwWDgXGQ0J06cYcSTw1TtW8bcHO3t7Xn6qd/x1ZbtpKVdJSMzix3/2U3/fr1xdnaqcr5qzltp7levXSf8xGlycm5yPT2Dk6fO4uXZDoCo6Fh8Onjj6OgIQB+/nvy49yB+vXtgY2ODk5MjHby9iIqOMY53LPwUMbGXMBgMJCalcOlyAh19vdV9AYRQwQ4gKTmVvft+4p23XiciIpJ9wYeIvlD9S8rIe5exFaWnZ5p8nJp2hX59e6vat4y5ObZu1RIHB3sWL3oF7r2+0MbGBgA3t5aklPuxRO2YaufeqaMPY0Y/jYeHOzqdDa4uLiQkJgOQkJiMXq+nS2dfbt26g5OTIwcP/cKkCWPw9mpPs6ZNycvLM/m9xbXr6SbHy8/Px9nZ2exjI0R1GH+Rt3X7LoIPhvD0qCd5bdErBB8IYeu2nVXuaG9v/8DnCgor//nZ3t7094W2trbGxam0b3lVzdHGpvQfIT5YvpacGzdN9rl581aNxlQz9xbNm/HG3xeyI2g3a9d/QVFREZMmjKGjrw8ABoOBmNhL/KZrZwoKC4k4H01hYSGRUTH49e6Bs7MT0RcuYjDcfzDUPA5C1IbJP9llZeewddtOlq9cx++fHYmdXek3vF6vx8HRwbidra2OVq1aqj5Iu3buJh939O3AtfT0KrY2r7I5Xk/PoLCoiNat3MjOzjH5r7LfXqoZU83cfXy80el07N1/iKKiIgDatm1jsn1UdCxdu3SkR7eunD5zDoCzEZH06N6Vzp18iSx3aS/Ew6CD0m/soUMeo0WL5ri6uNC1Sydu3rpt/EaOT0hi6OABODo4YGdnx/NjR+Pq4qL6IAP6+TFs6CBatmjOUyOG49e7B4cO/1qtiZqbY2FhIfv2H2LGtEkM6N+HVm4t6dTRh6dH/a7GY6qZe2ZmFvb29vTt0wtXVxeeGD4Uv17dTY4RFR2Dt5cnPh28iIgo/X3B2YhIOnX0wdvL0+TneSEeBjsAQ4mBZ58eQcCcGQAkJaew+qNPjBt9u/075s2dwbqP3qeoqIjw46cJDTuh+iDf/xDMsMcHMS9gJrdv32HT5m3ExF6u1kSV5rj9P/8Fg4G5s6fyyCOu3Lx1m9Cw47UaU2nuScmp7AjazfyAWTg42HP6zHk2fvYVI0cMN+6fknqFoqIirl5L587duwBk59wgPSOLR1xduXr1erUeByFqy6a+31q7LHAph0OOEHwwpD4PUy8a8tyFNj36iKvxx9OioiJu3b5j/LOyt9Y+nFfk2TyUo1TK3s6ODeuWV/pn76/4mMuXE8wPYMG5C1EfrPpluHWhsKiIgBdetfQ0hLAaVv2GGyFE3av3n+mFEA+Pmp/p5ZleCI2RRS+ExtgBNXpHnRCi/t29m1vnY9rV18BCCOskl/dCaIwseiE0Rha9EBoji14IjZFFXwPLApcqvm1XCGuluUXfmFv6QwYPYPLEsZaehrBymlv0jbml37dPL0tPQTQAxnfZjfjdMMaMfoYWLZtz+9ZtjoYeZ+v2XUDp5eyBn35m8MB+dOroS25eHt/v2c/+A4eNA/n6eDN54lh8fbzR6Ww4HxXDZ19sJjc3j7+/toDklFS2fFvanuvfrzeLFr7ER2s/Naagp/qPx9PTgw9XrGNZ4FKCD4Yw6LF+dO7ki16fz6GQXwnatUfxhMzNA+DJJ0pLtknJKWbHsbezY6r/eIYMHkCTJs5cuXqdD5Z/zI17zT2XJi4sWvgSvXp2487duxw6/Cs7v/tB9TyWBS5ly7dBDB7Yn6FDB7L7+/3s+u8PivtVNa+pUyYwbOggAMb98TlOnY5g5ZoN2NnZMX3qBB4fOhAMEHEuik1fb+POnbtm5yEaL9uWrb3ecndvw9/++jIfrfuMrdt2EhkVw81bt7h+PQOAp0YM57H+ffj0881s2ryN1JQrzP+f2cTGXiYzMwsAJycncnJusO0/3/HzL2E8PepJXF1ciL4QS/PmTfHr3YPDPx8FYPSzT/Fo00fR6XScOh0BgP+ksZw5c55Ll+N5asRwBg/sx782beXLTVuJio7hhXmzuXgpnox7x6uKuXmUnUtiUrLJDSsqM33qBPr39eOLf3/D9z8Ec+16OpfjEoxj9PHrwY/7DvL1NztITEphzqypXLx0mYwM5cejbIx+fXtz9dp1vt7yH2JiL5Gn1yvuV9W8Tp46S+dOvoSFn+Sd/1tJ2LGTAEyZ/DxdOvmy8qMNHDgYwsCB/ejXx4+wYyfMzkM0TI6ODuh0pRfwJSUlVd/s4oH++50HwxJl/XfApP9edtOHq9euc/Xa/fRTxf775InjcHR0JD8/nz5+Pflh70HGjH4aGxsbHB0d6ODtxRdffmPcv6z/Dpj035Vu+mBuHmo5ONgzauQTfLTuU85GRAKQlnbVZJtTp8/x65FjQGn+6tLleHx9OxAVHat6HmWtf7XzVzOv8sruBxD4/irjdjv+s5v/e+d/cXZ2Ii9PX+U8ROOlunvfUPrv5uahVqtWbtjZ2REXn1TlNqlpV0w+zsvLw9np/o011Myjsta/uf3UzKs8tfcDULrngGhcVHfvG0L/XWkeaulslBtZ5S+bajqPiueotJ+aeZWn9n4A0trXFlXde2gY/Xc181AjPT2T4uISfDp4PdR5KO2nNK+SkhJ0uvt/MdT2fgCicVLVvYeG0X9XMw818gsKOPzzEWZOm0TPHr/BvW0bhgwaoPotyDWdh9J+SvNKT8+kV8/utGjejGbNmtb4fgCicVPVvYeG0X9XMw+1vtkaxIxpE1nw8jwcHR1ITbvK+Sh1P/vWdB5q9jM3rz0/BrPg5XmsXvEuJ09FsHb95zW6H4Bo3FQ18qT/LkTDULfdeyvpv9e6Y1/H4wjR0DS47n1ddeylhy+0SnOvvRdC61Q90y9ZGljf8xBCPCTyTC+ExsiiF0JjpHsvhBWT7r0Qotbk8l4IjZFFL4TGyKIXQmNk0QuhMbLohdAYzS16td17aciLxkpzi15t914a8qKxku59JV6cP6dGDXk1rfuDP/3M40MH0cHbk7u5uewI2o1er8d/4jiaNWtKatoVPvlsU51ERYSojHTvK1HThryaYz82oC/rN37Jpq9Lk9OzZ07BrWULPlyxlqBde+jZoxv9+/XmaKjUbUT1qene66CS7n1cAhHnokwGK+veGwwGk+59mavXrhN+4jQ5OTe5np7xQPfep4M3jo6OAPTx68mPew/i17sHNjY2ODk50sHby6STV9a9NxgMJt17JebmURtlDfmvtmwnLe0qGZlZ7PjPbvr3642zs5PqY4eFnyQ+IQmDwcAvv4Zha6vjx30HuXHzFsXFxRwNC6eDd82CnEKoId17ldQ05NUcOyPj/uNY9rdwZmb2/c/lF+Ls5Fjr+QpRFeneq6TUkK9p6x6guLik1vMTQi2TlVzWvY84F8mSxX9hR9BuYwZbbfe+bOFW1r0f0N+PkhIDP/8aCpQmsAcP6o+trS1h4adqfTJq5qGWuYZ8Zb8PqMtjC1GfpHtfheo25Ovy2ELUJ+neV6G6Dfm6PLYQ9Um690I0ItK9fwjjCNHQSPdeCI3R3GvvhdA66d4LoTHyTC+ExsiiF0JjpHsvhBWT7r0Qotbk8l4IjZFFL4TGyKIXQmNk0QuhMXWy6JcFLjW+xVQIYd2s7pm+Or15adMLUX1Wt+ir05uXNr0Q1aeqe6/Ue39gUIXt7e3smOo/niGDB9CkiTNXrl7ng+UfM3XKhEp785WRNr0QNWMH4O7ehtmzpvD+hx+TkppG2zatTV6lN3niWDr6dODtwBUU5Bcw509TmR8wm5Vr1lc6qNL2U/yfp1/f3mz8/CsyMrPw8mzHjZu32LDxS5o++gjxCUmllRozqtpW6dh5eXoOhxxh4+ebcLB34K8LX2T0c6PYEbTbOIb/pHG8v/xjEhKTee6ZkcybO5O4+ATefW8lt+/c5eUX5jJz+iQ+XLGuJo+5EBal2L1X03svT2l7Bwd7Ro18gs1btnM2IpK0tKvGm0nUlrTphVCm2L1X03svT2n7kpIS7OzsiItPqvOTkTa9EMoUu/dKvfeKlLb3cK+/LLS06YVQpti9V+q9V6S0fXp6JsXFJfh08OLM2fMP/HnF3rw50qYXovoUu/dKvfeKlLbPLyjg8M9HmDltEj17/Ab3tm0YMmiA8ReHFXvz5kibXojqU9W9N9d7r4zS9t9sDWLGtIkseHkejo4OpKZd5XzUBaDy3nxVpE0vRPWp6t4LIRqGuu3eW4C06YWoe1a96KVNL0Tds7rX3gsh6pcseiE0Rha9EBoji14IjZHuvRBWTLr3Qohak8t7ITRGFr0QGiOLXgiNkUUvhMZoftEvC1zKU43gXXZy7wGhllUv+sq69tK6rxvyOGqXVS/6yrr20rqvG/I4apfiu+zs7eyY4v88jw8ZiHMTZxISktj8zQ5jjmpZ4FKCD4Yw6LF+dO7ki16fz6GQXwnatUfx4OYa9JV17XPz9JW27pVa9lV19m9UaPzZ2up4bdErFOQXsPrjjcakVmWPSVXjqXm8qtvVXxa4lAM//czggf3o1NGX3Lw8vt+zn/0HDlf52Jrr/9f0ngGicVBc9P6Tx9Gnd0/WrN1Izo2bjHhiGEsWL2Dh3/5h/GaYPmU8K1ZvIPbiZby92vP2m4u5EHOJ6AuxZsc216Cvqmtf2eeUWvZVdfYrmvfnmTg7ObFqzYYqF7zSeGoer5p09f0njuXDleuIT0iiV49uLPrrSySnpHEh5mKlczTX/6/pPQNE42D28r6sI795yw5iYi9z/XoGW7fvIjMrxyQxdSz8FDGxlzAYDCQmpXDpcgIdfb0VD66mQa+GuXHUdPYNBgOTJ46lcydflq/6JwUFD9Zwy5gbT+3jVZOuflj4SeLiEzEYDJyLjObEiTOMeHJYpXOs7r0KarqPaJjMPtO3bu2GnZ0diUkpJp9PSEiifTt348fXrqeb/Hl+fj7Ozs6KB1fToFfD3DitWrkpdvb9evdgQP8+rFyzXvFS1tx4ah+vmnT109MzTT5OTbtCv769K51jde9VUNN9RMNkdtHb2Vb+x2XfDGUq68QrUdugr+04OhvlnLa3tyehYSeYMul5zkdeMPtMb2682jxeSl19e3vTsW1tbY2L88HjVe9eBTXdRzRMZi/vr127TkFBIT4dTC81fTp4ceXKtVoduHyDvqioCHiwQV9ZA7/i55TGKd/Zr8r3e/bz6RdfYaOzYZr/BLPzNjdefT5e7cpdKQB09O3AtfT0Srct3//Pzs4x+a+4uBgwf8+AqvYRjYPZRZ9fUMDBQz8zY9pEunTuiJtbC/wnjcPNrSU/Hfq1VgdW06CvrIFf8XNK4yh19ssUFBSy/pMvGTnit/Tp3dPsY1LVePX5eA3o58ewoYNo2aI5T40Yjl/vHhw6XPmYau5VUN17BojGQ/G391u37aSwoJCFC+bj4tKExMRkli3/iFu3b9fqwGoa9JV17Sv7nNI45jr75cUnJLHzux+ZP28Wr//vu1Weo7nx6uvx+v6HYIY9Poh5ATO5ffsOmzZvIyb2cpXbK917oLr3DBCNh3TvG4BlgUs5HHKE4IMhlp6KsHKquvf12ZZvqN16q5y3utv7CaHIrj7b8g21W99Q5y2EGlb92nshRN2z6jvciFJLlgZaegqiEZFneiE0Rha9EBoj3XshrJh074UQtSaX90JojCx6ITRGFr0QGiOLXgiNkUUvhMY06EUv7XYhqq9BL3pptwtRfRbt3pvrx6/76H2+3baLI6Hhxu3f+sdrnD5znt179lXZbh/xu2GMGf0MLVo25/at2xwNPc7W7bsUj6fUfFdzntKNFw2BRbv3anv0lams3e7u3obZs6bw/ocfk5KaRts2rU1ebWjueGqa70rnKd140RBYrHuvpkdfXQ729tgAubl53Llzl8txCUSci1I8ntrmu7nzlG68aCgs1r1X06OvrqTkVPbu+4l33nqdiIhI9gUfIvrCRcXjqW2+mztP6caLhsJi3Xs1PfqK7O3tFbfZun0XwQdDeHrUk7y26BWCD4SwddtOs8dT23w3d57SjRcNhcW690o9er1ej4Ojg/FjW1sdrVq1NNmmsi4+QFZ2Dlu37WT5ynX8/tmR2NnZmT1eXTTfpRsvGgqzz/TlO+537+aSnZPDyCeH10nHvXw/vrCwkKysHDp4e3IuMpq7d3OJT0hi6OABHD0aTnFJCeP++ByuLi4mY5S124MPhFBiMODi0gRvr/bExF6mIL+Arl06cfPWbYqKiigCs8cra74XFhWRlJRC06aP4uvrTfCBEFXnU74bX9MxhHgYLNa9B/P9+G+3f8e8uTNY99H7FBUVEX78NKFhJ0z2r9huD9q1h2efHkHAnBkAJCWnsPqjT1Qdry6a79KNFw2BdO+FaESkey+EeIA80wvRiKh5pm/Qr70XQlSfLHohNEYWvRAaI4teCI2R7r0QVky690KIWpPLeyE0Rha9EBoji14IjZFFL4TGNMpFvyxwKU+P+p2lpyGEVWqUi/5hke6+aIhk0deCdPdFQ2TR7n1dtOZdXJoQMHcGffx6kq/PZ/+BwxQVFak6eenuCy2yaPe+Llrzs6ZPpn07D94JXEGeXs+EcX/A26s9vx5VPnnp7gstslj3vi5a805OjgwdMpAt3waRkJjMtWvpfPHvLZSUKCcCpLsvtMpi3fu6aM23cmuJra2OhMRk45/r9XqysrPNHhukuy+0y2Ld+7pozVM2D4PpM3tRkXJyWrr7Qqss1r2vi058RkYWJSUleHm2N37O3s6OVm4tFPeV7r7QKot17+uiE6/X6zkWfoppUydwc+Nt8vR5jBn9jLERpnRu0t0XWmTR7n1ddOI3fb2NgLkzePvNxej1evYGH+LEqbOq9pXuvtAiqeEK0Yhovntv6eMLYY3kmV6IRkS690KIB8iiF0JjZNELoTGy6IXQGOneC2HFpHsvhKg1ubwXQmNk0QuhMbLohdAYWfRCaIzVLfraNuuleS+EeVa36CtauuRVhg8bYulpCNFoWP2iP37yDEnJqZaehhCNhkW792qa9U8+MQwoDVIA+Pp4M3niWHx9vNHpbDgfFcNnX2wmNzevRvN3dnYiYM4M+vXrjT5Pz77gQ3i4tyUuIdFYnFFq4IM050XDofhMX757v3jJ28TGXmbJ4gW4ut5PR02fMp7vdu8l4IVXWb5qHX/8wzN079ZV8eDlm/VvBS7Hw70t3l7tze6Tl6fncMgRXn/jHd54cxke7m0Z/dyoGs9/5rRJeHm1J/C9VQS+vxovz/YMHtRfce4VlW/Ov/Hme7i4NmF+wOxqjyNEfbNY976mzfqr164TfuI0OTk3uZ6ewclTZ/HybFej+Ts6OvLbYYPZ8m0QcfGJpKVd5bN/fU2JoXqJAWnOi4bEYt37mjbrO3X0Yczop/HwcEens8HVxcVkjOrMv3Wrltja2j4wh8xM5W6+yXGkOS8aEIt172vSrG/RvBlv/H0hO4J2s3b9FxQVFTFpwhg6+vpUur3i/O/9r6HCHApVnE/5Br4050VDYrHufU2a9T4+3uh0OvbuP2T8hV/btm1qPP/7c7j/44GtrS2t3Ez79koNfGnOi4bEYt37mjTrMzOzsLe3p2+fXly8FEf/fn749erO5bjEGs1fr9cTeuwEU/3Hc+PGl+Tl6Rn9+1E4OTmajKPUwJfmvGhILNq9r26zPik5lR1Bu5kfMAsHB3tOnznPxs++MvmlYnXn/9Xm7QTMncG7by0hP7/0nw0r/g5ATQNfmvOioZAabiU+eO9N9h84zKHDtbuaEeJh03z3viacnJxo3dqNzMwsS09FiHphV1hURMALr9bL4PU5dl35/bMjycrKITE5BQzgP2kcd+/mEhN7ydJTE6JeKN/psZHLzc1j4vgxuLm1oLi4mPiEZD5csZaCghr8M6QQDYDmF33IL6GE/BJq6WkI8dBY/bvshBB1Sxa9EBoj3XshrJh074UQtSaX90JojCx6ITRGFr0QGiOLXgiNkUVfT6ypv29NcxGWZ9FFP2TwACZPHGvJKTQI8jiJumTRRd+3Ty9LHr7BkMdJ1CWLde9fnD+HYUMHATDuj89x6nQEK9dsUOzHK3XvlwUu5eBPP/P40EF08Pbkbm4uO4J2o9fr8Z84jmbNmpKadoVPPtvE1avXzc5xxO+GMWb0M7Ro2Zzbt25zNPQ4W7fvKn3gqtm5V9re3s6Oqf7jGTJ4AE2aOHPl6nU+WP4xU6dMqPRxqoqaewnUxddUOv8Nl23L1l5vmdtg2pTx9PXrxfqN/+L7H/bzqKsrs2ZM5lDIEQoKCnlqxHAGD+zHvzZt5ctNW4mKjuGFebO5eCmeDDPvST956iydO/kSFn6Sd/5vJWHHTgIwZfLzdOnky8qPNnDgYAgDB/ajXx8/wo6VlmqcnJzIybnBtv98x8+/hPH0qCdxdXEh+kIsAE+NGM5jA/qyfuOXbPp6GwCzZ07BrWULPlyxlqBde+jZoxv9+/XmaGjVZRt39zb87a8v89G6z9i6bSeRUTHcvHWL69czVM3zqRHDSUxKNi4kpe2nT51A/75+fPHvb/j+h2CuXU/nclxClY9TVQLmTMfb25MVq/7JwUO/MOixfvTo3pVzkdHGudTF11TpfIRlODo6oNOVXsCXlJSQX1Bg/LOC/Dweaepmue69ueOZ68er6d6HhZ8kPiEJg8HAL7+GYWur48d9B7lx8xbFxcUcDQung7dXZVMwcrC3x4bSt97euXOXy3EJRJyLUj3P6pyXg4M9o0Y+weYt2zkbEUla2lXFxV0ZNfcSqIuvqXT+GzaLde8rPZ6Kfrya7n1GRub9udz7m658yz4/vxDnCvHLipKSU9m77yfeeet1IiIi2Rd8iOgLF1XPszrnVVJSgp2dHXHxSWofqkqpuZdAXXxNpfPfsFmue1/puOb78Wq795XNp7i4pNrz2bp9F8EHQ3h61JO8tugVgg+EsHXbzmp37pW293CvOuNdLSruJVAXX1Pp/DdsFuveQ+nPHDrd/W82pX58dbv3dSErO4et23ayfOU6fv/sSOzs7KrduVfaPj09k+Likgce5zIVH6eqqLmXQF18TaXz37BZrHsPkJ6eSa+e3Qk+EEKJwcCNGzfN9uOr272vjXbt3PH2ak9M7GUK8gvo2qUTN2/dNv5lU53OvVIXP7+ggMM/H2HmtEkUFhaSlZVDB29PzkVGc/dubqWPU2XU3EugLr6m0vlv2Czavd/zYzALXp7H6hXvcvJUBGvXf262H1+T7n1NGUoMPPv0CALmzLh37BRWf/SJ8c+r27lX2v6brUHMmDaRBS/Pw9HRgdS0q5yPulDl41QVNfcSqIuvqXT+Gy7p3gvRiEj3XoG1z68yDXHOwrrIM70QjYiaZ3p5l50QGiOLXgiNkUUvhMbIohdCY6R7L4QVk+69EKLW5PJeCI2RRS+ExsiiF0JjZNELoTFWu+jru9W+LHApT9XDu/OEsHZWu+iFEPVDFr0QGmOx7n3Z2JW13m/c66y5NHFh0cKX6NWzG3fu3uXQ4V/Z+d0P9ydfw5b8jQodN1tbHa8teoWC/AJWf7wRg6HyNx7WpKmvptN/4KefGTywH506+pKbl8f3e/az/8BhxcdPiJqwWPceqm69Q2k3vo9fD37cd5Cvv9lBYlIKc2ZN5eKly2RkqGuvK42fkJBEfEIS8+fNonmzZqxcs95s460mTX1Vnf7+ffj0881s2ryN1JQrzP+f2cTGXiZT4fEToiKr7t6rab2fOn2OX48cIzvnBqdOR3Dpcjy+vh1M5lablrzBYGDyxLF07uTL8lX/pKBAuepb3aa+2k5/XHwiBoOBc5HRnDhxhhFPDlOcixA1YbHufatWboqt99S0KyYf5+Xl4exUejOFumjJ+/XuwYD+fVi5Zr3q2zFVt6mvptOfnp5p8nFq2hX69e2taj5CVJfFuvc6G+Wkc/lLkwfnUPuWvLe3J6FhJ5gy6XnOR15Q9Uxfnaa+2k6/vb3p42xra2v8i0yIumax7r1S611JbVvyAN/v2c+UYUGxAAAgAElEQVSnX3yFjc6Gaf4TanoqVVLb6W9X7qoJoKNvB66lpz+wnRB1weyiL99I79K5I25uLfCfNK5OuvflW+89e/wG97ZtGDJogOq3+ZZvrw/o34dWbi3p1NHH+IIeteMXFBSy/pMvGTnit/Tp3bNW51RR+U6/q6sLTwwfil+v7g9sN6CfH8OGDqJli+Y8NWI4fr17cOhw7e8rIERlLNq9N9d6V6M2Lfny4hOS2Pndj8yfN4vX//fdOjk3UN/p//6HYIY9Poh5ATO5ffsOmzZvIyb2cp3MQYiKpIZrYcsCl3I45AjBB0MsPRXRCEj3vposNl/l32kKUWfsCouKCHjh1XoZvD7Hrg8Nbb5C1IS89l4IjVH8RZ6oX0uWBlp6CkJj5JleCI2RRS+Exkj3XggrJt17IUStyeW9EBoji14IjZFFL4TGyKIXQmMa3KKv7x6+EI1dg1v0FS1d8irDhw0xfjxk8AAmTxyrat/qbCtEY9HgF/3xk2dISk41fty3Ty/V+1ZnWyEaC4t275W69S4uTQiYO4M+fj3J1+ez/8BhY3aqzJNPlFZjk5JTeHH+HIYNHQTAuD8+x6nTEaxcs6HSY1e1rdKc1HTsq9vGF+Jhsmj3XqlbHzBnOt7enqxY9U8OHvqFQY/1o0f3rpyLjDb+pfPUiOEkJiUTF5/IyVNn6dzJl7Dwk7zzfysfSF6XV9W2SnNS1bGvZhtfiLpi1d17pW69k5MjQ4cMZMu3QSQkJnPtWjpf/HsLJSX1F/pRmhOo79hXp40vxMNkse69UrcegwFbW51JI16v15OVnV3ZcHVCaU4pKWmqOvbVbeML8TBZrHuv2K33aFv6QYX7yhUVVX3bqdpSmpPajn112vhCPGwW694rdeszMrIoKSnBy7O9cR97OztaubUwO25JSQk6nbroXMVtleaktmMvhDWzWPdeqVuv1+s5Fn6KaVMn4O3lSevWbsya6W8sfVYlPT2TXj2706J5M5o1a1qtbZXmpLZjL4Q1s2j3Xqlbv+nrbQTMncHbby5Gr9ezN/gQJ06dNTvmnh+DWfDyPFaveJeTpyJYu/7zam1rbk5qO/ZCWDPp3gvRiGi+e2/p4wthjeSZXohGRM0zfYN/7b0Qonpk0QuhMbLohdAYWfRCaIx074WwYtK9F0LUmlzeC6ExctdaIRoJGxsbvL3a4+5e+iawq1evExkdi6HCO1XlmV6IRqKDtyee7T1wdHDA0cEBz/YedPD2fGA7WfRCNBJt2rRS9TlZ9BU8zK6+NPyFJVjtoq/LJr307YW4z2oXfV026aVvL8R9Fu3ej/jdMMaMfoYWLZtz+9ZtjoYeZ+v2XVU26dU057d8G8Tggf0ZOnQgu7/fT9u2rVW38Ct9gMx08D94701Cj53gv7v3Grcf/tshTPMfz8t/eR0bG53Zhr4QlqC46P0nj6NP756sWbuRnBs3GfHEMJYsXsDCv/3D+M07fcp4VqzeQOzFy3h7teftNxdzIeaSsQVfGXf3NsyeNYX3P/yYlNQ02rZpbXxl4IaNX9L00UeIT0gqLdnck5en53DIETZ+vgkHewf+uvBFRj83ih1Bu43bzJ7pz/nICwS+t4qcnBtk59yodCy1Jk8cS0efDrwduIKC/ALm/Gkq8wNms3LNeo6GHmfokMdMFv3gQf0JCz9JcXEJ06Y8X+W+QliKxbr3Dvb22AC5uXncuXOXy3EJRJyLMruPmuZ8ZlY2mzZvIy4+keycGwqnb55SBz807Die7T3wcC8t97q6uNCrRzeOhh5X1dAXwhIs1r1PSk5l776feOet14mIiGRf8CGiL1w0u4+a5nxk5AWzY1SHmg5+7MU4hgweQNCuPTz2WF8ys7K5HJdAO4+2ivsKYQkW694DbN2+i+CDITw96kleW/QKwQdC2LptZ6Xb1qY5X1NKHXyAo6HhPPvMSIJ27WHwwP7GW1Wp2VcIS7BY975MVnYOW7ftZPnKdfz+2ZHG1E/FJn1tmvPVaeGXp9TBBwg/fpo2rd3o3MmX7t26cvReOVfNvkJYgsW69+3auTN0yGO0aNEcVxcXunbpxM1bt40LumKTvjbN+eq08MtT6uAD3Ll7l4hz0cycPomk5BTjnWjV7CuEJVise28oMfDs0yMImDMDKL3V9OqPPjH+eWVN+po256vTwq9Iqc0PcDQsnAUvz+PrLTuqva8QD5vUcIVoJAYP6k+LZk2xtbUFoLi4mOwbNzkWfgrQSPe+MtY4JyEeJnmmF6KRUPtMb7WvvRdC1A9Z9EJojCx6ITRGFr0QGiPdeyGsmHTvhRC1Jpf3QmiMLHohNEYWvRAaI4teCI2RRS+ExjSYRb90yasMHzbE0tMQosFrMIv++MkzJCWnWnoaQjR4Fuve//21BSSnpLLl29ImXv9+vVm08CU+Wvsp4SdOAzDVfzyenh58uGIdTz4xDCiNbdTmuEJoneIzffnu/eIlbxMbe5klixfg6upi3Gb6lPF8t3svAS+8yvJV6/jjH56he7euZseNio7hN107Gz/u69eLrOwc+vj1NH6ue7cuREVV3c6vyXGF0DqLde+jomPx6eCNo6MjAH38evLj3oP49e6BjY0NTk6OdPD2Iio6psoxanJcIbTO7KKvz+59QmIyer2eLp198fbyxMnJkYOHfsHJyRFvr/b8pktn8vLyzP4cX5PjCqF1FuveGwwGYmIv8ZuunSkoLCTifDSFhYVERsXg17sHzs5ORF+4iMFQddinLhv3QmiFRbv3UdGxdO3SkR7dunL6zDkAzkZE0qN7Vzp38iXSzKW9EKJmLNa9h9Jf5nl7eeLTwYuIiNL72J2NiKRTRx+8vTzN/jwvhKgZi3XvAVJSr1BUVMTVa+ncuVt6B9zsnBukZ2TxiKur8cYRQoi6IzVcIRoJ6d4LISplV1hURMALr9bL4PU5thCiZhrMa++FEHVDFr0QGiOLXgiNkUUvhMZI914IKybdeyFErcnlvRAaI4teCI2RRS+ExsiiF0JjZNELoTGNYtFXbOIPGTyAyRPHWnBGQlivRrHoKzbx+/bpZcHZCGHdLNa9B2jSxJk/z5lOv7690efp2XfgMO093LkUF0/wgRAA1n30Pt9u28WR0HDjfm/94zVOnznP7j37AEya+C/On8OwoYMAGPfH5zh1OoKVazZU60ERojFTXPTlu/c5N24y4olhLFm8gIV/+wd37pTWbqZPGc+K1RuIvXgZb6/2vP3mYi7EXCL6QtXNeoBZ0yfj2d6Dt99djj4/nwnj/sDAgf24FBdf4xPasPFLmj76CPEJSWz/z39rPI4QjZXFuvdOTo48PnQQW77dSWJSCteupfOvTVvATP1WCFF7Fuvet3Jria2tzmTsvDw9mVnZqicvhKg+s4u+Prv33BujYte+uLhYcVd7e/vqH08IAViwe5+RkUVJSQnenu2Nn3NwsKeVW0uT7fR6PQ6ODsaPbW11tGpluk1FJSUl6HQ2ZrcRQqss1r3X6/UcCz/FtKkT6ODtSatWbsye4Y/uXsmzTHxCEkMHD8DRwQE7OzueHzsaVxeXKkYtlZ6eSa+e3WnRvBnNmjWt1TyFaGwU/51+67adHD9+moUL5rPyw3fo3q1LnXXvN329jfT0DN5+czHvvLmYa+kZpKSkmWzz7fbvKCwsYt1H77N29Xu4urgQGnbC7Lh7fgymuKiY1SveZea0SbWepxCNidV175cFvsHhn48a/51eCKFOA+7ey8/iQtQn6d4LoTGN4rX3Qgj1FF+G+7AtWRpo6SkI0ajJM70QGiOLXgiNke69EFZMuvdCiFqTy3shNEYWvRAaI4teCI2RRS+Exqhe9MsCl/L0qN9V+bGoPq09hlo7X2ul2Wf6iq18a1AXc6qP85L7CDQuml30FVv51qAu5lQf5yX3EWhcjK+99/XxZvLEsfj6eKPT2XA+KobPvthMbm5e7Q5gZ8f0qRN4fOhAMEDEuSg2fb3NmM9W081XM8bBn37m8aGD6ODtyd3cXHYE7Uav1+M/cRzNmjUlNe0Kn3y2iatXrwOmrXw1xxjxu2GMGf0MLVo25/at2xwNPc7W7btqde4VVZxTXZyXmsfX3Ne+qvsIKJ2bi0sTAubOoI9fT/L1+ew/cJiioiKF7xbxMBif6fPy9BwOOcLrb7zDG28uw8O9LaOfG1XrA0yeOJaOPh14O3AFb7z5Hi6uTZgfMNtkm+lTxvPd7r0EvPAqy1et449/eIbu3bpWawz/SeP4essO/jx/IXv3/cS8uTP5/bNP8e57K/mflxaRlZXDzOlVV3TMHcPdvQ2zZ03h0y828/KC11mz9lOiYy7Wybkrqe15gfLja+5rv2Hjl5w7H813u/cybdYLxhuHKJ3brOmTad/Og3cCV/BW4HI83Nvi7dUeYXnGRX/12nXCT5wmJ+cm19MzOHnqLF6e7Wo1eFk3/6st20lLu0pGZhY7/rOb/v164+zsZNzOXDdf7Rhh4SeJT0jCYDDwy69h2Nrq+HHfQW7cvEVxcTFHw8Lp4O31wBzVHMPB3h4bIDc3jzt37nI5LoGIc1F1cu5KanNeah5fqP7XXuncnJwcGTpkIFu+DSIhMZlr19L54t9bKCmxqkiTZhkv7zt19GHM6Kfx8HBHp7PB1cWFhMTkWg3eulVLHBzsWbzoFbj39S7LZ7u5tTT28Mx189WOkZGReX//ggIAMjOzy41ZiLOTY43mmZScyt59P/HOW68TERHJvuBDRF8w/0yvdt5KanNeZZTuS1Ddr73SuWEwYGurMxlDr9eTlS33NLAGdgAtmjfjjb8vZEfQbtau/4KioiImTRhDR1+fWg1uY1N6IfHB8rXk3Lhp8mc3b94y/n9z3fzajFFcXFJn89y6fRfBB0N4etSTvLboFYIPhLB1285az1tJbc7L3BhlavK1Vzo3D4+2pR9UuKdBUZHyPQ1E/bMD8PHxRqfTsXf/IePNJ9q2bVPrwa+nZ1BYVETrVm7GG15aYoy6OkZWdg5bt+0k4lwkSxb/hR1Bu6v85dTDmHddUPO1r3gfAaVzK7ungZdne27cjAZKe4mt3FrU34kI1XQAmZlZ2Nvb07dPL1xdXXhi+FD8enWv9eCFhYXs23+IGdMmMaB/H1q5taRTR59qvUCjLsao7THatXNn6JDHaNGiOa4uLnTt0ombt26b/W30w5h3XVDzta94HwGlcyt/TwNvL09at3Zj1kx/7OysLtSkSXYAScmp7AjazfyAWTg42HP6zHk2fvaVyU0qa2r7f/4LBgNzZ0/lkUdcuXnrNqFhxx/6GLU5hqHEwLNPjyBgzgyg9J/DVn/0iVXMu7bUfO33/BjMgpfnsXrFu5w8FcHa9Z8rntumr7cRMHcGb7+5GL1ez97gQ5w4ddYSpygqsLruvRCiZlR372t7oPrs5ls7LZ+7aLhqvei13LbX8rmLhkuzr70XQqtk0QuhMbLohdAYWfRCaIx074WwYtK9F0LUmlzeC6ExsuiF0BhZ9EJojCx6ITRG1aKv7175ssClPFUH7+irC9JmF42dPNMLoTGy6IXQGOO77Ozt7JjqP54hgwfQpIkzV65e54PlH3PjXs/NpYkLixa+RK+e3bhz9y6HDv/Kzu9+uD+QQgddafwytrY6Xlv0CgX5Baz+eKMx4fTAxOugp1+bNruzsxMBc2bQr19v9Hl69gUfwsO9LXEJiQQfCAGU7yVQk659dVv6QlRkXPRT/J+nX9/ebPz8KzIys/DybGeyIEc/N5JNX2/ny01b8PHxZuH/m0/sxctERccCph30gvwC5vxpKvMDZrNyzXpV45eZ9+eZODs5sWrNhioXvJrjQWnvfcXqDcRevIy3V3vefnMxF2IuEX2hdM7l2+x5ej0Txv0Bb6/2/HpU+YGbOW0SXl7tCXxvFfr8fMaPHc2A/n7EJSQatynryW/8fBMO9g78deGLjH5uFDuCdhu38Z80jveXf0xCYjLPPTOSeXNnEhefwLvvreT2nbu8/MJcZk6fxIcr1qk+byHM0QE4ONgzauQTbN6ynbMRkaSlXSXs2EmTDU+dPsevR46RnXODU6cjuHQ5Hl/fDoCKbryK8Q0GA5MnjqVzJ1+Wr/onBQVVF1zroqdfmza7o6Mjvx02mC3fBhEXn0ha2lU++9fXlFT4S0pNT746Xfu6aukLbbMDaNXKDTs7O+Lik6rcMDXtisnHeXl5ODuVfqMpddBLSkoUx/fr3YMB/fuwcs16xUvVuujpt3JrWeM2e+tWLbG1tX1g3/I9elDXk69O176uWvpC2+wAdDY2StsZvyEro9hBd1fOaXt7exIadoIpk57nfOQFs8/0ddHTp+yca9Jmv7dvxR8/CssdT21Pvjpd+7pq6Qtt00Fp4ri4uASfDuZvj1SV8h307Owck/+Ki4tVjf/9nv18+sVX2OhsmOY/oVbHU6N8m72M2jb7/X3vX6rb2trSyq2l8ePyPfmyXw7W9l4CdXHeQuig9Fn88M9HmDltEj17/Ab3tm0YMmiA6rfcKnXQ1Y5fUFDI+k++ZOSI39Knd88aH0+N2rTZ9Xo9ocdOMNV/PJ7tPXBr2YIZ0ybiVO72UvVxL4GG0tIX1s34Hf7N1iBmTJvIgpfn4ejoQGraVc5HXVA9kFIHXe348QlJ7PzuR+bPm8Xr//sut27frtHx1KhNm/2rzdsJmDuDd99aQn5+6T/3JSalGP+8vu4l0BBa+sK6Sfe+Dn3w3pvsP3CYQ4d/tfRUhAY9tO59fbF0U766x3dycqJ1azcyM7PqdV5C1JbVLnpLN+WVjv/7Z0eSlZVDYnIKGEpfZHP3bi4xsZce4iyFqD6rXfTWLjc3j4njx+Dm1oLi4mLiE5L5cMVas//UKIQ1kEVfQyG/hBLyS6ilpyFEtcm77ITQGFn0QmiMdO+FsGLSvRdC1Jpc3guhMbLohdAYWfRCaIwseiE0xqKLXhrzQjx8Vv9Mv3TJqwwfNsT48ZDBA5g8cawFZyREw2b1i/74yTMkJacaP+7bp5cFZyNEw6f42nt7Ozum+D/P40MG4tzEmYSEJDZ/s4O4+ERAXV/eHKWe/pNPDAMgKTmFF+fPYdjQQQCM++NznDodwco1G6p7zkJomuKi9588jj69e7Jm7UZybtxkxBPDWLJ4AQv/9g9jtVapL2+OUk+/vA0bv6Tpo48Qn5BUWpARQlSb2cv7ss765i07iIm9zPXrGWzdvovMrByT7JO5vrwScz19IUTdM7voW7cu7eGXb78BJCQk0b6du/Fjc315JeZ6+kKIumd20dvZVn71b1Ohk2+2L6/AXE9fCFH3zC76a9euU1BQ+ECv3qeDF1euXKvXiVWlpKQEnU755hxCiMqZXfT5BQUcPPQzM6ZNpEvnjri5tcB/0jjc3Fry0yHLFF/T0zPp1bM7LZo3o1mzphaZgxANmeK/02/dtpPjx0+zcMF8Vn74Dt27dWHZ8o+q7NHXtz0/BlNcVMzqFe8yc9oki8xBiIZMuvdCNBKqu/f12Ze3dLteCPEgu/rsy1u6XS+EeJDVv/ZeCFG3ZNELoTGy6IXQGFn0QmiMdO+FsGLSvRdC1Jpc3guhMbLohdAYWfRCaIwseiE0xuoW/cNo4UtvX2iZ1S36uiadfCFMNfpFL518IUxZtHvv4tKEgLkz6OPXk3x9PvsPHKaoqMh0gnZ2TJ86gceHDgQDRJyLYtPX24z5bV8fbyZPHIuvjzc6nQ3no2L47IvN5Obmme3kK/X2hWisLNq9nzV9Mu3befBO4Ary9HomjPsD3l7t+fXo/W0mTxxLR58OvB24goL8Aub8aSrzA2azcs16APLy9BwOOcLGzzfhYO/AXxe+yOjnRrEjaLfZTn51evtCNCYW6947OTkydMhAtnwbREJiMteupfPFv7dQUnI/5FN2/K+2bCct7SoZmVns+M9u+vfrjbNzaSb76rXrhJ84TU7OTa6nZ3Dy1Fm8PNspnrj09oVWmX2mr8/ufSu3ltja6khITDZ+Tq/Xk5Wdff/4rVri4GDP4kWvwL2/C8ry225uLUlJSaNTRx/GjH4aDw93dDobXF1cTMasivT2hVaZXfT12r0vG8NgmugrKiout0nphcgHy9eSc+OmyXY3b96iRfNmvPH3hewI2s3a9V9QVFTEpAlj6Ojro3h46e0LrbJY9z4jI4uSkhK8PNsbP2dvZ0crtxbGj6+nZ1BYVETrVm5kZ+eY/FdcXIyPjzc6nY69+w8ZfwHYtm0bk+NIJ18IUxbr3uv1eo6Fn2La1Al4e3nSurUbs2b6Y2d3/+qisLCQffsPMWPaJAb070Mrt5Z06uhjfGFNZmYW9vb29O3TC1dXF54YPhS/Xt1NjiOdfCFMKf72fuu2nRQWFLJwwXxcXJqQmJhcZ937TV9vI2DuDN5+czF6vZ69wYc4ceqsyTbb//NfMBiYO3sqjzziys1btwkNOw5AUnIqO4J2Mz9gFg4O9pw+c56Nn31l8kvGPT8Gs+Dleaxe8S4nT0Wwdv3ntZ63EA2ZdO+FaCSkey+EqJR074XQmEb/2nshhClZ9EJojCx6ITRGFr0QGiPdeyGsmHTvhRC1Jpf3QmiMLHohNEYWvRAaI4teCI1ptIte2vZCVK7RLnohROVk0QuhMRbt3i8LXMqWb4MYPLA/Q4cOZPf3+9n13x8UW/fLApdy4KefGTywH506+pKbl8f3e/az/8DhKo9lro//3rtvcOp0hMmcHx8ykDmzp/LiK69RWKHFL0RDpvhMX757v3jJ28TGXmbJ4gW4uroYt5k+ZTzf7d5LwAuvsnzVOv74h2fo3q2rqgnMnulPQWEhge+t4udfSoP35Vv3b7z5Hi6uTZgfMNt0XhPHsm3Hf/nz/IV8+tlXTJs6gW6/6VLlccr6+K+/8Q5vvLkMD/e2jH5uFABHjoYzeNAAk+0fG9CXk6fPyoIXjY7FuvdlMrOy2bR5G3HxiWTn3FDVugcICz9JXHwiBoOBc5HRnDhxhhFPDqvyOOb6+KFhx3Fv29r4sYODPX5+PQg7dlLVOQjRkFise18mMvKC6TFVtO6hNHhZXmraFfr17V3lccz18W/cvEVUdCxDBj9Gckoafr17UlhQSGTUhSrHE6Khslz3vop9lVr3ZeztTedma2tr/EuiIjV9/COh4UwY9we27fiOgQP6cvzEaYqLS2p8XkJYK4t176ui1Lov067clQZAR98OXEtPrzhc6XxV9PFPnDxD02aP0sHbkz5+PQmVS3vRSFmse18VpdZ9mQH9/Bg2dBAtWzTnqRHD8evdg0OHK5+Tmj6+Xp/PyVNnGT9uNIWFhVyIuVgv5yeEpVm0e18Vc637Mt//EMywxwcxL2Amt2/fYdPmbcTEXq50PDV9fICjR4+z+G+vsC/4EAaDlMFF49Qgu/fLApdyOOQIwQdD6nRcF5cmfLZhFW+9u5yLl+LqdGwh6lvj797Xw+3pBvTvQ3p6Jpcux9f94EJYCeneA4884krzZk2ZMO4PfP/Dfrm0F42a4s/0WvDaX1+mnYc7P/8SysFDv1h6OkLUqwb5M70Q4kFqf6aXd9kJoTGy6IXQGOneC2HFpHsvhKg1ubwXQmNk0QuhMbLohdAYWfRCaIwseiE0psEs+qVLXmX4sCGWnoYQDV6DWfTHT54hKTnV0tMQosGzWPf+768tIDkllS3f7gSgf7/eLFr4Eh+t/ZTwE6cBmOo/Hk9PDz5csY4nnygt3SYlp9TquADOzk4EzJlBv3690efp2Rd8CA/3tsQlJBJ8IAQw38kvO/7Bn37m8aGD6ODtyd3cXHYE7Uav1+M/cRzNmjUlNe0Kn3y2iatXr5c+2Ao9fyEeBot176OiY/hN187Gj/v69SIrO4c+fj2Nn+verQtRUbFVjlHT3v7MaZPw8mpP4HurCHx/NV6e7Rk8qL/JNuY6+cbHZtI4vt6ygz/PX8jefT8xb+5Mfv/sU7z73kr+56VFZGXlMHP6JOP2anr+QtQ3i3Xvo6Jj8engjaOjIwB9/Hry496D+PXugY2NDU5OjnTw9iIqOqbKMWpyXEdHR347bDBbvg0iLj6RtLSrfPavrymp8B56c538MmHhJ4lPSMJgMPDLr2HY2ur4cd9Bbty8RXFxMUfDwung7WXyWCr1/IWobxbr3ickJqPX6+nS2Zdbt+7g5OTIwUO/MGnCGLy92tOsaVPy8vLM/hxfk+O2btUSW1tbY/MeQK/Xk5mZbbKduU5+mYyM++39/IICAJNx8vMLcXZyNB5XTc9fiPpmse69wWAgJvYSv+namYLCQiLOR1NYWEhkVAx+vXvg7OxE9IWLZis2Nert35t7xXELy42lppNf1fGrauWr7fkLUd8s2r2Pio6la5eO9OjWldNnzgFwNiKSHt270rmTL5FmLu1rKiMji5KSEpNLdVtbW1q5tTR+rKaTX11qe/5C1DeLdu+jomPw9vLEp4MXERFRQOmi79TRB28vT7M/z9eUXq8n9NiJ0n8ZaO+BW8sWzJg2Ead7l+GgrpNfXWp7/kLUN4t271NSr1BUVMTVa+ncuVv6z1bZOTdIz8jiEVdX4z911bWvNm8nYO4M3n1rCfn5+ew/cNjk9xZqO/nVpabnL0R9k0bePR+89yb7Dxyu8i45Qli7xt+9r8PjOjk50bq1G5mZWfUyHyGsSaPs3isd9/fPjiQrK4fE5BQwlL7I5u7dXGJiLz3EWQphGZrs3ufm5jFx/Bjc3FpQXFxMfEIyH65YS0FBzW+5LURDoclFH/JLKCG/hFp6GkJYRIN5l50Qom7IohdCY6R7L4QVk+69EKLW5PJeCI2RRS+ExsiiF0JjZNELoTGy6O9ZFrj0ob3N9WEeS4iKGvWiHzJ4AJMnjrX0NISwKo160fft08vSUxDC6lise692X3Ot+L59erHglXn8/X/f5Xp6BgCLFr6EwVBCnj6fYUMHATDuj89x6nQEK9dsUP/AmDnuB++9SeixE/x3917j9sN/O8igyQkAACAASURBVIRp/uN5+S+vY2Ojk769sFoW696r3ddcK/7M2fMcP3GGgLkzABj4WF+6du3IF//ewoaNX3LufDTf7d7LtFkvVGvBKx33aOhxhgwaYLL94EH9CQs/SXFxifTthVWzWPdezb5qWvFffb2Ndh5t+f2zI5k9YwqbNm+rdV1W6bihYcfxbO+Bh3tbAFxdXOjVoxtHQ49L315YPYt179Xsq6YVf/duLl/8+xsWLXyJ02fOcTS09s05NceNvRjHkMEDCNq1h8ce60tmVjaX4xJo59FW+vbCqlmse69mX7WteLeWLSkuLqZ582bY2uqqbM+rpea4R0PDefaZkQTt2sPggf2Nf9lI315YO4t275WoacW3bu3GlMnjWPXRJ9jZ2vLHPzxr3L+kpASdzqaq4Wt13PDjp2nT2o3OnXzp3q0rR+9VbaVvL6yd2Wf68t37u3dzyc7JYeSTw+use6+kfCu+sKiIpKQUmjZ9FF9fb4IPhGBjY8P//HkWYeGnOHP2PLdv3+Ef//tXTp6OICUljfT0THr17E7wgRBKDAZuVHjmrelxAe7cvUvEuWhmTp9EUnKKMdetZl8hLMmi3Xs1zLXiR418Ag/3Nqz66BMALsclcCjkCC/Mm82bb7/Pnh+DWfDyPFaveJeTpyJYu/7zOjlumaNh4Sx4eR5fb9lR7X2FsBTp3gvRSGi6e2/tcxHCkuSZXohGQu0zfaN+7b0Q4kGy6IXQGFn0QmiMLHohNEa690JYMeneCyFqTS7vhdAYWfRCaIwseiE0Rha9EBrTKBe9dOWFqFqDW/SVteyXLnmV4cOGWGhGQjQsDW7RV9ayP37yDEnJqRaYjRANjzGiMeJ3wxgz+hlatGzO7Vu3ORp6nK3bdwHg6+PN5Ilj8fXxRqez4XxUDJ99sZnc3Dyg9HL64E8/8/jQQXTw9uRubi47gnaj1+vxnziOZs2akpp2hU8+22QszJjrylflxflzKm3ZP/nEMACSklMq3a8mxxKisbIDcHdvw+xZU3j/w49JSU2jbZvWJq/Sy8vTczjkCBs/34SDvQN/Xfgio58bxY6g3cZt/CeN4/3lH5OQmMxzz4xk3tyZxMUn8O57K7l95y4vvzCXmdMn8eGKdYBpV74gv4A5f5rK/IDZrFyzvsrJbtj4JU0ffYT4hKTSOo1KNTmWEI2VDsDB3h4bIDc3jzt37nI5LoGIc1HGja5eu074idPk5NzkenoGJ0+dxcuznclAYeEniU9IwmAw8MuvYdja6vhx30Fu3LxFcXExR8PC6eBdGth8mG146dALYcoOICk5lb37fuKdt14nIiKSfcGHiL5w0bhRp44+jBn9NB4e7uh0Nri6uJCQmGwyUEZGpvH/5xcUAJCZmX3/c/mFODs5Auq68nXlYR5LiIbA+DP91u27CD4YwtOjnuS1Ra8QfCCErdt20qJ5M974+0J2BO1m7fovKCoqYtKEMXT09TEZqLJ+fVX9+YfZhpcOvRCmTGq4Wdk5bN22k4hzkSxZ/Bd2BO3Gx8cbnU7H3v2HMBhKnyrbtm1Tq4OWb8OX3QhTreq27GtzLCEaIx1Au3buDB3yGC1aNMfVxYWuXTpx89ZtioqKyMzMwt7enr59euHq6sITw4fi16t7rQ5avg0/oH8fWrm1pFNHH1UvqClr2bdo3oxmzZrW67GEaIzsAAwlBp59egQBc0rv/pqUnMLqey35pORUdgTtZn7ALBwc7Dl95jwbP/vK5AaWNVHTNnxNWvbSoRfiPqnhCtFIqO7eW3KSlZE+vRD1y+oWfWFREQEvvGrpaQjRaDW4194LIWpHFr0QGiOLXohG4vr1DFWfs7qf6YUQNZOYlIKrSxPc3UtfPHf16nUSkx5856l074WwYtXJ0xsMBpKSU0m7cg2AoqIi46toy5PuvRAaIz/TC6ExsuiF0BhZ9EJojCx6ITRG1aKv7478ssClPFXLd+0JIdSRZ/p6VlmnvyrS7xcPgyz6elZZp78q0u8XD4PxFXn2dnZM9R/PkMEDaNLEmStXr/PB8o+5ca8j59LEhUULX6JXz27cuXuXQ4d/Zed3P9wfSKEtrzR+GVtbHa8teoWC/AJWf7yx0hcXQM1a+/Z2dkzxf57HhwzEuYkzCQlJbP5mB3HxiXzw3puEHjvBf3fvNR5j+G+HMM1/PC//5XVsbHR11ulfFriULd8GMXhgf4YOHcju7/ez678/PNDvd3Z2ImDODPr1640+T8++4EN4uLclLiGR4AMhqrdR+tpUNR9z90IQDZdx0U/xf55+fXuz8fOvyMjMwsuzncmCHP3cSDZ9vZ0vN23Bx8ebhf9vPrEXLxMVHQsot+WVxi8z788zcXZyYtWaDVUu+DLVbe37Tx5Hn949WbN2Izk3bjLiiWEsWbyAhX/7B0dDjzN0yGMmi37woP6EhZ+kuLiEaVOer9NO/+yZ/pyPvEDge6vIyblR6f4zp03Cy6s9ge+tQp+fz/ixoxnQ34+4hMRqbaOm+19xPkr3QhANV2n33sGeUSOfYPOW7ZyNiCQt7Sphx06abHjq9Dl+PXKM7JwbnDodwaXL8fj6dgCU2/JqxjcYDEyeOJbOnXxZvuqfFBQ8WNetqCat/c1bdhATe5nr1zPYun0XmVk5jBwxnNCw43i298DDvS0Ari4u9OrRjaOhx+ulnZ+Zlc2mzduIi08ku5JF7+joyG+HDWbLt0HExSeSlnaVz/71NSXl/iJUs43auVecj9K9EETDZQfQqpUbdnZ2xMUnVblhatoVk4/z8vJwdir9plFqy5eUlCiO79e7BwP692HlmvWqbzdVrdZ+69JzrPgGhISEJNq3cyczK5vYi3EMGTyAoF17eOyxvmRmZXM5LoF2Hm3rvJ0fGXnB7J+3btUSW1tbk/sL6PV6k/NTu42auVecj9K9EETDZQegs1FOSpctqsooteU93JWT2d7enoSGnWDKpOc5H3lB1TN9dVr7draVv6HQpty5Hw0N59lnRhK0aw+DB/bnaOjxe9vUfTu/srlXmBjAAz/iFJbfT8U2aude2XyquheCaNh0UJqVLi4uwaeDV40GKd+Wz87OMfmvuLhY1fjf79nPp198hY3Ohmn+E2p2NmZcu3adgoLCB+bg08GLK/felRR+/DRtWrvRuZMv3bt15ei9Yu7/b+/Ow5o60zaA3wQCaFAQ4oILYdHWHUHcLR1xqTPqiAuC+9TBy/azn+N0Rmf8ah3bOupUrXX00zLWdtRWiwxqkVZFi1hZRBA3RFB2N0AQAYGQhGT+oMQEkpOTDRLO87uuuaaE97znOcfzeA6R3K+u42Oib05/s2fPKiCXy9WWD7O1tUV3oZteY4ypHXi1FsKOXfvwm+mTYWdHn8a2dnZA01380uVELF0UAqlUioqKSniK+uF2ZharT+CpZstLZTIUFT2Es3NXeHuLEHchgfX8EokU+7/4Gh9tWo+btzJx83amyQ60QSLBxfjLWLJoPmpr6/C8shKTJwVCKHTDT/FXAAAva2tx63YWli4OQVHxQ+W7/rqOj0lzTn/chQTIFQq8aHG31UYsFiP5ahoWhs7Fixdfo75ejBm/mQrHX35cYTvG0Nr79HGHyKMvsnNyIWmQqK2FQKyb8q/tb49HY8mi+VizeiUcHOzx6PFT3LnL/HOnKl3Z8mznzy8owsnTP2LVymX4y/99guqaGiMP8ZXjkSchlUixds0qCASdUVhYjG079qjtIyklFWtWr8Q3x6L0Oj5tDMnpb3bk6AmEr1iCTzZvQENDA85fuNTqPQk2YwypnWktBGLdKPfeyvxj6yacv3AJ8ZeuGDWGdExduzgpfwSTyWSornmp/J7F5t43s5b8+7as09HRET16CFFeXmHUGMJtFtv01pJ/b846fzN9MioqKlFY/BBQNP0yUm1tHbJzHug1hhBVFtv0pOkXY+bPnQWh0BWNjY3ILyjGpzv3qv1zJpsxhKiin+kJ6UDY/ExPn7IjhGOo6QnhGMq9J8SCmSOennLvCeEYerwnhGOo6QnhGGp6QjiGmp4QjrF16+Gxub2LYGvblo2wteUhL7/Qouc0B3PXaS3ngTBzcLAHj9d0L5fL5WrhN5KGenRxFpr2Tq9PxjshbNA1ZXombXp9Mt4JYYOuKdNTfuDG20uEBfNnw9tLBB7PBnfuZuPgoaOoq6sHAOzbsx3fRZ5CYnKqcuPNH65Dxo07iIk9pzXjnSlrnolA0BnhK5ZghO9QNIibwiFaprawyXO/8NNljB3tj/4+3qirr8eZ2PM4f+GS1v0y1bv1kw9wPeMWok/FKsdPGDcaby9fiHffWwepllQZXedg25aNiLuYgDGj/DGgvzfE4gbEJ1xR248qY+owZm0DXdeItvx8Xdtpq2th2DyN15ShOf6kibLp6+vFuJSQiIgvD8Oeb4/3176LGb+eiqjoGFYTact4Z8qaZ0q9XbZ4Afr26Y2Pt+xEvViMecEzIfLoiytJr8awyXMPnT8bn+7ah/yCIgwbMgh/ev9/UPzwMe5la052Zao3MSkVk341Ua3ZRgX4IT3jptZGY3sOFofNxc7dB5BzPxcij774aNN63Mt+gKx7Oa3mM7QOY9c2YHONaMrz17Wdtrq0XVOG5PiTV5SP909LSpGaloHKyiqUlj1D+vWbaoGLhtCVNa+No6MDxo8bjWPfRaOgsBglJWU49O9jkMv1z3NPSU1HXn4hFAoFbmdmIS3tBoImTTSo3uSUa3Dv1UN5Xuzt+fD1HdIqw9+Qc3A19Tqycx5AoVCgsOghHuQWwMdbpHFOQ+owdm0DgN01oinPn2k7NnVpOp/65viTV5R3+v4+Xpg1Yxp693YHj2cDJ4FALU/dELqy5rXpLnSDrS2vVZ57xXP989zLyl5l4wNN+f3+fsMNqvdFVTXuZuVg3NhRKH74GL7Dh0IqkSKTIUuQ7TkoKS1T+35DQwM6deqkcU5D6jB2bQOA3TWiKc+faTs2dakyNMefvGIHAK7dXPDBX9ciKjoGe/cfgkwmQ8i8WfDx9mLcmM/nM0/OImtey4Cm/2+R5y6TNaoMYZfnzuer12Bra6u8WAypNzE5FfOCZyIy6jRGB/jhWlqG1qx9tnMCLHLwW9C3DmPXNmB7jbQ8Dl3bsalLlTE5/qQJDwC8vETg8Xg4ez5e+WZZr17qC1SIxWLYO9grv7a15aF7dze1MS0z3tlkzWvyKs+9r/I1vp0dugtdlV+zzXPv0+KJwsfbEyVl6ndVfepNS78BZ5eu8BT1wwjfoUhmeBQ15hzoom8dxq5twOYaMWQ7XXW1vKaMzfEnvzR9eXkF+Hw+/EYMg5OTAG8GjofvsMFqA/MLijB+bAAc7O1hZ2eHObNnwEkgUBvTnPHu2s0FLi7Oalnzrw3wgVDoitCQYLWseU3EYjGupl7HooXzIPLohx49hFi2NFRtoQXVPPeAkSPQXeiG/j5emDb1V2pzBfj7YuL4MXBz7YYpQYHwHT5Ea0osm3rF4gakX7+JucEzIJVKtb4hqM+chjCkjua1B4YOGQj3Xj0xbkwA649Vs7lGDNlOV10trym2f+5EOzugad2yqOgYrApfBnt7PjJu3EHEwSNqbzR9d+I0Vq5Ygn17tkMmkyH1WgaSU9LUJtOU8c4ma16Tw99EInzFEny0aT3EYjHOxsUj7fpNtTFs8tzP/BCHiRPGYGX4UtTUvMTho5HIzsnVul9W2fhJ17D+z+/hXFy8zpV12c5pCH3rMGZtAzbXiKHbMdWl6ZoydA0C0qRDZ+Rt27IRlxISEXcxwaTzCgSdcfDAZ9j8yQ7cf5Bn0rmtsQ5iOSw6977N8uL1X0ZOp4CRI1BWVo4HufkA2i+j31LqINal3ZreWnLtVXXp4oRuLs6YFzwTZ344r3ykbutjsZQ6iHWi3Hs9rHt/Nfr0dsfln5NxMf5nztdBrFOH/pmeEK6h3HtCSCvU9IRwDOXeE2LBKPeeEGI0erwnhGOo6QnhGGp6QjiGmp4QjrHapt+2ZSN9nNKC0Z+P5bLapjclfbLVKYedWDtqeuiXrU457HqgX/C2SDo/cGPqzHZVQb+aiFkz3oKrWzfUVNcgKfkajp841VSYjmzzVgeiY7y+2eqaaMv217VvNnnxF3+6jAnjx8BT1A+1dXWIio6BWCxG6PxguLg449HjJ/ji4GE8fVrKeE4NmYtNjrwh9QkEAvx13RoMGjgANS9rERN7DnEXElj/mVF+vXnoXMtuUdhc+PkOw/6Ir3Dmh/Po6uSEZUsWID4hERKJFFOCAjF2tD++OnwcXx8+jrtZ2Xhn5XLcf5CPZ+UVWud1d++JP7+/Gnv2HcTxyJPIvJuNqupqlJY+AwCELZiD1/p7Y9eeA7hwMQGjR/vDf4QvUq42pfVMCQpEYVGx8i8fXeMXL5yHkX6+OPTvb3HmhziUlJYhN68A6ddvYkB/b6SkpuPjv+9ijF/WNlbXvh0dHVFZ+QKR/zmNyz+nYNrUSXASCJSZ9lOCAjEqwA/7I77G4W8iAQDLl4ZB6OaKT3fuRfSpWAwdMggj/YcjKZk5IcaQudica33nbI4mO3kqFsciT6Gs7BlWLF+Ee9kPUF7xnPV+/f2G42lJKb459h9k5zxAvVjMePxcZ/RadubIbG9mz+fDBkBdXT1evqxFbl4Bbt2+q7ZfXdnmLevUNl7fbHV9sKmVTV58Smo68guKoFAo8POVFNja8vDjuYt4UVWNxsZGJKWkwlPELtRSn7n0WT9A3/rS0m8gNS0Dz59X4kpSKtLSb2LypDf02i/l15se4+O9OTLbmxUVP8LZcz/h481/wa1bmTgXF4+se03hjmyzzZV16hgvl8v1ylbXB5ta2eTFP3v2Kp+/+W/n8vJXOf8NDVJ0cnRgVZM+c7E914bU97RE/UeRh48eK98Tofz69sPY9ObKbG92/MQpxF1MwLSpk7DuT+8h7kICjkeeZJ1t/qoe5vG93XVHNRtK174NzYsHwJhjz0SfuYzJkddZX6tMexuVBqf8+vbC2PSqme03bt5Rvu7l6YGr166bpICK55U4HnkSt25nYsP6PyAqOkYt25zNeum6xqtmq6seR7OW2epMmHLYNe1bNfe9OdaKTV58W9H3XOujj3svta89PPqgtOyZ2fdLmDE2vWpme21tHZ5XVmLypECjM9uBpkUoRB59kZ2TC0mDBK+/1h9V1TXKBRGas82lMhmKih7C2bkrvL1Fau/+NlPNQtc0XjVbXSqVoqKiEp6ifridmYXa2jpltnrchQTIFQq8aHHnUaVpLNO+VXPf7z/Iw0h/X/gOG4zcvEKjzp+p6Dp3xhgV4Idbt+8i534uhgwZiAB/X/x9+26z75cw0/lPdubKbFfIFZg+LQjhby8BABQVP8TuPV8ov69vtrmu8fpmq2ujbw67oXnxbclcOfL7I77CW1Mn4Z1Vv8PLmloc+eaE2poDlF/fPigjj5AOhFXuvTmz0q0xh93Sa7b0+ojlozs9IR0IpeESQlqhpieEY6jpCeEYanpCOIZy7wmxYJR7TwgxGj3eE8Ix1PSEcAw1PSEcQ01PCMe0a9O3ZTY65bAT0oTu9IRwDDU9IRzTrrn3rYphyEH/x9ZNSL6ahu9jzirHB74xDotC52L1H/4CGxueXjn52uzbsx3fRZ5CYnKq8rXNH65Dxo07iIk9pzzmCz9dxtjR/ujv4426+nqciT2P8xcu6X3MhLQ1nXf60AXBGDF8KD7fG4H1Gz5CTk4uNqxfAycngXLM4rC5OB1zFuHv/BE7PtuH3858C4MHva53MQvmz4aPlyc+2rITH2zaCoFTZ6wKXw4ASEq+hnFjAtTGjx0zEimp6WhslDNuaw6h82cjMup7/H7VWvzr4BEsWjgPgwa+Zrb9EWIq7ZZ7r21f2nLQk1OuoV/f3uj9S9iik0CAYUMGISn5mt45+aaQkpqOvPxCKBQK3M7MQlraDQRNmmiWfRFiSu2We99qXyxy0HPu52Hc2ABEn4rFqFF+KK94jty8AvTp3UuvnHxTKCsrV/v60eMn8PcbbvL9EGJq7Zp7rz6n7hz0pORUTH9rMqJPxWLs6JHKJZT0zcnXF5/P1/Ca+rmxtbWlBRuJVWB8vFfNvVfl5emBJ09KTFqIag768+eVav9rbGwEAKRey0DPHkIM6O+NwYNeR9IvyalstmVLLBbD3sFe+bWtLQ/du7u1GtdH5UkHAHy8PVFSVtZqHCGWhrHpVXPvXxvgA6HQFaEhwSbJvW9JNQc9YOQIdBe6ob+Pl9ov1LysrcWt21lYujgERcUPlSukstmWrfyCIowfGwAHe3vY2dlhzuwZcBIIWo0L8PfFxPFj4ObaTblYY/wl054TQsyh3XLvNWGTg56Ukoo1q1fim2NRem/LxncnTmPliiXYt2c7ZDIZUq9lIDklrdW4Mz/EYeKEMVgZvhQ1NS9x+GikWqY7IZaK0nANsG3LRlxKSETcxYT2LoUQNZR7r4HJamK39B0hFsdOKpMh/J0/mmVyc85tKEusiZC2RL97TwjH6Hwjj7S2YeOW9i6BEIPRnZ4QjqGmJ4RjKPeeEAtGufeEEKPR4z0hHENNTwjHUNMTwjHU9IRwDDU9IRyjs+k3bvgjAieO02vSltuMGxuABfNnGzWvpjkMZcq5CLE2Opv+WvoNFBU/0mvSltv4jRhm9Lya5jCUKecixNrYuvXw2Mw0IHzFEtS8fKmWcy+XyxEWEoy3ly/EW1MnoVMnR9zLvq9xm3dXvY03JozBwNcHYN6cmfAU9UPK1fRW83p7ibBq5XIsW7IAs2dNh5eXCHcysyCVyrTOYWdnh6WLQ7D63RWYNeMtePTri3vZ9yGRaM/s0zbXvj3bUV1dg2KVEM3NH65D165dkXM/V3nsZWXPMHvmdPzv6nDwbHjIznnA6pwQ0hYcHOzB4zXdy+VyORokEuX3JA316OIsNOwDN4vD5mLn7gPIuZ8LkUdffLRpPe5lP0DWvZxWYw9EfA3nrl2QX1DUlG6jRX29GJcSEhHx5WHY8+3x/tp3MePXUxEVHaN1DtWse0mDBG//biFWhS/Hrs/3a90P23q0Wb40FHcy72HL1s9QWfnCoHNCSHsy6I08U+Tct/S0pBSpaRmorKxCadkzpF+/CY9+fbSOb4+sewAor3iOw0cjkZdfiOcqTW+Oc0KIORh0pzdFzn1L/X28MGvGNPTu7Q4ezwZOAgEKCou1jmeTk28OmZn3NL5ujnNCiDkY1PSmyLlX5drNBR/8dS2iomOwd/8hyGQyhMybBR9vL63bmDvrHtCcd6/t2E19TggxlzYJ0ZDL5eDxtIfKeXmJwOPxcPZ8PBSKptt2r149GedQzbpvfjPQmHrY5t0TYu3a5JdzysrKMWzoYLh2c4GLi3Or75eXV4DP58NvxDA4OQnwZuB4+A4bzDiHMVn3muphm3dPiLVrk6aP/TEOjbJG7N75CZYuCmn1/aLiR4iKjsGq8GXYu3srhg8djIiDR3TOceI/3yMx6SpWLF+Iz3Z8jLVrVkHo5mpQPd+dOA2pVIZ9e7Zj7+6tcBIINObdE2LtKPeekA6k3XPv20tHPCZCTIXu9IR0IGzu9PQpO0I4hpqeEI6hpieEY6jpCeEYyr0nxIJR7j0hxGj0eE8Ix1DTE8Ix1PSEcAw1PSEcQ01PCMdYbdObIkufEC6y2qY3RZY+IVykMy6Lb2eHsNA5mDBuNDp17oSCgiIc/TZKLQc/7mICxozyx4D+3hCLGxCfcAXRp2J17tzbS4QF82fD20sEHs8Gd+5m4+Cho6irq1fue2HoXIwbG4DOnTvhydNS/GPHP7EwbB4mjh8DAAj+7a9xPeMWdn1+AJPenAgAKCp+aPbaCbFWOps+dEEwRgwfis/3RqDyRRWC3pyIDevXYO2fP8TLl7UADM98Z8q6B4Cw0Dnw9xuOiC+P4Fl5BTz69cGLqmrW2fXmrJ0Qa8X4eN+cLX/0WBSyc3JRWvoMx0+cQnlFJSYHBSrHGZr5zpR1b2/Px9TJb+LosRO4eSsTjx8/RcrVdNYHZu7aCbFWjHf6Hj2EsLOzQ2HRQ7XXCwqK0LePu/JrQzPfmbLuu3dv2ndefhHrg2nL2gmxVoxNb2er+dvNi0o0MyTzXVfWPc9Ge2Q2G+asnRBrxvh4X1JSColECi9PD7XXvTw98ORJiVE7Vs26l8lkANSz7svKytHYKG+172a6svTNWTsh1ozxTt8gkeBi/GUsWTQftbV1eF5ZicmTAiEUuuGn+CtG7Vg16/7+gzyM9PeF77DByM0rVO770uVELF0UAqlUioqKSniK+uF2ZhZqa+uU2fVxFxIgVyjwosUqN+asnRBrpvPd++ORJyGVSLF2zSoIBJ1RWFiMbTv2oLqmxqgdq2bd29vzkXHjDiIOHlF7k+3b49FYsmg+1qxeCQcHezx6/BR37jatJRf7YxzWrF6J3Ts/Qfr1W9i7/8s2q50Qa0ZpuIR0IO2ee0/584RYHrrTE9KBUO49IaQVanpCOIaanhCOoaYnhGMo954QC0a594QQo9HjPSEcQ01PCMdQ0xPCMdT0hHAM55t+25aNmKLyyT5COjqLbnpN2faaXiOEsGfRTa8p217Ta4QQ9iw29/7dVW+3yravqxdrzLs3ND//RVW1Wj22tjys+9N7kDRIsPufEVAo6AOIpOOx2Nx7bdn2ml4zND+/pZW/X4pOjo747PMD1PDEKtXW1UPQuZPyvzVhbPrm7PjP9nyB7JxcAMDxE6fg6zsUk4MC8X3MWQCvsuMBqGXH62r6pyWleFpSqvxaNfdeH0zzNOfn79n3L9y8lQkAePz4qdr2CoUCC+bPxoD+3vjbx59CIqGEXGKdGhsb1T5Dr4nF5t7rw9j8fN/hQxAwcgR2fb5f+fRCSEdlsbn3ppqHTX6+SNQPySlpCAuZgzuZ9+hOTzo0i829BzRn27d8zdj8fAA4E3se/zp0BDY8GywKnWfUcRFi6RibXjU7zszB0AAAAVdJREFU/rUBPhAKXREaEmzy3HsnJwHeDBwP32GD1cY0Z9u7dnOBi4uzxtd0zaOanz90yEC49+qJcWMCWn2cWCKRYv8XX2Ny0BsYMXyoUcdGiCWzdevhsZlpwN2sbDh37Yqw0DmYOWMa+Hw7/H/EV8o3zqYEBaKwqFj5T3gAMGHcaFRVVeNulvY38qqqqiGXyxEWEoxZM6ZBLlfg+5iz8PYSITE5FQDw6PETjA7wQ+iCYHQXuuFaWkar1+IuJuicJ+vefbi798S84JmYPm0SevXqicTkVEgkUkwJCkRBQRHyC4pQ+aIKgA1CQ2bjSuJVNEgkxp1dQiyIpKEeXZyFlIZLCFcoc+/FddU4eqT16jAA8LfNf0dOzn2Dd8Ln8802NyHEMDYjJ8ymOz0hHGLRv3tPCDE9anpCOIaanhCOoaYnhGNs3PsNpDfyCOEQOwdH3R+MIYR0HP8FBN+jastX6f8AAAAASUVORK5CYII=;" vertex="1" parent="ZNyAp8tG6LV2TRc6ALxz-7">
          <mxGeometry y="625.22" width="220" height="605.22" as="geometry" />
        </mxCell>
        <mxCell id="ZNyAp8tG6LV2TRc6ALxz-12" value="" style="shape=image;verticalLabelPosition=bottom;labelBackgroundColor=default;verticalAlign=top;aspect=fixed;imageAspect=0;image=data:image/png,iVBORw0KGgoAAAANSUhEUgAAAP0AAAGoCAYAAACNAeMMAAAABHNCSVQICAgIfAhkiAAAABl0RVh0U29mdHdhcmUAZ25vbWUtc2NyZWVuc2hvdO8Dvz4AAAApdEVYdENyZWF0aW9uIFRpbWUAVGh1IDEyIE9jdCAyMDIzIDA3OjQxOjMxIEFN0wvzjQAAIABJREFUeJzt3Xl4jXf+//FnTs7Jbk2QBIkE1da+r9WilNpSW1BqGEYXXz+tYWqqnbYyaOk2TFujyyhjrSrVllCiiMa+E1sWguwikpyc9fdH5MiJnCWbLOf9uC7X1ZP7vj/3+3OfvnPfOcvrdnqsVU8jQohqoWYNL5RKJQA6nY67mfdMyzIzUvEPaIGioooTQlQMaXohHIwSwNPTo6LrEEIUISsru8zHVJbXwEKIykku74VwMNL0QjgYaXohHIw0vRAORpq+GlsUNp8B/Z9xmP0K+0jTFzB/3uv07tXd9Lh7t06MGTW8Ait6tBxtvo5Kmr6Aw0dPEBd/w/S4fbvWFVjNo+do83VUSlsrqJRKxoa+QM/uXXD3cCcmJo7V/9vE1WuxQN6lXPjuCLp27kDzZsGo1bnsidjP5i3bbe58Udh81q7fTLcuHenRowvbftrJlq0/o1QqeXHcSHr26AJGOHX6HKvWbODevSxTTeNCR9C9Wyc8PNy5eSuRD5b8izsZdy2OufyzxazfsIUDkVGm/b/79hyOnzjDtu07AOjzdC8A4uKv88r0yfTq0RWAkGGDOHb8FB99+oXV42SpJnuO4e7f9tGzR1eaBDYmKzubTZu3oVarCR0VQu3atbiRcJMvV67i1q1E0za7fttHty4daNY0mOycHH7avpOdu/ZarNHacbU0X1vPhaenB1OnTKBd21bkqnPZuWsvOp3O5nMvKo7Npg8dE0K7Nq34dNkK0u9k0PfpXsybO5NZf33b9MS/OHYESz/5guhLVwgMaMR778zlwsXLnL8QbbOASRNDOXP2AmELPyY9/Q4AY0YNp2lQE94LW4omV8PkP41j+tRJfPTp5wCMDX2BDu3bsOKr70hOSSWgcUPuZNy1OmZxfbHiW2rVrMG1mDg2fr/V5vrWarLnGIaODmHxkn8RExvPoOf6MW3KRK5ei2HBwo/IvJfFay9PYeKLo/lw6XLTPkNHDefDj5ZzLSaO1i2fYPYbrxJ/PYELFy8VWaO142ppvraei5deHEOjhv68H7aUHLWakSFDCAxoxP6DJTrs4hGwenmvUqkY8OwzrF67iYvRV0hMTGbdxi2kpKbTr29v03p/RB3jYvRljEYjsXHXuXwlhqbBgXYVkJKaxqrVG7h6LZa09DumfX63diMJCbdITkll0/fb6NihDe7ubri4qOjf72lWr93IyVNnSUi4xaE/jlods7xZq8neY3go6ijXYuIwGo38vv8Qzs4KftmxmzsZd9Hr9Rw8FEWTwACz/R6KOsrVa7EYjUZOnz3PkSMn6NunV5E12jquJdnGzc2VHt27sHb9ZmJi47l9O4mv/7sWg0G+uFmZWT3T16/vg1KpJDbuutnPY2LiaNTQz/T4dmKS2fLc3Fzc3d3tKuDs2Qvm+6znjYuLirmzZ8D9/3ecnJwA8PHxxmAwoFQquXotzu4xy1u9ej4Wa7L3GCYnp5j+O1ejASAlJe3Bz3K1uLu5mo2RlJRi9vhGwk06tG9TZI22juv16wnF3gajEWdnBTGx8aZt1Go1qWlpD40lKg+rTa90Lnpx/hOfT6PVlriAwts6OeVdfHywZBnpdzLMlmVk3MXfr0Gxx7REpVLZWaV1ikLHo6DSHEO93mB1vyqV+djOzs6m5nx4f9aPa0m28ff3zXtgNN+pTqe3WreoWFYv72/fTkSj0RLUxPyyMqhJADdv3i6XghKTktHqdNSv50NaWrrZP71eT1JSCnq94aGabFGr1bi4upgeOzsrqFfP2+o2BoMBhcJyQ+ezVlN5HsOGBa4UAJoGN+F2UlKR69o6rvDwfG1tk5ycisFgIKBxI9M2KqWSej51SzUvUb6snulzNRp279nHhPGjyMrKJi09nX59euPj481ve/aXS0FarZYdO/cwYfxotDodcXHXqVWrJsHBgYTviiBXo2HvvgNMHD8arVZLamo6TQIbc/rseavfFrwWE0ePbp04eDAKvcFAyLBBeHl6Wq0lKSmF1q2eJHxXBAajkTuFznb5bNVUXsewU4e29OrRlQsXL9G+XWvatmnJgoUfFbmureNqab7WtlGr1fwRdYzx40aSsSKTHHUOQwc/Z0puEZWTzWdn3YYf0Gq0zJo5HU9PD2Jj41m05DPuZmaWW1Ebv98KRiNTJo2jRg0vMu5mEnnosGn5/9ZtZsL4Ucx8bRquri7cSLjFmXPW/45fv/FHpk2ZwPLPFqPT6Yg6fJzIQ0esbrP9l3BmvjaNT5Yu4OixUyz7/CuL61qrqbyO4U8/h9OrZ1emTZ1IZuY9Vq3ewMXoKxbXt3Vci5qvrW1WrdnA1CkTeO+duajVan4N38ORYydLNS9RvpwkI69qWhQ2n70RBwjfHVHRpYhKxJ6MPKVKqeSL5UuKHGDx0n9x5UpMiQsoz7EftUo5F9svNwjxEKVWp2Pqy6+Xy+DlOfajVp3mIhybfPZeCAcjL7NWUfPmh1V0CaKKkjO9EA5Gml4IByO590JUYpJ7L4QoNbm8F8LBSNML4WCk6YVwMNL0QjgYaXohHIw0fQGOnnsvHIM0fQGOnnsvHIPk3pdR7n1J59L3mV4MHfwcdb3rkHk3k4ORh1m3cYtpTFvZ9mXx/FirwVb9ouqR3HsLipt7X5K5+Pk1YNJLY1n84b+4fiMB3wb1H/p0pK1s+9I+P7ZqsPVciKpHcu/LULHnolLhBGRn53DvXhZXrsZw6vQ5szGtZduXxfNjrYaSZOWLyk9y78tQcecSF3+DX3f8xvvv/o1Tp86yI3wP5y+Y353GWrZ9WTw/1mooSVa+qPwk974MFXcuAOs2biF8dwQD+vdhzuwZhO+KYN2GHwrUaDnbvqyeH0s1lCQrX1R+kntvhb2595bYkzUPkJqWzroNP7Dko+U8P7CfWYS0tWz7snx+iqrB3vpF1SK591bYm3tf0rk0bOhHYEAjLkZfQZOrocVjzci4m2l211dr2fZl8fzYqsFWVr6oeiT33ori5N6XZC5Gg5GBA/oydfIEIO+twk8++9Jse1vZ9qV9fmzVYOu5EFWP5N5XYpJtL4pLcu/LUIXNRbLtRRmT3Hs7Vae5lJTRYP0uuqLiGQx6DAYn038XfM6MRgMGg14isIV99HodRoO8Yl/Z6XRaMOY1uk6vR69/8HatwaBHp9XI3/TCNr1eh16nxWiUM31l5+nhgbPSGQC9Tk9W9oN3tLLu3aGebxM50wvr8hveoNdhkDN9pafTaTAa7ze9Xo9eV+BMr9ej12qk6YVlRoMBo0Fv+lvweszZii5JlAHJvRcWGQx6dDolep0WnS7v7JGYlFzBVTkYY/H++i78EWxjge2NRiMKhbPk3gvLjAYDer3WdImf90N5Caiqk+QcIRyMNL0QDkaaXggHI00vhIORphfCwUjTFyC598IRSNMXILn3oqTmvTmb33aHmx7/vm8v3636pgIrsszZu37Au9ZWUN3PPX91+mRGjxpOuzYtuX7jpinieVHYfAwGA2NHhzB50jie698Hd3c3U0SzNYvC5pOUlMzwIQP5v9emonBScDH6Mkqlkokvjua1V6YwdPBzBDRuxIWLl9BotKaaJowbxct/mcSYUcPo2qUjx46dRJ2ba3HM5Z8t5u7dTOILhDm++/YcatasSfSlvFCKqVMmkHnvHlevxfLK9Mk81bMrj7dozsgXhtAksPFDqbvVntGI0WjI+2cw8MasV8nKkrz7ouRk5+Dr50/t2nVQKpVs2rQeV1c3mj/WAhcXF9sDlJHCH855eLlCcu8tKUnuvTCn1Wr59puV7Iv4jaysLJo1f4y/TH+Nxx5rAcCM1/7C0KEhHDjwOxcvnMPN3Z1Bg4Yw/sWXbI4947W/8Oc/T2f//ggi9v7G6DHjGDd+Ijqdjq9WfknE3t3g5ESnjp2Z/vIMatSsWaCm/7Bv316ys7Jo2KgxC8IWU6dOXYtjvjQhlMlTptGn77Om/c+Z/f/o0rUbo8eMA2Dnzl/o2/dZWrZsxUdLF7N3z24ANn+/gW7de/L2O++X+Vx27PiZzZs2kJycRK1atXmmTz+m/PkveWO+Oo3BQ4azf38E0Rcv4OHhyajRYxkeMtJ60+fnnn/82ZemiKZ1G7fQtm0r+vXtzdZtvwIPctUBs1x1e5o+Pyu+8D7DFn9MQsItADZ9v41/vv933N3d0Ov19O/3NJ8t/w8nT+V9Fjx/PUtjioqx6r9fcezoYWa9Phd3Dw/2RfzGW/PmsGLlt9StmxdK+tXKL3nz728TPPtvXLlymX8ueIemTZvTtVt3G6PDv//9GR06dOTtf4Th4eFBVlYW69et4fKli7zz7j8BWL3qG5Z8uJB331+IQqHg229WEvXHIaa/PINaNWsRFx+HwWDEcP9750WNCXA38y5qtRo3twd5/9nZOWRlZeF5P2tRo9Wi1WqZ/dc3SUlJJiCgCSNGjgHgzp071K5du8zmcvNmAl9+voy331mAt48Pt27eJCcnh8zMTGrUqAHAf79dyVvz36Nho8acPHmczz5ZSsOGjST3XpQPjUbDT9t+ZPaceQQFN6VWrVo8/vgTnD17hh+3bOZPk6cC0LVbdxo3DsTLy4vOnbvQ4vEnuHDhHB06drIZUe7t7UPo2AmoVCrc3d3R6XRs/2krb//jfXx9/ahZsyZ/mjKNN2a9RmJiIt7edfl5+1Zef2MuTz7Zipo1a9KyVWt0Oh0KhaLIMfN/XlxKpQql0hlPT0+8vLxsrl/cuWg1GoxGIwajkYYNGxEQEPhQQnHXbj3x9fOnRo0a9O37LIf/OMQvv/wkufeifNy+fQudTodvg7z/YfOPdYsWj3PzZgI5OTkANGjgh5ubm2m5u7sHGo0GjUZj8/lp1aoNzs7O1Lx/uXv79i00mlwWL1yQ16xOecGfADdvJqDR5KLT6fD3b0SNGjVMf2sXjBwvPOajUty5dOjQkWHDRxD2/jt07NSZF14YRes2bc16s379Bri6upqOY5OgIA5FHrTe9AVz1U+cPGP6eVCTAP44fKzMJw7mWfH5N2EsqGDufcGabKmI3HtHpivwPe6CTWU0GlE4OZkitlUuqrwbeBTg5GT+7TBLVC4qs18M+Zfob/z1b9SpXdds3Ro1a5KT8+CLZZZ+oRQe05JcTa7NdYqjuHPR6/X8eep0+j07gO0/beUf78zj+cHDmPaXV0zr6XRas2Ov1+tRKGy8kCe596XLvXdkDRs2xsXFhdjYGJo1b276+ZXLl+jcpZvZurZecbam4LZ+fv6oVCqSk5Lo2LHzQ5fmOp0OZ2fnh2qyNiaAu4cHmlyN6bFerycp0frNRJwVClPj2qs4c8n/RdmkSRCvvPp/dO7clX+G/YNRo8dSp04dABISbpj98rx0KZoGvn6Se29NWeTeOypXV1eeHzyMDevX0KBBA/z8/fn1l+0kJSXyzDPmd/EpKy4uLgwbPoL169ZQq1YtWjz+BHfupHMpOpqhw0JwdnZmwHPPs37daurUrYO/f0OuXr1Chw4d8fKqYXHc5s0fIyoqkv4DBqJUKlm/bg2ZmZlWk4R8/fw4c/o0aWmpaDS5phcuy2ou8fFxxFy7SstWrXF1dSMm5iq1a9dGc/9vfYBjR48Qsfc3unTtzpHDf3Ds6GHe/scC202v1xvY8P1WNlh422re/LCHfrbk43/bNbGits3bp551G7eY7pFeWG5uLl9/+z++/vZ/do+ZlpbOB0uXFauelNQ03nn/A6vbCMvy3z76YHEY2dlZNG3anL+/9S4enp52v9BbXC9NmoJWq2XFl8vJzLxH7dq16f30M2RnZ+Ph4cHUaS/zuUbD0g8XkavJJSAgkCeeaImHh+Wrvj9NnsrHSz/gL1NfQqVyoddTT9OzV2+L6wOMHBnKxQvnmTljOt2692Tu394q9ouC1uaicHLixx8386/PPgYguGlT/jrn7ygUCtMVw5Chw/n9972s/M/n1KxZiyl/nk5QUDOcWrZ72ii596IohUM0rsecJbHQOzX2uHfvHjk5ORgMBlQqFTVq1DD9/Zqamoq7uzseHg/Sm+7cuYNSqbT5qndR2+bLzMxErVbff11GgZubm+mtLKPRaFpuNBpRqVTUrl0bhUJhcUy9Xk9mZiYajQYnJydcXV0xGg0olSrTW3aFt9Xr9WRkZKDVanFzc6VWLctv2ZVkLjqdjrt37z54faTAsZ3x6jSe6v0Mg4cMR6vVkpubi5OTEzVq1JQ0XGGZrabXarW8OG5kkdu+H7aYxx9/ssT7Ls+xH7VHOZf8s/yMV6fR66lnGDosxPSLxCwuS4iSUKlUbNi0leTkonPztFptid8WLc+xH7XKNhdpelEqTk5O1K9fv8qN/ahVprlI0wtRDS3/fCWpqalFLpOmF6Ka8vb2LvJDTpJ7LywqKveeUnyQRpRAOUSOS+69sEhy76snubwXxdKgQeV4MUqUnDS9sMhJocDJ6IyTwYBC4UzjoFYVXZKwwcPD3fS5fL1eT3Z2jmlZdtZdfOo3lqYX1jkX+Hq1Uwm/Wy4eHaXSxXSraicnPc5KnWmZwtkZZ5WLNL2wLb/xjXKr6kpPqVKhdM5veoXZL22FwhmlUpr+IYvC5rN33wHCd0VUdCmVirOzEqOTnOkru7zEnvtt7aTD2fnBJ/0UCmeUcqYXxSGX95WfQuGMQuF8/7+NZs+Zk5Mib3lFFSeEqBg2z/QqpZKxoS/Qs3sX3D3ciYmJY/X/NpmirBaFzSd8dwRdO3egebNg1Opc9kTsZ/OW7TZ37u7uxtTJE+jQoQ3qHDU7wvfg7+fL1ZhY0+X18s8Ws37DFg5ERpm2e/ftORw/cYZt23cAEBwUyJhRwwkOCkShcOLMuYus/Hq16ZXLRWHzWbt+M926dKRHjy5s+2knW7b+jKenB1OnTKBd21bkqnPZuWuv6WuKQlRXFZp7P3H8aAICGhG28GPUubmMGD6YTh3bcjUmtliTyMlRszfiACu+WoWLyoU3Zr3C4EH92bR5m2mdorLwX3pxDI0a+vN+2FJy1GpGhgwhMKAR+w8Wa/dCVClWL+/zM+hXr93ExegrJCYms27jFlJS0+nX90FySH7uvdFoNMu9t8bV1ZWnenVj7frNXL0WS0LCLVZ+swZDCT7xdet2IlFHjpOenkFiUjJHj50koHFDs3Xys/CvXoslLf0Obm6u9OjehbXrNxMTG8/t20l8/d+1GAzyiTNRvVVY7n39et44OzsTExtv+plarSYlJc3u4vM1axrE0MED8Pf3Q6FwwsvT02xceDgLv56PN87Oiof2n5pW/P0LUZVUXO79/TEKfwtIa8dYBQMH6tapzVtvzmLT5m0s+/xrdDodo0cOpWlwkPUa8+dQaP86nbwXLao3q5f3BXPvCwpqEsDNm9YjgG1JTk7FYDCYXYY7OztTz8c8NdRWXn1QUCAKhYJfd+4xvQjn62v7hhgP9t/I9DOVUkk9n7pWthKi6rPa9AVz7x9r3hQfn7qEjg4pk9x7tVpN5B9HGBc6gsaN/PHxrsuE8aNwc3M1Wy8/r97VxQWlUskLwweb5dWnpKSiUqlo3641Xl6ePN27B21b284cU6vV/BF1jPHjRhIY0Jj69X14aWJouUQzC1GZVGju/XerNzJ1ygQWvDuP3Ny8t8wKv35gK68+Lv4GmzZvY/rUl3BxUXH8xBlWrPzO7IVGS1at2cDUKRN47525qNVqfg3fw5FjJ0s9LyEqs0qXhvvBwnfYuWsve/aWzx10hKjOatbwMl2t6nQ67mbeMy3LzEjFP6AFyvLMpi/u2G5ubtSv70NKStHZXkKI0lNqdTqmvvx6uQxua+znB/YjNTWd2PjrYITQ0SFkZWWb7nUvhCh7FfqqVXZ2DqNGDMXHpy56vZ5rMfF8uHQZGk3Jb30thLCuQps+4vdIIn6PrMgShHA48i07IRyMNL0QDkZy74WoxMojnl5y74VwMHJ5L4SDkaYXwsFI0wvhYKTphXAwFdr0i8LmM6D/M1V+H0JUJXKmF8LBSNML4WAqNPcewNPDk9mzXqV1qye4l5XFnr37+eHHnx8UqFTy4riR9OzRBYxw6vQ5Vq3ZYIrftpV5L4QwZ/NMXzD3fu6894iOvsK8uTPx8noQWfXi2BH8uO1Xpr78Oks+Xs6wIc/x5BMt7Cpg8KB+HD56nDfmvM23q9bxwvDBtHzywbZjRg2naVAT3gtbylvvLMTTy4PpUyeZludn3v/trfd5651F+Pv5MnhQ/2IcAiEcS4Xl3uc7dvw0+w/8QVr6HY4dP8XlK9cIDm5itv/v1m4kIeEWySmpbPp+Gx07tMHd3Q2wL/NeCPFAheXe57uRcNPscU5ODu5ueQ1dv543Li4q5s6eAfdDvfLjt318vLl+PcGuzHshxAMVl3t/X65GY3GZ0/1bI3+wZBnpdzLMlmVk3LU7814I8UCF5d7bIzEpGa1OR/16PqSlpZv90+v1Jc68F8KRWT3TF8y9z8rKJi09nX59epdJ7r09tFotO3buYcL40Wh1OuLirlOrVk2CgwMJ3xVhlnl/6fJVOnZoS9vWT3Llamy51yZEVVWhuff22Pj9VjAamTJpHDVqeJFxN5PIQ4eB0mXeC+GoKl3uvRCi5Kpc7r0QovzJmV6IasSeM7189l4IByNNL4SDkaYXwsFI0wvhYCT3XohKTHLvhRClJpf3QjgYaXohHIw0vRAORppeCAdTLZtesu6FsKxaNr0QwjJpeiEcTIXm3tvKtLdnbE9PD6ZOmUC7tq3IVeeyc9deU3SWEOJhFZp7byvT3p6xX3pxDI0a+vN+2FLeDVuCv58vgQGNinEIhHAsFZZ7b0+mva2x3dxc6dG9C2vXbyYmNp7bt5P4+r9rMRgkIkAISyos996eTHtbY9fz8cbZWWGWc69Wq0lNS7O6byEcWYXl3tvKtLdr7Pw6jOZndp1OX+x6hHAUFZZ7byvT3h7JyakYDAYCGj/4G16lVFLPp26pahOiOquw3Htbmfb2UKvV/BF1jPHjRpKxIpMcdQ5DBz9nyggTQjysQnPvrWXa22vVmg1MnTKB996Zi1qt5tfwPRw5drLUtQlRXUkarhDViOTeCyEeImd6IaoRyb0XQjxEml4IByNNL4SDkaYXwsFI7r0QlZjk3gshSk0+rypENeHk5ERgQCP8/BoAcOtWImfPR2Ms9IU0+ZteiGqiSWBjGjfyx9XFBVcXFxo38qdJYOOH1pOmF6KaaNCgnl0/k6YXwsE4TNNLFr4Qeap003fv1okxo4Y73L6FKI0q3fTt27V2yH0LURo237ILDgpkzKjhBAcFolA4cebcRVZ+vZrs7Bwg7+uz40JH0L1bJzw83Ll5K5EPlvyLOxl3rS6zJ/N+12/76NalA82aBpOdk8NP23eyc9deAF6ZPplePboCEDJsEMeOn+KjT7+we+K28vytLS/tvoWoSDabPidHzd6IA6z4ahUuKhfemPUKgwf1Z9PmbQCMDX2BDu3bsOKr70hOSSWgcUPu3A+2tLasYOa9JlfD5D+NY/rUSXz06eemfYeOGs6HHy3nWkwcrVs+wew3XiX+egIXLl7iixXfUqtmDa7FxOUl8BRTwTz/9DsZ9H26F/PmzmTWX9/m3r0sq8tLu28hKpLNy/tbtxOJOnKc9PQMEpOSOXrsJAGNGwLg4qKif7+nWb12IydPnSUh4RaH/jhqc5m9mfeHoo5y9VosRqOR02fPc+TICfr26VXqSdvK87c371+Iqsjmmb5Z0yCGDh6Av78fCoUTXp6eppz5evXycvGvXot7aDtry+zNvE9KSjHb7kbCTTq0b1O8GRbBVp6/vXn/QlRFVpu+bp3avPXmLDZt3sayz79Gp9MxeuRQmgYHAaAolH9fkLVl9mbeq1Tm5Tk7O5t+SZSGrTx/e/P+haiKrF7eBwUFolAo+HXnHtNNIX19G5iWJyWloNcbHsrFt7XM3sz7hoXOqk2Dm3A76cEdbwwGAwpF8RvRVp6/PXn/Jd23EBXNatOnpKSiUqlo3641Xl6ePN27B21bP2lanqvRsHffASaOH02rlo/j59uA7l074enpYXVZwcz7Th3bUc/Hm2ZNgx768EynDm3p1aMr3nXr8Gzf3rRt05I9ex/k7SclpdC61ZPUrVOb2rVr2T3pgnn+jzVvio9PXUJHh5jy/G0tL82+hahozt71A961tDAj4y4Gg4Gxo0MYOngABoORrdt+JTgokAORUQCcv3AJP78GjAwZwsABffD1bcCByCg0Gq3VZRcuXqKGlychwwYxbMhztG/XmtTUNM6cvQDAs317szfiAB3at2HCi6MJDgpk46atRB05bqrvRsJNunRqT+iYEOr5eHO4wLLCnu3bm9i4eNNbcufOX6RWzZqMDX2BIYMHoFIp+feKb7h1O9Gu5cXZtxCPQqNG/ri7uaFQ5J3LjUYjOepcbiTcAkCTm0ONWj6VNw13Udh89kYcIHx3REWXIkSV0K1rR+rWrpX32heg1+tJu5PBH1HHgEeUe19qxfiTuVLPQ4hKRKnV6Zj68usVXUepVZd5CFHeqvRn74UQxVdp47LmzQ+r6BKEqJbkTC+Eg5GmF8LBSO69EJWY5N4LIUpNLu+FcDDS9EI4GGl6IRyMNL0QDqZETV+dMuSr01yEsEeFn+mrW358dZuPqH4qvOmrW358dZuPqH5sfvbe09ODqVMm0K5tK3LVuezctdcUnWUaxEaGfd9nejF08HPU9a5D5t1MDkYeZt3GLRbz4xeFzWft+s1069KRHj26sO2nnWzZ+rPVLPqFC97i2PFTbN6y3VRXz+5dmDxpHK/MmIO2UM2WSB6+qO5sNv1LL46hUUN/3g9bSo5azciQIQQGNGL/wQfrWMuw9/NrwKSXxrL4w39x/UYCvg3qmz4BaC0/ftLEUM6cvUDYwo9JT78DWM+qP3Awij7P9DJr+s6d2nP0+Em7G97WPiQPX1QHVi/v3dxc6dG9C2vXbyYmNp7bt5P4+r9rMRhS5Tq9AAAgAElEQVQehO3YyrB3UalwArKzc7h3L4srV2M4dfqczcJSUtNYtXoDV6/FkpZ+x2YWfeShw/j51jfL5G/btqUpa98ekocvHIHVM309H2+cnRWmnHsAtVpNalqa6bGtDPu4+Bv8uuM33n/3b5w6dZYd4Xs4f+GSzcLO3s/KM+3HRhb9nYy7nDsfTfdunYm/nkDbNq3QarScPWc+jjWShy8cgfXL+/ycd6N5jJ5Opy+wiu0M+3UbtxC+O4IB/fswZ/YMwndFsG7DD1Z3rdFqzQu1I4v+QGQUI0OGsGHTj3Tp1J7DR46j1xus7qc4+5A8fFEdWL28T05OxWAwENC4kelnKqWSej51TY/tzbBPTUtn3YYfWPLRcp4f2A+lMq+B7M2PtyeL/sjRE9SqXZMmgY1p17YVkcW4tLdnH5KHL6oDq2d6tVrNH1HHGD9uJBkrMslR5zB08HOmhgXMMuy1Oh1xcdepVasmwcGBhO+KoGFDPwIDGnEx+gqaXA0tHmtGxt1M0zsA+fnx4bsiMBiN3Cl0tZCvYBZ9VlY2aenp9OvT2yyLXq3O5eixk4wIGYxWmxezXRy29mFPDfbOR4iKYjX3HuBC9GVaPNaMsWNe4Kme3Th99jxZWdmkpqaZ3saylmFfw8uLsWNeYNSIoQwa2A83N1f+89V3plfki8qPL5xRn89WFj2AVqNl9KhhRPweadcLhpKHL6qLKp97X1Kenh6s/OJj3l2whEuXr1Z0OUI8MtUj974EOnVsR1JSCpevXAMkD1+IwqpN7n2NGl7UqV2LkSFD+OnnnRjvv+NQXeYnRFmptBHYxTXnjddo6O/Hvt8j2b3n94ouR4hKq9o0/TvvfVDRJQhRJVT4t+yEEI+WNL0QDkZy74WoxCT3XghRanJ5L4SDkaYXwsFI0wvhYKTphXAwdjV9eWfDLwqbz7PFjJt6lHn1ko0vqhOHPtMXlVEvufWiuqvaTV/KLwUXlVEvufWiujN99l6lVDIudATdu3XCw8Odm7cS+WDJv7hzP+fO08OT2bNepXWrJ7iXlcWevfv54cefHwxkI/ve1vj5nJ0VzJk9A02uhk/+tcL0bbmieHp68uacmTzxeHMy72WxbfsOwndFmJYHBwUyZtRwgoMCUSicOHPuIiu/Xk12dk6RGfXZOWq7cuttzVWIyszU9GNDX6BD+zas+Oo7klNSCWjc0KwhBw/qx6o1G/l21VqCggKZ9X/Tib50hXPnowHr2ff2jJ9v2p8n4u7mxseffmG14QGeH9iPr75Zw3++Xk3LJx7jL1NfIj4+gYvRlwHIyVGzN+IAK75ahYvKhTdmvcLgQf3ZtHmbxYx6e3Lrbc1ViMpMAXkZ8f37Pc3qtRs5eeosCQm3HsqLP3b8NPsP/EFa+h2OHT/F5SvXCA5uAtiRfW/H+EajkTGjhtO8WTBLPv43Go15Gm5Rjhw9QdSR46SlpbP/YBRHjp6kX5+nTMtv3U4k6shx0tMzSExK5uixk6Zc/JKyNVchKjslQL16eXnuV6/FWVzxRsJNs8c5OTm4u+X9T24r+95gMNgcv22blnTq2I6PPv3c7svkgtl4ANdvJJj9Td6saRBDBw/A398PhcIJL09Pswz/krA11+vXE0o1vhDlTQmgsCO3PVejsbjMVva9v18Dm+MHBjYm8tARxo5+gTNnL9h1puehup1MjVi3Tm3eenMWmzZvY9nnX6PT6Rg9cihNg4Nsj2t1l7Zz/oWozBSQF9us1xseynO3l63se3vG/2n7Tv7z9Xc4KZwYHzrSrv029PM1exwQ0JDEpGQAgoICUSgU/Lpzjylu29fX/JdPURn1tnLr7c35F6KyUkDeWXzvvgNMHD+aVi0fx8+3Ad27drL7K7cFs+87dWxHPR9vmjUNMn2gxd7xNRotn3/5Lf36PkW7Nq1s7rdzp/Z079qJunVq81SvbnTq0Jbf9uZFZaWkpKJSqWjfrjVeXp483bsHbVs/abZ9fkZ93Tq1qV27lsWfFWeuQlR2plfv/7duMxPGj2Lma9NwdXXhRsItzhTjPnAbv98KRiNTJo2jRg0vMu5mEnnosGm5veNfi4njhx9/Yfq0l/jb3xdwNzPT4j4/X/ENz/Xvw8vT/8S9zCy+W7ORi9FXAIiLv8GmzduYPvUlXFxUHD9xhhUrvzO70eT2X8KZ+do0Plm6gKPHTrHs86+K/Flx5ypEZVbtcu+FcFR2595XZJHWSF69EOWj0ja95NULUT6q9mfvhRDFJk0vhIORphfCwUjTC+FgJPdeiEpMcu+FEKUml/dCOBhpeiEcjDS9EA5Gml4IByNNX4hk3Ivq7pE1fVnnyVeFfPr5816nd6/uFV2GEGYeWdOXdZ58VcinP3z0BHHxNyq6DCHM2JV7r1IqGRv6Aj27d8Hdw52YmDhW/28TV6/FAnmXxOG7I+jauQPNmwWjVueyJ2I/m7dsBygyY/6jT7+wmh/fvl1rZs6Yxpt/X2CKwJo961WMRgM56twix1v+2WLWb9jCgcgo0wTffXsOx0+cYdv2HYD1LPzisGdffZ7uBUBc/PVijS1EebIr9z50TAjt2rTi02UrSL+TQd+nezFv7kxm/fVtU3Lti2NHsPSTL4i+dIXAgEa8985cLly8zPkL0RYz5q3lx584eYbDR04wdcoE/rn4E7p0bk+LFk2Z8+Z7ZGTctSufvijWsvCFcAQ2c+/zc95Xr93ExegrJCYms27jFlJS082ip/6IOsbF6MsYjUZi465z+UoMTYMDLe7Ynvz479ZsoKG/L88P7MekCWNZtXpDqRNnyyMLX4iqxGbuff36ecti48wvUWNi4mjU0M/0+HZiktny3Nxc3N3dLe7Ynvz4rKxsvv7v/5g961WOnzjNwcjS59CVRxa+EFWJzdx7pXPR4TpOhbbRaO3IqTfb3r78eB9vb/R6PXXq1MbZWYFebyjWflQqlem/yysLv6h9CVFZ2cy9v307EY1G+9CyoCYB3Lx52+4dFc6Ttyc/vn59H8aOCeHjz75E6ezMsCEDLY4HoFarcXF1MT12dlZQr573g5rtyMK3l619CVFZ2cy9z9Vo2L1nHxPGj+Kx5k3x8alL6OgQfHy8+W3Pfrt3VDhP3lZ+vJOTE3/580scijrGiZNnWPnNGkKGDaLx/b+/i8qnvxYTR49unXB1cUGpVPLC8MF4eXqaarAnC99etvYlRGXl7F0/4F2A8xcu4efXgJEhQxg4oA++vg04EBmFRqPl3PmL1KpZk7GhLzBk8ABUKiX/XvGN6V5yz/btTWxcvOktPICe3buQkXHXdFfbGwk36dKpPaFjQqjn483hI8e5cPESNbw8CRk2iGFDnqN9u9akpqZx5uwFBjz7DJ07tWPpJ1+g1WpJS79DrVo1ea5/H/b9fpDr1xMeGu/qtTjatW3FhPGjGTigD8nJqSQmJZNxN5PoS1fIyLiLwWBg7OgQhg4egMFgZOu2XwkOCjS99VbUXIpia1/FGUuIstCokT/ubm4oFHl/OhuNRnLUudxIuAWAJjeHGrV8JPdeiOqiyufeVzTJ3RfVlTS9BZK7L6or+ZadEA5Gml4IByNNL4SDkaYXwsFI7r0QlZjk3gshSk0u74VwMNL0QjgYaXohHIw0vRAOpso2veTTlz05po6hyjZ9WaoKGfpClBVpeqpGhr4QZcXmt+xKm3lvTd9nejF08HPU9a5D5t1MDkYeZt3GLXmFWcnEL3IiNta3lOs/buzIIjP07Zn32vWb6dalIz16dGHbTzvZsvVni3NdFDaf3b/to2ePrjQJbExWdjabNm9DrVYTOiqE2rVrcSPhJl+uXMWtW4k2j/0HC98h8o8jbN32q2kfvZ/qzvjQEbz2//6Gk5PC6vHw9PRg6pQJtGvbilx1Ljt37TVFiInqzWbTlzbz3hI/vwZMemksiz/8F9dvJODboL7ZJwOtZeIXxdb6lnL9LWXy2zPvSRNDOXP2AmELPyY9/Y7Ngx06OoTFS/5FTGw8g57rx7QpE7l6LYYFCz8i814Wr708hYkvjubDpctt1nAw8jA9unc2a/puXTtyKOooer2B8WNfsHo8XnpxDI0a+vN+2FJy1GpGhgwhMKAR+w/anIao4qxe3pdX5j2Ai0qFE5CdncO9e1lcuRrDqdPnzPZrLRO/qDotrW8t1780805JTWPV6g1cvRZLmh1NfyjqKNdi4jAajfy+/xDOzgp+2bGbOxl30ev1HDwURZPAALtqiDx0mMaN/PH38wXAy9OT1i2f4GDkYZvHw83NlR7du7B2/WZiYuO5fTuJr/+7FoNBQpQcgdUzfXll3gPExd/g1x2/8f67f+PUqbPsCN/D+QuX8vZrRya+WZ021jcYDBZz/Usz77NnL9g1Xr7k5BTTf+dqNACkpKQ9+FmuFnc3V7tqSElNI/rSVbp368TmLdvp3Lk9KalpXLkaQ0N/X6vHA6MRZ2eFWd6/Wq0mNS0NUf1ZbfryyrzPt27jFsJ3RzCgfx/mzJ5B+K4I1m34we5M/Af1WF/f3694MdflNe+i1reU429PDQcjoxj4XD82b9lOty4dTTcDsXk8/POuDjCan9l1Or19ExFVmtXL+7LKvLcmNS2ddRt+YMlHy3l+YD+USqVdmfgF2VrfWq4/PJyh/yjmbYs9NUQdPk6D+j40bxbMk0+04OChvKa3dTySk1MxGAwENG5kGlelVFLPp+4jmZuoWFbP9AUz77OysklLT6dfn97FzrwvSsOGfgQGNOJi9BU0uRpaPNaMjLuZpleQ8zPxtTodcXHXqVWrJsHBgYTvinhorIIZ+kWtXzDXX6vVkpqaTpPAxpw+e56srGxThn74rggMRiN37mSU27ztZc+xv5eVxanT55n44mji4q+bXvW3dTzUajV/RB1j/LiRZKzIJEedw9DBz6FUSmSiI7D5LK/b8ANajZZZM6fj6elBbGw8i5Z8xt3MzFLt2GgwMnBAX6ZOngDk3c75k8++NC3f+P1WMBqZMmkcNWp4kXE3k8hDlu9lZ2v9/63bzITxo5j52jRcXV24kXCLM+fy/ibf/ks4M1+bxidLF3D02CmWff5Vuc27OOyp4eChKGa+No01azeZbWvreKxas4GpUybw3jtzUavV/Bq+hyPHTj6yuYmKI7n3QlQTdufel2e+uyNlxzvSXEXVJmd6IaoJe8/08tl7IRyMNL0QDkaaXggHI00vhIOR3HshKjHJvRdClJpc3gvhYKTphXAw0vRCOBhpeiEcTLGaXnLRhaj65EwPzJ/3Or17da/oMoR4JKTpgcNHTxAXf6OiyxDikTCFaCwKm8+u3/bRrUsHmjUNJjsnh5+272Tnrr0WNw4OCmTMqOEEBwWiUDhx5txFVn69muzsHBYueItjx0+Z5d/37N6FyZPG8cqMOWgtZKyXJB9++WeLWb9hCwcio0zjvPv2HI6fOMO27TsA6xn7fZ7uBeQFeYDljPw7ReTzCVHVmCXnhI4azocfLedaTBytWz7B7DdeJf56AhcuXipy45wcNXsjDrDiq1W4qFx4Y9YrDB7Un02bt3HgYBR9null1vSdO7Xn6PGTFhveVEcx8+FtsZWxX5iljHwhqgOzy/tDUUe5ei0Wo9HI6bPnOXLkBH379LK48a3biUQdOU56egaJSckcPXaSgMYNAYg8dBg/3/qmxy4uKtq2bWk1b75gHfbmw9vDWsb+Q+sWMyNfiKrG7EyflJRitvBGwk06tG9jceNmTYMYOngA/v5+KBROeHl6mrLU72Tc5dz5aLp360z89QTatmmFVqPl7DnbWfHFyYe3h7WM/cLq1fMpVka+EFWN2ZlepTLPyXR2djbdLKGwunVq89abs4i+dIV588OYPfcf7N6zz2ydA5FRdO/aCYAundpz+MhxiznvBRUnH94SlUpl9njdxi288de3uXU7iTmzZzAudESR2ykKZdsLUd2YNX3DAndvAWga3ITbSeZ3r8kXFBSIQqHg1517TLHVvr7mN5U4cvQEtWrXpElgY9q1bUVkOV0mq9VqXFxdTI+dnRXUq+f90HpFZewXZisjX4iqzqzpO3VoS68eXfGuW4dn+/ambZuW7NlbdM57SkoqKpWK9u1a4+XlydO9e9C29ZNm66jVuRw9dpIRIYPRarUWXxAsrWsxcfTo1glXFxeUSiUvDB+Ml6enaXnDhn706N6ZunXr4OXp+VDGfkEFM/JbtXwcP98GdO/aSb5+LKoNs1PdTz+H06tnV6ZNnUhm5j1Wrd7AxegrRW4YF3+DTZu3MX3qS7i4qDh+4gwrVn5ndoNHgIMHDzP3rzPYEb4Ho7F8MjjXb/yRaVMmsPyzxeh0OqIOHyfy0BHTclsZ+4VZy8gXoqozpeEuCpvP3ogDhO+OKNMdeHp6sPKLj3l3wRIuXb5apmMLIR6wO/febKtyeA2rU8d2JCWlcPnKNUDy4YWoaOV287IaNbyoU7sWI0OG8NPPO02X9lqdjqkvv15euxVC2FBuTT/njddo6O/Hvt8j2b3n9/LajRCimOQON0JUE3KHGyFEkaTphXAwknsvRCUmufdCiFKTy3shHIw0vRAORppeCAcjTS+Eg6kSufeSty9E2al0Z/ru3ToxZtTwii6jypHsfmGvStf07du1rugSqiTJ7hf2qlS5969Mn0yvHl0BCBk2iGPHT/HRp18A4OnhyexZr9K61RPcy8piz979/PDjzw8molTy4riR9OzRBYxw6vQ5Vq3ZwL17Wab5FTdP39aYlkh2v6jMKlXu/RcrvqVWzRpci4lj4/dbzZYNHtSPVWs28u2qtQQFBTLr/6YTfekK585HAzBm1HCaBjXhvbClaHI1TP7TOKZPncRHn37+YH7FzNO3Z0xLJLtfVFaVMve+KMeOn2b/gT9IS7/DseOnuHzlGsHBTYC85NsBzz7Dd2s3kpBwi+SUVDZ9v42OHdrg7u5mNj978/TtHdMSye4XlVWlzL0vyo2Em2aPc3JycHfLa7769bxxcVExd/YMU2S30/0oax8fb65fTwCKl6dv75iWSHa/qKzMmr4kufebNm9j2edfo9PpGD1yKE2Dg0zrHIiMYmTIEDZs+rFYufdFyW+cojg55V2wfLBkGel3MsyWZRS4pC1Onr69Y1pSXtn94bsjGNC/D3NmzyB8VwTrNvzw0HaS3S+sqXS59waDAYWieP/TJiYlo9XpqF/Ph7S0dLN/er2+WGOV55jWSHa/eFQqXe59UlIKrVs9Sd06taldu5Zdk9BqtezYuYcJ40fTqWM76vl406xpUKk+0FMeY1oj2f3iUal0uffbfwln5mvT+GTpAo4eO8Wyz7+yayIbv98KRiNTJo2jRg0vMu5mEnnosF3bPsoxLZHsfvGoSO69ENWE5N6Xo+owB+G4JPe+BKrDHITjktx7IRyM5N4LUU1I7r0QokjS9EI4GMm9F6ISk9x7IUSpyeW9EA5Gml4IByNNL4SDkaYXwsFI0wvhYMq06at7Zn1lml9Z11KZ5ibKV5k2fXXPrK9M8yvrWirT3ET5Mn323t3djamTJ9ChQxvUOWp2hO/B38+XqzGxhO+KAKznwL8yfTJP9exqGrhgZn1RrOWy25MBvyhsPmvXb6Zbl4706NGFbT/tZMvWny3+3J5c/PDdEXTt3IHmzYJRq3PZE7HfFOFdlvNTKZWMDX2Bnt274O7hTkxMHKv/t4mr12JLVYu1ObZv15qZM6bx5t8XkJiUDMDsWa9iNBrIUecWa26icir29+knjh9NQEAjwhZ+jDo3lxHDB9OpY1uuxsSaBrWWA28ts74oZZHLPmliKGfOXiBs4cekp9+x+nN7MuxfHDuCpZ98QfSlKwQGNOK9d+Zy4eJlzl+ILtP5hY4JoV2bVny6bAXpdzLo+3Qv5s2dyay/vm36JVSSWqzN8cTJMxw+coKpUybwz8Wf0KVze1q0aMqcN98jI+NuseYmqjYFgKurK0/16sba9Zu5ei2WhIRbrPxmDYYC8ValzYEvqKxy2VNS01i1egNXr8WSVqDpC//c3tr/iDrGxejLGI1GYuOuc/lKDE2DA4tdl7X55deyeu0mLkZfITExmXUbt5CSmm4WNVbcWuyZ43drNtDQ35fnB/Zj0oSxrFq9wa5kX1G9KCEv493Z2dmUWQ956awFc9pLmwNfUFnlsp89W3TmW+Gf21v77UTz5N/c3Fzc3d2LXZe1+dWvn7csNu662c9jYuJoVCCNuLi12DPHrKxsvv7v/5g961WOnzjNwcjyyfsTlVve5f39/zkKB1dqC2S3lzYHvqCS5LIXzoCHorPli/p5aXLxS8La/JTOReeWOBXapri12DtHH29v9Ho9derUxtlZUeL7EIiqSwGQnJyKwWAw3YIK8m50Uc/nQe66PTnw9mbW28pltzcD3l5llWFfFvO7fTsRjUb70LKgJgHcvHm7xLXYM8f69X0YOyaEjz/7EqWzM8OGDCz23ETVp4C8Jov84wjjQkfQuJE/Pt51mTB+FG4FbrtkTw68vZn1tnLZbWXAF1dZZdiXxfxyNRp279nHhPGjeKx5U3x86hI6OgQfH29+21P0PQbsqcXWHJ2cnPjLn1/iUNQxTpw8w8pv1hAybBCN7/+iL8n9BkTV5OxdP+BdgAsXLtPisWaMHzuSp3v34PyFS7i7uxF//YbpraQLFy9Rw8uTkGGDGDbkOdq3a01qahpn7v8NfSPhJl06tSd0TAj1fLw5fOS4xR2fv3AJP78GjAwZwsABffD1bcCByCg0Gi1Xr8XRrm0rJowfzcABfUhOTiUxKZmMu5lEX8rL4X+2b29i4+JNteWz9HNbtRe1Xc/uXci4f0++spzfufMXqVWzJmNDX2DI4AGoVEr+veIbbt1OLFUt1uY44Nln6NypHUs/+QKtVkta+h1q1arJc/37sO/3g1y/nmD33ETl1KiRP+5ubigUeX/qGY1GctS53Ei4BYAmN4catXysZ+R9sPAddu7aa/EuN0KIyqNkufcFuLm5Ub++DykpqSUqoLpnw1f3+Ynqy9T0zw/sR2pqOrHx18EIoaNDyMrK5mL05RINXN2z4av7/ET1ZWr67OwcRo0Yio9PXfR6Pddi4vlw6TI0mrJ5G0sIUTmYmj7i90gifo+syFqEEI+AfJ9eCAcjTS+Eg5HceyEqMcm9F0KUmlzeC+FgpOmFcDDS9EI4GGl6IRyMNL0QDsZm08+f9zq9e3V/FLU8RLLYhSh7Npv+8NETxMXfeBS1PESy2IUoe6YQDUumTplA5r17ZpnsBoOBsaNDmDxpHM/174O7uxsXLl4ybbMobD5Go5FxoS8wedJ4+j/7DHq93iwUYvlni7l7N5P4AoGa7749h5o1axJ96Yop2/3xFs0Z+cIQmgQ2LlFirhCOwt4QDYvfp7fGWiZ7vtBRw/nwo+Vci4mjdcsnmP3Gq8RfTzD75WBNcXPmhRD2KdELefZksh+KOsrVa7EYjUZOnz3PkSMn6NunV5kULYQouRI1vT2Z7ElJKWaPbyTcpEH9eiXZnRCiDJWo6e3JZFepzP9ycHZ2Nt2EwfI2D2fbCyHKVrm9T9+wwN1aAJoGN+F20oMrBHuy7SWLXYiyV25N36lDW3r16Ip33To827c3bdu0NEvVtSfbXrLYhSh75db0P/0cTq+eXfl46QJChj/PqtUbuBh9xbR8/cYf0Wp1LP9sMcs+WYiXpyeRh46YjbH9l3D0Oj2fLF3AxPGjy6tUIRyK1dz7kloUNp+9EQcI3x1R1kMLISywO/e+3PLb5U9xISolpeS3C+FY5Ft2QjiYEn0M15Z588PKY1ghRBmQM70QDkaaXggHI7n3QlRiknsvhCg1ubwXwsFI0wvhYKTphXAw0vRCOJhSNf2isPkM6P9MGZUihHgUTE1f2TPmK3t9QlQVpqav7Bnzlb0+IaoKJcAr0yfTq0dXAEKGDeLY8VN89OkXKJVKXhw3kp49uoARTp0+x6o1G7h3L6vIwRaFzWfXb/vo1qUDzZoGk52Tw0/bd7Jz117TOiqlkrGhL9CzexfcPdyJiYlj9f82meXqr12/mW5dOtKjRxe2/bQTX9/6RdZnSd9nejF08HPU9a5D5t1MDkYeZt3GLXbXGBwUyJhRwwkOCkShcOLMuYus/Ho12dk5vDlnJvHXb7B2/Q8AdOzQhtmzXuWzZf8h6shxAMaFjqBxY38+XLqcRWHzCd8dQdfOHWjeLBi1Opc9EfvZvGV7iZ4wIUpLCZYz5seMGk7ToCa8F7YUTa6GyX8ax/Spk/jo088tDmgr7z50TAjt2rTi02UrSL+TQd+nezFv7kxm/fVt0y+TSRNDOXP2AmELPyY9/Q5p6XfszsD382vApJfGsvjDf3H9RgK+Deo/9IlDWzXm5KjZG3GAFV+twkXlwhuzXmHwoP5s2ryNc+cv0rlTe9NY7du2JjUtnXZtW5ma/sknHjMFF4B99wkQ4lGx+EKeSqViwLPP8N3ajSQk3CI5JZVN32+jY4c2uLu7WRzQWt59/pir127iYvQVEhOTWbdxCymp6fTr29s0RkpqGqtWb+DqtVjS0u8Ua0IuKhVOQHZ2DvfuZXHlagynTp+zu0aAW7cTiTpynPT0DBKTkjl67CQBjRsCcO58NEFNAnF1dQWgXdtW/PLrbtq2aYmTkxNubq40CQzg3PmLpvHsuU+AEI+Kxa/W1q/njYuLirmzZ5iiq52c8uJwfHy8uV7gdlQFFZV336F9m7wx6/ugVCqJjbtutk5MTByNCqTnnj17ofgzuS8u/ga/7viN99/9G6dOnWVH+B7OXzC/q461GgGaNQ1i6OAB+Pv7oVA44eXpSUxsfF6tsfGo1Woeax7M3bv3cHNzZfee3xk9ciiBAY2oXasWOTk5Zvf/s+c+AUI8Khab3skp7yLggyXLSL+TYbYsI+OuxQGt5d0rnYveXf4vk3z25Opbs27jFsJ3RzCgfx/mzJ5B+K4I1m34wa4a69apzVtvznvQUg0AAAeKSURBVGLT5m0s+/xrdDodo0cOpWlwEJB3f7CL0Zd5vEVzNFotp86cR6vVcvbcRdq2aYm7uxvnL1zCaHwQPVja+QhRlkyX94Uz5hOTktHqdNSv50NaWrrZP71eb3FAa3n3t28notFoCWoSYLZOUJMAbt68bbXQ4mbgp6als27DDyz5aDnPD+yHUvmg0a3VGBQUiEKh4Nede9DpdAD4+jYwW//c+WhaPNaUlk+04PiJ0wCcPHWWlk+2oHmzYM4WuLQXorIxNX3hjHmtVsuOnXuYMH40nTq2o56PN82aBtn8MI61vPtcjYbde/YxYfwoHmveFB+fuoSODsHHx5vf9uy3Oq69GfgNG/rRo3tn6tatg5enJy0ea0bG3UxTA9uqMSUlFZVKRft2rfHy8uTp3j1o2/pJs32cO3+RwIDGBDUJ4NSpvNcLTp46S7OmQQQGNDb7e16IysZ0+tv+SzgzX5vGJ0sXcPTYKZZ9/lXeK+VGI1MmjaNGDS8y7mYSeeiw1QHz8+6nTZ1IZua9h/Lu1234Aa1Gy6yZ0/H09CA2Np5FSz7jbmam1XGLqq8oRoORgQP6MnXyBADi4q/zyWdf2l1jXPwNNm3exvSpL+HiouL4iTOsWPmd2QuN12/cRKfTcet2Evey8t5xSEu/Q1JyKjW8vLh1K9HqXISoSGWae18V8u6rQo1ClITdufdlvudHkHdf6qx+yeQXDqxc0nDLm2T1C1Fy8tVaIRxMudzLTgjx6Nn7N72c6YVwMNL0QjgYyb0XohKT3HshRKnJ5b0QDkaaXggHI00vhIORphfCwUjTC7vIPQ6qj0rd9PPnvU7vXt2LtY3k4wthXaVu+sNHT5hlzdlD8vGFsM7mt+yKyqHfsvVnm5n4pc2XB+jzdF5CbVz8ddOY1jLkLeX3F3dutuqyJ8ve3d2NqZMn0KFDG9Q5anaE78Hfz5erMbGE74rIO/jFvK9APmv3Dvhg4TtE/nGErdt+Na3f+6nujA8dwWv/7284OSlsPm9FHZPCrB2jhQve4tjxU2bHo2f3LkyeNI5XZsxBWyDFSDx6dp3pJ00MRaPVErbwY/b9fhAwz8R/652FeHp5MH3qJLPtQkcNZ8Omrfx5+iz+s/I7xo8byROPP2Zanp8v/7e33uetdxbh7+fL4EH9rdby4tgR/LjtV6a+/DpLPl7OsCHP8eQTLYC8/P7TZ87z47ZfGf/Sy1Yb3trc7KnLWh0AE8ePJiCgEWELPyZs8ScENG5Et64dzcaw5xgWpeC9A+bOe4/o6CvMmzsTLy9PDkYepnvXTmbrd+vakUNRR9HrDXbts6hjUpi1Y3TgYBTdCtXQuVN7jh4/KQ1fCdjV9IVz6O3NxC9NvrwlZZ0hX1TGvj11WavD1dWVp3p1Y+36zVy9FktCwi1WfrMGQ4GE3JLeV8DWvQMiDx2mcSN//P18AfDy9KR1yyc4GHnY7n3ac98Ba8co8tBh/Hzrmx67uKho27Ylh/44WtynR5QDu0I0CufQ25uJX5p8eUvKOkO+qIx9e+qyVkf9et44OzubbaNWq0lJSTM9Lul9BWzdOyAlNY3oS1fp3q0Tm7dsp3Pn9qSkpnHlagwN/X3t2qc99x2wdozuZNzl3PlounfrTPz1BNq2aYVWo+XsuZLfz0CUHbuavnBuu72Z+KXJl7e3ltIqPJ69dVmt434jFcy+B9AW2Kak9xWw594BByOjGPhcPzZv2U63Lh05GHm4WPu0dYztOUYHIqMYGTKEDZt+pEun9hw+chy93mB1XPFolOjVe3sz8UubL18Sxc3HL6ws6kpOTsVgMJj9SeDs7Ew9H2/T45LeV8CeewdEHT5Og/o+NG8WzJNPtODg/QTjku6zMHuO0ZGjJ6hVuyZNAhvTrm0rIuXSvtIoUdPbm4lf2nz5krA3H9+SsqhLrVYT+ceRvLvXNvLHx7suE8aPws3N1bROSe8rYM+9A+5lZXHq9HkmvjiauPjrpkjuku6zJMdIrc7l6LGTjAgZjFarNd0cVFS8Egdj2pOJX9p8+ZKwNx/fkrKq67vVG5k6ZQIL3p1Hbm4uO3ftfejv8JLcVwDsu3fAwUNRzHxtGmvWbiqTfRZk7zE6ePAwc/86gx3hex76U0dUnHLLyJN8+Yd9sPAddu7aa7raqe48PT1Y+cXHvLtgCZcuX63ocqo9u3PvS50hb00F58uX69yKyc3Njfr1fUhJSbW5bmWquzQ6dWxHUlIKl69cq+hSRAHK6pwhX5Fze35gP1JT04mNvw5GCB0dQlZWNhejL9vctqo/JzVqeFGndi1Ghgzhp593yqV9JVMlb3ZRFWRn5zBqxFB8fOqi1+u5FhPPh0uXodFU/9tWz3njNRr6+7Hv90h27/m9ossRhUjuvRDVRFCTAIKaBODm6gKAOldDTGy86UNT5XcvOyFEhch/d8i3QT0AbicmP/SOEcjlvRDVhtFoNDuzW1Kpv08vhCh70vRCOBhpeiEcjDS9EA5Gml4IB6PMzLD9sVAhRPWh9A9oYXstIUS1IZf3QjgYaXohHIw0vRAORppeCAfj5Nf4cfmWnRAOROnqVvLMeCFE1fP/AW+kqOTtmNjyAAAAAElFTkSuQmCC;" vertex="1" parent="ZNyAp8tG6LV2TRc6ALxz-7">
          <mxGeometry y="1230.44" width="220" height="368.7" as="geometry" />
        </mxCell>
        <mxCell id="ZNyAp8tG6LV2TRc6ALxz-13" value="" style="endArrow=classic;html=1;rounded=0;exitX=0.5;exitY=1;exitDx=0;exitDy=0;entryX=0.5;entryY=0;entryDx=0;entryDy=0;" edge="1" parent="WIyWlLk6GJQsqaUBKTNV-1" source="ZNyAp8tG6LV2TRc6ALxz-3" target="ZNyAp8tG6LV2TRc6ALxz-7">
          <mxGeometry relative="1" as="geometry">
            <mxPoint x="410" y="240" as="sourcePoint" />
            <mxPoint x="510" y="240" as="targetPoint" />
          </mxGeometry>
        </mxCell>
        <mxCell id="ZNyAp8tG6LV2TRc6ALxz-14" value="Start Level" style="edgeLabel;resizable=0;html=1;align=center;verticalAlign=middle;" connectable="0" vertex="1" parent="ZNyAp8tG6LV2TRc6ALxz-13">
          <mxGeometry relative="1" as="geometry" />
        </mxCell>
        <mxCell id="ZNyAp8tG6LV2TRc6ALxz-15" value="" style="endArrow=classic;html=1;rounded=0;exitX=0.5;exitY=1;exitDx=0;exitDy=0;" edge="1" parent="WIyWlLk6GJQsqaUBKTNV-1" source="zkfFHV4jXpPFQw0GAbJ--0" target="ZNyAp8tG6LV2TRc6ALxz-10">
          <mxGeometry relative="1" as="geometry">
            <mxPoint x="250" y="740" as="sourcePoint" />
            <mxPoint x="350" y="740" as="targetPoint" />
          </mxGeometry>
        </mxCell>
        <mxCell id="ZNyAp8tG6LV2TRc6ALxz-16" value="&lt;div&gt;JSON autostart&lt;/div&gt;" style="edgeLabel;resizable=0;html=1;align=center;verticalAlign=middle;" connectable="0" vertex="1" parent="ZNyAp8tG6LV2TRc6ALxz-15">
          <mxGeometry relative="1" as="geometry" />
        </mxCell>
      </root>
    </mxGraphModel>
  </diagram>
</mxfile>
